Eczar-Medium.ufo
<glyph name="exclam" format="1">
  <advance width="314"/>
  <unicode hex="0021"/>
  <outline>
    <contour>
      <point x="195" y="224" type="line"/>
      <point x="233" y="654" type="line"/>
      <point x="204" y="684"/>
      <point x="118" y="682"/>
      <point x="82" y="656" type="curve"/>
      <point x="118" y="224" type="line"/>
    </contour>
    <contour>
      <point x="113" y="123"/>
      <point x="87" y="92"/>
      <point x="80" y="49" type="curve"/>
      <point x="97" y="13"/>
      <point x="126" y="-11"/>
      <point x="166" y="-20" type="curve"/>
      <point x="200" y="-4"/>
      <point x="224" y="24"/>
      <point x="235" y="62" type="curve"/>
      <point x="227" y="98"/>
      <point x="195" y="127"/>
      <point x="153" y="144" type="curve"/>
    </contour>
  </outline>
</glyph>
<glyph name="numbersign" format="1">
  <advance width="622"/>
  <unicode hex="0023"/>
  <outline>
    <contour>
      <point x="132" y="0" type="line"/>
      <point x="204" y="-10" type="line"/>
      <point x="285" y="521" type="line"/>
      <point x="213" y="530" type="line"/>
    </contour>
    <contour>
      <point x="337" y="0" type="line"/>
      <point x="409" y="-10" type="line"/>
      <point x="490" y="521" type="line"/>
      <point x="418" y="530" type="line"/>
    </contour>
    <contour>
      <point x="87" y="345" type="line"/>
      <point x="564" y="345" type="line"/>
      <point x="564" y="407" type="line"/>
      <point x="87" y="407" type="line"/>
    </contour>
    <contour>
      <point x="58" y="133" type="line"/>
      <point x="535" y="133" type="line"/>
      <point x="535" y="196" type="line"/>
      <point x="58" y="196" type="line"/>
    </contour>
  </outline>
</glyph>
<glyph name="dollar" format="1">
  <advance width="555"/>
  <unicode hex="0024"/>
  <outline>
    <contour>
      <point x="257" y="35" type="line"/>
      <point x="257" y="-145" type="line"/>
      <point x="340" y="-145" type="line"/>
      <point x="340" y="35" type="line"/>
    </contour>
    <contour>
      <point x="257" y="785" type="line"/>
      <point x="257" y="633" type="line"/>
      <point x="339" y="633" type="line"/>
      <point x="339" y="785" type="line"/>
    </contour>
    <component base="S"/>
  </outline>
</glyph>
<glyph name="ampersand" format="1">
  <advance width="678"/>
  <unicode hex="0026"/>
  <outline>
    <contour>
      <point x="229" y="372" type="line"/>
      <point x="180" y="393"/>
      <point x="155" y="440"/>
      <point x="155" y="484" type="curve" smooth="yes"/>
      <point x="155" y="528"/>
      <point x="179" y="571"/>
      <point x="224" y="592" type="curve"/>
      <point x="414" y="525" type="line"/>
      <point x="451" y="628" type="line"/>
      <point x="381" y="656"/>
      <point x="314" y="668"/>
      <point x="259" y="668" type="curve" smooth="yes"/>
      <point x="113" y="668"/>
      <point x="40" y="584"/>
      <point x="40" y="501" type="curve" smooth="yes"/>
      <point x="40" y="426"/>
      <point x="99" y="351"/>
      <point x="218" y="339" type="curve"/>
    </contour>
    <contour>
      <point x="405" y="379" type="line"/>
      <point x="446" y="333"/>
      <point x="469" y="270"/>
      <point x="469" y="211" type="curve" smooth="yes"/>
      <point x="469" y="155"/>
      <point x="448" y="102"/>
      <point x="399" y="68" type="curve"/>
      <point x="364" y="52"/>
      <point x="325" y="47"/>
      <point x="297" y="47" type="curve" smooth="yes"/>
      <point x="212" y="47"/>
      <point x="136" y="90"/>
      <point x="136" y="174" type="curve" smooth="yes"/>
      <point x="136" y="243"/>
      <point x="189" y="306"/>
      <point x="290" y="304" type="curve"/>
      <point x="302" y="362" type="line"/>
      <point x="171" y="400" type="line"/>
      <point x="170" y="377" type="line"/>
      <point x="84" y="360"/>
      <point x="19" y="291"/>
      <point x="19" y="197" type="curve" smooth="yes"/>
      <point x="19" y="63"/>
      <point x="145" y="-26"/>
      <point x="300" y="-26" type="curve" smooth="yes"/>
      <point x="474" y="-26"/>
      <point x="576" y="85"/>
      <point x="576" y="222" type="curve" smooth="yes"/>
      <point x="576" y="286"/>
      <point x="554" y="357"/>
      <point x="505" y="420" type="curve"/>
    </contour>
    <contour>
      <point x="368" y="300" type="line"/>
      <point x="537" y="408"/>
      <point x="602" y="365"/>
      <point x="674" y="324" type="curve"/>
      <point x="703" y="427" type="line"/>
      <point x="623" y="490"/>
      <point x="535" y="472"/>
      <point x="337" y="356" type="curve"/>
    </contour>
  </outline>
</glyph>
<glyph name="quotesingle" format="1">
  <advance width="175"/>
  <unicode hex="0027"/>
  <outline>
    <contour>
      <point x="-23" y="516" type="curve"/>
      <point x="53" y="491" type="line"/>
      <point x="98" y="563"/>
      <point x="128" y="652"/>
      <point x="133" y="730" type="curve"/>
      <point x="48" y="746" type="line"/>
      <point x="15" y="717" type="line"/>
      <point x="15" y="680"/>
      <point x="11" y="607"/>
    </contour>
  </outline>
</glyph>
<glyph name="parenleft" format="1">
  <advance width="303"/>
  <unicode hex="0028"/>
  <outline>
    <contour>
      <point x="269" y="-118" type="line"/>
      <point x="194" y="16"/>
      <point x="147" y="158"/>
      <point x="147" y="302" type="curve" smooth="yes"/>
      <point x="147" y="426"/>
      <point x="187" y="561"/>
      <point x="276" y="696" type="curve"/>
      <point x="208" y="732" type="line"/>
      <point x="80" y="585"/>
      <point x="26" y="436"/>
      <point x="26" y="297" type="curve" smooth="yes"/>
      <point x="26" y="136"/>
      <point x="92" y="-15"/>
      <point x="199" y="-155" type="curve"/>
    </contour>
  </outline>
</glyph>
<glyph name="plus" format="1">
  <advance width="571"/>
  <unicode hex="002B"/>
  <outline>
    <contour>
      <point x="329" y="279" type="line"/>
      <point x="329" y="474" type="line"/>
      <point x="242" y="474" type="line"/>
      <point x="242" y="279" type="line"/>
      <point x="58" y="279" type="line"/>
      <point x="58" y="202" type="line"/>
      <point x="242" y="202" type="line"/>
      <point x="242" y="8" type="line"/>
      <point x="329" y="8" type="line"/>
      <point x="329" y="202" type="line"/>
      <point x="513" y="202" type="line"/>
      <point x="513" y="279" type="line"/>
    </contour>
  </outline>
</glyph>
<glyph name="comma" format="1">
  <advance width="265"/>
  <unicode hex="002C"/>
  <outline>
    <contour>
      <point x="78" y="-145" type="line"/>
      <point x="157" y="-104"/>
      <point x="210" y="-29"/>
      <point x="210" y="36" type="curve" smooth="yes"/>
      <point x="210" y="83"/>
      <point x="181" y="123"/>
      <point x="130" y="140" type="curve"/>
      <point x="94" y="122"/>
      <point x="67" y="92"/>
      <point x="60" y="49" type="curve"/>
      <point x="112" y="7" type="line"/>
      <point x="110" y="-28"/>
      <point x="86" y="-67"/>
      <point x="44" y="-102" type="curve"/>
    </contour>
  </outline>
</glyph>
<glyph name="hyphen" format="1">
  <advance width="390"/>
  <unicode hex="002D"/>
  <outline>
    <contour>
      <point x="340" y="240" type="line"/>
      <point x="353" y="267" type="line"/>
      <point x="315" y="331" type="line"/>
      <point x="44" y="331" type="line"/>
      <point x="31" y="303" type="line"/>
      <point x="70" y="240" type="line"/>
    </contour>
  </outline>
</glyph>
<glyph name="slash" format="1">
  <advance width="409"/>
  <unicode hex="002F"/>
  <outline>
    <contour>
      <point x="104" y="-124" type="line"/>
      <point x="410" y="682" type="line"/>
      <point x="333" y="715" type="line"/>
      <point x="26" y="-93" type="line"/>
    </contour>
  </outline>
</glyph>
<glyph name="zero" format="1">
  <advance width="577"/>
  <unicode hex="0030"/>
  <outline>
    <contour>
      <point x="39" y="154"/>
      <point x="118" y="-12"/>
      <point x="286" y="-12" type="curve" smooth="yes"/>
      <point x="450" y="-12"/>
      <point x="536" y="147"/>
      <point x="536" y="338" type="curve" smooth="yes"/>
      <point x="536" y="524"/>
      <point x="450" y="663"/>
      <point x="297" y="663" type="curve" smooth="yes"/>
      <point x="128" y="663"/>
      <point x="39" y="493"/>
      <point x="39" y="319" type="curve" smooth="yes"/>
    </contour>
    <contour>
      <point x="248" y="586"/>
      <point x="261" y="587"/>
      <point x="273" y="587" type="curve" smooth="yes"/>
      <point x="371" y="587"/>
      <point x="414" y="458"/>
      <point x="414" y="324" type="curve" smooth="yes"/>
      <point x="414" y="238"/>
      <point x="396" y="123"/>
      <point x="341" y="70" type="curve"/>
      <point x="328" y="65"/>
      <point x="316" y="63"/>
      <point x="304" y="63" type="curve" smooth="yes"/>
      <point x="198" y="63"/>
      <point x="160" y="222"/>
      <point x="160" y="332" type="curve" smooth="yes"/>
      <point x="160" y="410"/>
      <point x="181" y="531"/>
      <point x="233" y="582" type="curve"/>
    </contour>
  </outline>
</glyph>
<glyph name="one" format="1">
  <advance width="423"/>
  <unicode hex="0031"/>
  <outline>
    <contour>
      <point x="171" y="623" type="line"/>
      <point x="171" y="0" type="line"/>
      <point x="288" y="0" type="line"/>
      <point x="288" y="636" type="line"/>
    </contour>
    <contour>
      <point x="34" y="34" type="curve"/>
      <point x="40" y="0" type="line"/>
      <point x="182" y="0" type="line"/>
      <point x="193" y="85" type="line"/>
      <point x="138" y="72"/>
      <point x="81" y="55"/>
    </contour>
    <contour>
      <point x="270" y="70" type="line"/>
      <point x="268" y="0" type="line"/>
      <point x="404" y="0" type="line"/>
      <point x="409" y="50" type="line"/>
    </contour>
    <contour>
      <point x="20" y="536" type="line"/>
      <point x="50" y="484" type="line"/>
      <point x="219" y="559" type="line"/>
      <point x="247" y="639" type="line"/>
      <point x="232" y="670" type="line"/>
    </contour>
    <contour>
      <point x="232" y="670" type="line"/>
      <point x="203" y="604" type="line"/>
      <point x="288" y="636" type="line"/>
    </contour>
  </outline>
</glyph>
<glyph name="three" format="1">
  <advance width="551"/>
  <unicode hex="0033"/>
  <outline>
    <contour>
      <point x="176" y="607" type="line"/>
      <point x="64" y="614" type="line"/>
      <point x="60" y="564"/>
      <point x="63" y="519"/>
      <point x="73" y="469" type="curve"/>
      <point x="145" y="468" type="line"/>
    </contour>
    <contour>
      <point x="346" y="426"/>
      <point x="297" y="356"/>
      <point x="162" y="355" type="curve"/>
      <point x="170" y="284" type="line"/>
      <point x="326" y="327" type="line"/>
      <point x="326" y="343" type="line"/>
      <point x="423" y="371"/>
      <point x="468" y="438"/>
      <point x="468" y="505" type="curve" smooth="yes"/>
      <point x="468" y="588"/>
      <point x="397" y="670"/>
      <point x="262" y="670" type="curve" smooth="yes"/>
      <point x="193" y="670"/>
      <point x="117" y="650"/>
      <point x="64" y="614" type="curve"/>
      <point x="101" y="566" type="line"/>
      <point x="140" y="588"/>
      <point x="181" y="598"/>
      <point x="219" y="598" type="curve" smooth="yes"/>
      <point x="300" y="598"/>
      <point x="346" y="550"/>
      <point x="346" y="488" type="curve" smooth="yes"/>
    </contour>
    <contour>
      <point x="54" y="29" type="line"/>
      <point x="115" y="0"/>
      <point x="192" y="-19"/>
      <point x="262" y="-19" type="curve" smooth="yes"/>
      <point x="422" y="-19"/>
      <point x="500" y="79"/>
      <point x="500" y="171" type="curve" smooth="yes"/>
      <point x="500" y="266"/>
      <point x="421" y="350"/>
      <point x="323" y="353" type="curve"/>
      <point x="312" y="358" type="line"/>
      <point x="162" y="355" type="line"/>
      <point x="156" y="355" type="line"/>
      <point x="159" y="281" type="line"/>
      <point x="225" y="284" type="line"/>
      <point x="328" y="284"/>
      <point x="379" y="225"/>
      <point x="379" y="161" type="curve" smooth="yes"/>
      <point x="379" y="131"/>
      <point x="368" y="99"/>
      <point x="343" y="73" type="curve"/>
      <point x="266" y="64"/>
      <point x="160" y="101"/>
      <point x="82" y="143" type="curve"/>
    </contour>
  </outline>
</glyph>
<glyph name="seven" format="1">
  <advance width="476"/>
  <unicode hex="0037"/>
  <outline>
    <contour>
      <point x="87" y="21" type="curve"/>
      <point x="203" y="-15" type="line"/>
      <point x="274" y="190"/>
      <point x="359" y="383"/>
      <point x="472" y="568" type="curve"/>
      <point x="433" y="650" type="line"/>
      <point x="28" y="650" type="line"/>
      <point x="74" y="556" type="line"/>
      <point x="358" y="567" type="line"/>
      <point x="365" y="558" type="line"/>
      <point x="254" y="395"/>
      <point x="163" y="214"/>
    </contour>
    <contour>
      <point x="36" y="467" type="curve"/>
      <point x="112" y="466" type="line"/>
      <point x="137" y="641" type="line"/>
      <point x="25" y="650" type="line"/>
      <point x="21" y="600"/>
      <point x="26" y="517"/>
    </contour>
  </outline>
</glyph>
<glyph name="eight" format="1">
  <advance width="527"/>
  <unicode hex="0038"/>
  <outline>
    <contour>
      <point x="420" y="380"/>
      <point x="466" y="446"/>
      <point x="466" y="513" type="curve" smooth="yes"/>
      <point x="466" y="597"/>
      <point x="393" y="668"/>
      <point x="267" y="668" type="curve" smooth="yes"/>
      <point x="134" y="668"/>
      <point x="56" y="589"/>
      <point x="56" y="496" type="curve" smooth="yes"/>
      <point x="56" y="426"/>
      <point x="100" y="369"/>
      <point x="178" y="326" type="curve"/>
      <point x="228" y="300" type="line"/>
      <point x="331" y="247"/>
      <point x="374" y="202"/>
      <point x="374" y="143" type="curve" smooth="yes"/>
      <point x="374" y="117"/>
      <point x="364" y="91"/>
      <point x="346" y="60" type="curve"/>
      <point x="319" y="51"/>
      <point x="295" y="47"/>
      <point x="274" y="47" type="curve" smooth="yes"/>
      <point x="199" y="47"/>
      <point x="160" y="100"/>
      <point x="160" y="160" type="curve" smooth="yes"/>
      <point x="160" y="213"/>
      <point x="190" y="271"/>
      <point x="253" y="302" type="curve"/>
      <point x="210" y="345" type="line"/>
      <point x="100" y="305"/>
      <point x="39" y="236"/>
      <point x="39" y="154" type="curve" smooth="yes"/>
      <point x="39" y="56"/>
      <point x="125" y="-21"/>
      <point x="260" y="-21" type="curve" smooth="yes"/>
      <point x="399" y="-21"/>
      <point x="488" y="61"/>
      <point x="488" y="166" type="curve" smooth="yes"/>
      <point x="488" y="270"/>
      <point x="399" y="324"/>
      <point x="312" y="371" type="curve" smooth="yes"/>
      <point x="239" y="410"/>
      <point x="166" y="444"/>
      <point x="166" y="513" type="curve" smooth="yes"/>
      <point x="166" y="536"/>
      <point x="175" y="563"/>
      <point x="198" y="590" type="curve"/>
      <point x="220" y="599"/>
      <point x="240" y="604"/>
      <point x="260" y="604" type="curve" smooth="yes"/>
      <point x="322" y="604"/>
      <point x="364" y="559"/>
      <point x="364" y="502" type="curve" smooth="yes"/>
      <point x="364" y="472"/>
      <point x="352" y="420"/>
      <point x="272" y="371" type="curve"/>
      <point x="315" y="333" type="line"/>
    </contour>
  </outline>
</glyph>
<glyph name="colon" format="1">
  <advance width="241"/>
  <unicode hex="003A"/>
  <outline>
    <contour>
      <point x="172" y="-20" type="curve"/>
      <point x="206" y="-4"/>
      <point x="230" y="24"/>
      <point x="241" y="62" type="curve"/>
      <point x="233" y="98"/>
      <point x="201" y="127"/>
      <point x="159" y="144" type="curve"/>
      <point x="119" y="123"/>
      <point x="93" y="92"/>
      <point x="86" y="49" type="curve"/>
      <point x="103" y="13"/>
      <point x="132" y="-11"/>
    </contour>
    <contour>
      <point x="172" y="288" type="curve"/>
      <point x="206" y="304"/>
      <point x="230" y="332"/>
      <point x="241" y="369" type="curve"/>
      <point x="233" y="406"/>
      <point x="201" y="434"/>
      <point x="159" y="451" type="curve"/>
      <point x="119" y="431"/>
      <point x="93" y="400"/>
      <point x="86" y="357" type="curve"/>
      <point x="103" y="321"/>
      <point x="132" y="297"/>
    </contour>
  </outline>
</glyph>
<glyph name="semicolon" format="1">
  <advance width="267"/>
  <unicode hex="003B"/>
  <outline>
    <contour>
      <point x="204" y="406"/>
      <point x="172" y="434"/>
      <point x="130" y="451" type="curve"/>
      <point x="90" y="431"/>
      <point x="64" y="400"/>
      <point x="57" y="357" type="curve"/>
      <point x="74" y="321"/>
      <point x="103" y="297"/>
      <point x="143" y="288" type="curve"/>
      <point x="177" y="304"/>
      <point x="201" y="332"/>
      <point x="212" y="369" type="curve"/>
    </contour>
    <contour>
      <point x="78" y="-145" type="line"/>
      <point x="157" y="-104"/>
      <point x="210" y="-29"/>
      <point x="210" y="36" type="curve" smooth="yes"/>
      <point x="210" y="83"/>
      <point x="181" y="123"/>
      <point x="130" y="140" type="curve"/>
      <point x="94" y="122"/>
      <point x="67" y="92"/>
      <point x="60" y="49" type="curve"/>
      <point x="112" y="7" type="line"/>
      <point x="110" y="-28"/>
      <point x="86" y="-67"/>
      <point x="44" y="-102" type="curve"/>
    </contour>
  </outline>
</glyph>
<glyph name="equal" format="1">
  <advance width="588"/>
  <unicode hex="003D"/>
  <outline>
    <contour>
      <point x="58" y="195" type="line"/>
      <point x="58" y="122" type="line"/>
      <point x="530" y="122" type="line"/>
      <point x="530" y="195" type="line"/>
    </contour>
    <contour>
      <point x="58" y="377" type="line"/>
      <point x="58" y="304" type="line"/>
      <point x="530" y="304" type="line"/>
      <point x="530" y="377" type="line"/>
    </contour>
  </outline>
</glyph>
<glyph name="question" format="1">
  <advance width="602"/>
  <unicode hex="003F"/>
  <outline>
    <contour>
      <point x="186" y="462" type="line"/>
      <point x="217" y="610" type="line"/>
      <point x="97" y="617" type="line"/>
      <point x="96" y="607"/>
      <point x="102" y="532"/>
      <point x="114" y="462" type="curve"/>
    </contour>
    <contour>
      <point x="329" y="348"/>
      <point x="496" y="359"/>
      <point x="496" y="502" type="curve" smooth="yes"/>
      <point x="496" y="604"/>
      <point x="411" y="686"/>
      <point x="288" y="686" type="curve" smooth="yes"/>
      <point x="219" y="686"/>
      <point x="153" y="661"/>
      <point x="97" y="617" type="curve"/>
      <point x="145" y="539" type="line"/>
      <point x="215" y="592"/>
      <point x="282" y="611"/>
      <point x="332" y="609" type="curve"/>
      <point x="364" y="589"/>
      <point x="384" y="556"/>
      <point x="384" y="515" type="curve" smooth="yes"/>
      <point x="384" y="399"/>
      <point x="219" y="393"/>
      <point x="220" y="238" type="curve"/>
      <point x="322" y="238" type="line"/>
    </contour>
    <contour>
      <point x="243" y="123"/>
      <point x="217" y="92"/>
      <point x="210" y="49" type="curve"/>
      <point x="227" y="13"/>
      <point x="256" y="-11"/>
      <point x="296" y="-20" type="curve"/>
      <point x="330" y="-4"/>
      <point x="354" y="24"/>
      <point x="365" y="62" type="curve"/>
      <point x="357" y="98"/>
      <point x="325" y="127"/>
      <point x="283" y="144" type="curve"/>
    </contour>
  </outline>
</glyph>
<glyph name="C" format="1">
  <advance width="572"/>
  <unicode hex="0043"/>
  <outline>
    <contour>
      <point x="355" y="-16" type="curve"/>
      <point x="556" y="73" type="line"/>
      <point x="534" y="133" type="line"/>
      <point x="375" y="79" type="line"/>
      <point x="224" y="70"/>
      <point x="146" y="192"/>
      <point x="146" y="343" type="curve"/>
      <point x="146" y="435"/>
      <point x="174" y="542"/>
      <point x="254" y="593" type="curve"/>
      <point x="359" y="600"/>
      <point x="439" y="564"/>
      <point x="511" y="502" type="curve"/>
      <point x="539" y="612" type="line"/>
      <point x="502" y="639"/>
      <point x="436" y="674"/>
      <point x="340" y="674" type="curve"/>
      <point x="123" y="674"/>
      <point x="17" y="495"/>
      <point x="17" y="319" type="curve"/>
      <point x="17" y="149"/>
      <point x="115" y="-21"/>
    </contour>
    <contour>
      <point x="424" y="579" type="line"/>
      <point x="443" y="444" type="line"/>
      <point x="519" y="444" type="line"/>
      <point x="537" y="501"/>
      <point x="542" y="576"/>
      <point x="538" y="612" type="curve"/>
    </contour>
    <contour>
      <point x="325" y="0" type="move" name="bottom"/>
    </contour>
    <contour>
      <point x="325" y="650" type="move" name="top"/>
    </contour>
  </outline>
</glyph>
<glyph name="D" format="1">
  <advance width="681"/>
  <unicode hex="0044"/>
  <outline>
    <contour>
      <point x="249" y="662"/>
      <point x="147" y="659"/>
      <point x="43" y="654" type="curve"/>
      <point x="221" y="578" type="line"/>
      <point x="400" y="594" type="line"/>
      <point x="476" y="551"/>
      <point x="531" y="444"/>
      <point x="531" y="329" type="curve" smooth="yes"/>
      <point x="531" y="202"/>
      <point x="465" y="75"/>
      <point x="320" y="75" type="curve" smooth="yes"/>
      <point x="286" y="75"/>
      <point x="247" y="81"/>
      <point x="204" y="97" type="curve"/>
      <point x="210" y="0" type="line"/>
      <point x="324" y="0" type="line" smooth="yes"/>
      <point x="560" y="0"/>
      <point x="664" y="165"/>
      <point x="664" y="332" type="curve" smooth="yes"/>
      <point x="664" y="495"/>
      <point x="551" y="662"/>
      <point x="352" y="662" type="curve" smooth="yes"/>
    </contour>
    <contour>
      <point x="93" y="61"/>
      <point x="58" y="48"/>
      <point x="28" y="32" type="curve"/>
      <point x="34" y="0" type="line"/>
      <point x="128" y="0" type="line"/>
      <point x="127" y="73" type="line"/>
    </contour>
    <contour>
      <point x="113" y="653" type="line"/>
      <point x="113" y="0" type="line"/>
      <point x="235" y="0" type="line"/>
      <point x="235" y="653" type="line"/>
    </contour>
    <contour>
      <point x="43" y="654" type="line"/>
      <point x="42" y="604" type="line"/>
      <point x="147" y="594" type="line"/>
      <point x="146" y="654" type="line"/>
    </contour>
    <contour>
      <point x="348" y="325" type="move" name="center"/>
    </contour>
    <contour>
      <point x="242" y="0" type="move" name="bottom"/>
    </contour>
    <contour>
      <point x="322" y="650" type="move" name="top"/>
    </contour>
  </outline>
</glyph>
<glyph name="E" format="1">
  <advance width="590"/>
  <unicode hex="0045"/>
  <outline>
    <contour>
      <point x="113" y="654" type="line"/>
      <point x="113" y="0" type="line"/>
      <point x="235" y="0" type="line"/>
      <point x="235" y="654" type="line"/>
    </contour>
    <contour>
      <point x="93" y="61"/>
      <point x="58" y="48"/>
      <point x="28" y="32" type="curve"/>
      <point x="34" y="0" type="line"/>
      <point x="128" y="0" type="line"/>
      <point x="127" y="73" type="line"/>
    </contour>
    <contour>
      <point x="208" y="73" type="line"/>
      <point x="133" y="0" type="line"/>
      <point x="528" y="0" type="line"/>
      <point x="515" y="90" type="line"/>
    </contour>
    <contour>
      <point x="218" y="358" type="line"/>
      <point x="218" y="293" type="line"/>
      <point x="458" y="283" type="line"/>
      <point x="458" y="377" type="line"/>
    </contour>
    <contour>
      <point x="132" y="654" type="line"/>
      <point x="207" y="588" type="line"/>
      <point x="515" y="567" type="line"/>
      <point x="531" y="654" type="line"/>
    </contour>
    <contour>
      <point x="42" y="654" type="line"/>
      <point x="41" y="604" type="line"/>
      <point x="146" y="594" type="line"/>
      <point x="145" y="654" type="line"/>
    </contour>
    <contour>
      <point x="427" y="32" type="line"/>
      <point x="528" y="0" type="line"/>
      <point x="536" y="48"/>
      <point x="542" y="134"/>
      <point x="540" y="189" type="curve"/>
      <point x="472" y="194" type="line"/>
    </contour>
    <contour>
      <point x="518" y="477" type="line"/>
      <point x="530" y="540"/>
      <point x="534" y="618"/>
      <point x="531" y="654" type="curve"/>
      <point x="427" y="618" type="line"/>
      <point x="449" y="477" type="line"/>
    </contour>
    <contour>
      <point x="540" y="1" type="move" name="ogonek"/>
    </contour>
    <contour>
      <point x="301" y="0" type="move" name="bottom"/>
    </contour>
    <contour>
      <point x="301" y="650" type="move" name="top"/>
    </contour>
  </outline>
</glyph>
<glyph name="F" format="1">
  <advance width="580"/>
  <unicode hex="0046"/>
  <outline>
    <contour>
      <point x="111" y="654" type="line"/>
      <point x="111" y="0" type="line"/>
      <point x="233" y="0" type="line"/>
      <point x="233" y="654" type="line"/>
    </contour>
    <contour>
      <point x="28" y="32" type="curve"/>
      <point x="34" y="0" type="line"/>
      <point x="128" y="0" type="line"/>
      <point x="127" y="73" type="line"/>
      <point x="93" y="61"/>
      <point x="58" y="48"/>
    </contour>
    <contour>
      <point x="214" y="67" type="line"/>
      <point x="211" y="0" type="line"/>
      <point x="351" y="0" type="line"/>
      <point x="352" y="49" type="line"/>
    </contour>
    <contour>
      <point x="220" y="271" type="line"/>
      <point x="460" y="261" type="line"/>
      <point x="460" y="357" type="line"/>
      <point x="220" y="339" type="line"/>
    </contour>
    <contour>
      <point x="39" y="604" type="line"/>
      <point x="144" y="594" type="line"/>
      <point x="143" y="654" type="line"/>
      <point x="40" y="654" type="line"/>
    </contour>
    <contour>
      <point x="209" y="588" type="line"/>
      <point x="508" y="567" type="line"/>
      <point x="529" y="654" type="line"/>
      <point x="134" y="654" type="line"/>
    </contour>
    <contour>
      <point x="425" y="618" type="line"/>
      <point x="447" y="475" type="line"/>
      <point x="516" y="475" type="line"/>
      <point x="528" y="538"/>
      <point x="532" y="618"/>
      <point x="529" y="654" type="curve"/>
    </contour>
    <contour>
      <point x="232" y="0" type="move" name="bottom"/>
    </contour>
    <contour>
      <point x="232" y="520" type="move" name="top"/>
    </contour>
  </outline>
</glyph>
<glyph name="G" format="1">
  <advance width="687"/>
  <unicode hex="0047"/>
  <outline>
    <contour>
      <point x="381" y="-20" type="curve"/>
      <point x="585" y="70" type="line"/>
      <point x="540" y="105" type="line"/>
      <point x="498" y="86"/>
      <point x="424" y="65"/>
      <point x="360" y="66" type="curve"/>
      <point x="217" y="68"/>
      <point x="145" y="195"/>
      <point x="145" y="328" type="curve"/>
      <point x="145" y="435"/>
      <point x="180" y="543"/>
      <point x="261" y="593" type="curve"/>
      <point x="424" y="609"/>
      <point x="535" y="518"/>
      <point x="549" y="506" type="curve"/>
      <point x="578" y="613" type="line"/>
      <point x="545" y="637"/>
      <point x="473" y="674"/>
      <point x="372" y="674" type="curve"/>
      <point x="135" y="674"/>
      <point x="17" y="496"/>
      <point x="17" y="314" type="curve"/>
      <point x="17" y="146"/>
      <point x="126" y="-34"/>
    </contour>
    <contour>
      <point x="489" y="219" type="curve"/>
      <point x="478" y="302" type="line"/>
      <point x="369" y="302" type="line"/>
      <point x="363" y="268" type="line"/>
      <point x="403" y="247"/>
      <point x="452" y="231"/>
    </contour>
    <contour>
      <point x="468" y="302" type="line"/>
      <point x="468" y="61" type="line"/>
      <point x="584" y="70" type="line"/>
      <point x="584" y="302" type="line"/>
    </contour>
    <contour>
      <point x="486" y="302" type="line"/>
      <point x="512" y="229" type="line"/>
      <point x="661" y="254" type="line"/>
      <point x="660" y="302" type="line"/>
    </contour>
    <contour>
      <point x="463" y="580" type="line"/>
      <point x="484" y="456" type="line"/>
      <point x="559" y="456" type="line"/>
      <point x="575" y="515"/>
      <point x="581" y="577"/>
      <point x="577" y="613" type="curve"/>
    </contour>
    <contour>
      <point x="348" y="0" type="move" name="bottom"/>
    </contour>
    <contour>
      <point x="348" y="650" type="move" name="top"/>
    </contour>
  </outline>
</glyph>
<glyph name="I" format="1">
  <advance width="358"/>
  <unicode hex="0049"/>
  <outline>
    <contour>
      <point x="113" y="654" type="line"/>
      <point x="113" y="0" type="line"/>
      <point x="235" y="0" type="line"/>
      <point x="235" y="654" type="line"/>
    </contour>
    <contour>
      <point x="28" y="32" type="curve"/>
      <point x="34" y="0" type="line"/>
      <point x="128" y="0" type="line"/>
      <point x="127" y="73" type="line"/>
      <point x="93" y="61"/>
      <point x="58" y="48"/>
    </contour>
    <contour>
      <point x="192" y="67" type="line"/>
      <point x="189" y="0" type="line"/>
      <point x="329" y="0" type="line"/>
      <point x="330" y="49" type="line"/>
    </contour>
    <contour>
      <point x="36" y="605" type="line"/>
      <point x="174" y="587" type="line"/>
      <point x="177" y="654" type="line"/>
      <point x="37" y="654" type="line"/>
    </contour>
    <contour>
      <point x="220" y="654" type="line"/>
      <point x="221" y="581" type="line"/>
      <point x="255" y="593"/>
      <point x="291" y="606"/>
      <point x="320" y="622" type="curve"/>
      <point x="314" y="654" type="line"/>
    </contour>
    <contour>
      <point x="262" y="1" type="move" name="ogonek"/>
    </contour>
    <contour>
      <point x="175" y="650" type="move" name="top"/>
    </contour>
  </outline>
</glyph>
<glyph name="K" format="1">
  <advance width="685"/>
  <unicode hex="004B"/>
  <outline>
    <contour>
      <point x="523" y="654" type="line"/>
      <point x="194" y="301" type="line"/>
      <point x="209" y="212" type="line"/>
      <point x="591" y="619" type="line"/>
      <point x="593" y="654" type="line"/>
    </contour>
    <contour>
      <point x="93" y="61"/>
      <point x="58" y="48"/>
      <point x="28" y="32" type="curve"/>
      <point x="34" y="0" type="line"/>
      <point x="128" y="0" type="line"/>
      <point x="127" y="73" type="line"/>
    </contour>
    <contour>
      <point x="185" y="0" type="line"/>
      <point x="325" y="0" type="line"/>
      <point x="326" y="49" type="line"/>
      <point x="188" y="67" type="line"/>
    </contour>
    <contour>
      <point x="113" y="654" type="line"/>
      <point x="113" y="0" type="line"/>
      <point x="235" y="0" type="line"/>
      <point x="235" y="654" type="line"/>
    </contour>
    <contour>
      <point x="220" y="654" type="line"/>
      <point x="221" y="581" type="line"/>
      <point x="255" y="593"/>
      <point x="291" y="606"/>
      <point x="320" y="622" type="curve"/>
      <point x="314" y="654" type="line"/>
    </contour>
    <contour>
      <point x="402" y="654" type="line"/>
      <point x="401" y="605" type="line"/>
      <point x="539" y="587" type="line"/>
      <point x="542" y="654" type="line"/>
    </contour>
    <contour>
      <point x="535" y="654" type="line"/>
      <point x="536" y="581" type="line"/>
      <point x="570" y="593"/>
      <point x="612" y="606"/>
      <point x="641" y="622" type="curve"/>
      <point x="635" y="654" type="line"/>
    </contour>
    <contour>
      <point x="36" y="654" type="line"/>
      <point x="35" y="605" type="line"/>
      <point x="173" y="587" type="line"/>
      <point x="176" y="654" type="line"/>
    </contour>
    <contour>
      <point x="278" y="312" type="line"/>
      <point x="504" y="0" type="line"/>
      <point x="657" y="0" type="line"/>
      <point x="363" y="393" type="line"/>
    </contour>
    <contour>
      <point x="570" y="0" type="line"/>
      <point x="673" y="0" type="line"/>
      <point x="674" y="50" type="line"/>
      <point x="569" y="62" type="line"/>
    </contour>
    <contour>
      <point x="344" y="650" type="move" name="top"/>
    </contour>
    <contour>
      <point x="376" y="0" type="move" name="bottom"/>
    </contour>
  </outline>
</glyph>
<glyph name="L" format="1">
  <advance width="572"/>
  <unicode hex="004C"/>
  <outline>
    <contour>
      <point x="37" y="654" type="line"/>
      <point x="36" y="605" type="line"/>
      <point x="174" y="587" type="line"/>
      <point x="177" y="654" type="line"/>
    </contour>
    <contour>
      <point x="220" y="654" type="line"/>
      <point x="221" y="581" type="line"/>
      <point x="255" y="593"/>
      <point x="291" y="606"/>
      <point x="320" y="622" type="curve"/>
      <point x="314" y="654" type="line"/>
    </contour>
    <contour>
      <point x="93" y="61"/>
      <point x="58" y="48"/>
      <point x="28" y="32" type="curve"/>
      <point x="34" y="0" type="line"/>
      <point x="128" y="0" type="line"/>
      <point x="127" y="73" type="line"/>
    </contour>
    <contour>
      <point x="210" y="74" type="line"/>
      <point x="135" y="0" type="line"/>
      <point x="548" y="0" type="line"/>
      <point x="531" y="93" type="line"/>
    </contour>
    <contour>
      <point x="113" y="654" type="line"/>
      <point x="113" y="0" type="line"/>
      <point x="235" y="0" type="line"/>
      <point x="235" y="654" type="line"/>
    </contour>
    <contour>
      <point x="442" y="32" type="line"/>
      <point x="548" y="0" type="line"/>
      <point x="558" y="54"/>
      <point x="562" y="150"/>
      <point x="561" y="215" type="curve"/>
      <point x="489" y="220" type="line"/>
    </contour>
    <contour>
      <point x="178" y="650" type="move" name="top"/>
    </contour>
    <contour>
      <point x="287" y="0" type="move" name="bottom"/>
    </contour>
    <contour>
      <point x="477" y="650" type="move" name="topright"/>
    </contour>
  </outline>
</glyph>
<glyph name="M" format="1">
  <advance width="928"/>
  <unicode hex="004D"/>
  <outline>
    <contour>
      <point x="53" y="650" type="line"/>
      <point x="52" y="603" type="line"/>
      <point x="190" y="581" type="line"/>
      <point x="193" y="650" type="line"/>
    </contour>
    <contour>
      <point x="135" y="650" type="line"/>
      <point x="114" y="0" type="line"/>
      <point x="209" y="0" type="line"/>
      <point x="217" y="381" type="line"/>
      <point x="196" y="581" type="line"/>
      <point x="286" y="650" type="line"/>
    </contour>
    <contour>
      <point x="93" y="61"/>
      <point x="58" y="48"/>
      <point x="28" y="32" type="curve"/>
      <point x="34" y="0" type="line"/>
      <point x="128" y="0" type="line"/>
      <point x="127" y="73" type="line"/>
    </contour>
    <contour>
      <point x="154" y="0" type="line"/>
      <point x="294" y="0" type="line"/>
      <point x="295" y="47" type="line" smooth="yes"/>
      <point x="157" y="69" type="line"/>
    </contour>
    <contour>
      <point x="178" y="605" type="line"/>
      <point x="399" y="-7" type="line"/>
      <point x="500" y="16" type="line"/>
      <point x="487" y="89" type="line"/>
      <point x="286" y="650" type="line"/>
    </contour>
    <contour>
      <point x="436" y="36" type="line"/>
      <point x="499" y="16" type="line"/>
      <point x="718" y="613" type="line"/>
      <point x="658" y="650" type="line"/>
    </contour>
    <contour>
      <point x="658" y="650" type="line"/>
      <point x="698" y="588" type="line"/>
      <point x="681" y="381" type="line"/>
      <point x="686" y="0" type="line"/>
      <point x="804" y="0" type="line"/>
      <point x="793" y="650" type="line"/>
    </contour>
    <contour>
      <point x="772" y="650" type="line"/>
      <point x="773" y="577" type="line"/>
      <point x="807" y="589"/>
      <point x="843" y="602"/>
      <point x="872" y="618" type="curve"/>
      <point x="866" y="650" type="line"/>
    </contour>
    <contour>
      <point x="664" y="61"/>
      <point x="629" y="48"/>
      <point x="599" y="32" type="curve"/>
      <point x="605" y="0" type="line"/>
      <point x="699" y="0" type="line"/>
      <point x="698" y="73" type="line"/>
    </contour>
    <contour>
      <point x="758" y="0" type="line"/>
      <point x="898" y="0" type="line"/>
      <point x="899" y="47" type="line"/>
      <point x="761" y="69" type="line"/>
    </contour>
  </outline>
</glyph>
<glyph name="N" format="1">
  <advance width="759"/>
  <unicode hex="004E"/>
  <outline>
    <contour>
      <point x="152" y="0" type="line"/>
      <point x="292" y="0" type="line"/>
      <point x="293" y="49" type="line"/>
      <point x="155" y="67" type="line"/>
    </contour>
    <contour>
      <point x="93" y="61"/>
      <point x="58" y="48"/>
      <point x="28" y="32" type="curve"/>
      <point x="34" y="0" type="line"/>
      <point x="128" y="0" type="line"/>
      <point x="127" y="73" type="line"/>
    </contour>
    <contour>
      <point x="113" y="654" type="line"/>
      <point x="113" y="0" type="line"/>
      <point x="205" y="0" type="line"/>
      <point x="205" y="384" type="line"/>
      <point x="180" y="584" type="line"/>
      <point x="247" y="654" type="line"/>
    </contour>
    <contour>
      <point x="46" y="654" type="line"/>
      <point x="45" y="605" type="line"/>
      <point x="179" y="587" type="line"/>
      <point x="182" y="654" type="line"/>
    </contour>
    <contour>
      <point x="152" y="654" type="line"/>
      <point x="149" y="576" type="line"/>
      <point x="525" y="-12" type="line"/>
      <point x="607" y="21" type="line"/>
      <point x="609" y="80" type="line"/>
      <point x="247" y="654" type="line"/>
    </contour>
    <contour>
      <point x="459" y="654" type="line"/>
      <point x="458" y="605" type="line"/>
      <point x="596" y="587" type="line"/>
      <point x="599" y="654" type="line"/>
    </contour>
    <contour>
      <point x="556" y="654" type="line"/>
      <point x="556" y="267" type="line"/>
      <point x="583" y="48" type="line"/>
      <point x="524" y="-12" type="line"/>
      <point x="646" y="0" type="line"/>
      <point x="648" y="654" type="line"/>
    </contour>
    <contour>
      <point x="631" y="654" type="line"/>
      <point x="632" y="581" type="line"/>
      <point x="666" y="593"/>
      <point x="702" y="606"/>
      <point x="731" y="622" type="curve"/>
      <point x="725" y="654" type="line"/>
    </contour>
    <contour>
      <point x="360" y="650" type="move" name="top"/>
    </contour>
    <contour>
      <point x="386" y="0" type="move" name="bottom"/>
    </contour>
  </outline>
</glyph>
<glyph name="O" format="1">
  <advance width="664"/>
  <unicode hex="004F"/>
  <outline>
    <contour>
      <point x="152" y="674"/>
      <point x="17" y="535"/>
      <point x="17" y="323" type="curve" smooth="yes"/>
      <point x="17" y="94"/>
      <point x="174" y="-20"/>
      <point x="335" y="-20" type="curve" smooth="yes"/>
      <point x="493" y="-20"/>
      <point x="647" y="89"/>
      <point x="647" y="319" type="curve" smooth="yes"/>
      <point x="647" y="547"/>
      <point x="497" y="674"/>
      <point x="328" y="674" type="curve" smooth="yes"/>
    </contour>
    <contour>
      <point x="260" y="591"/>
      <point x="289" y="596"/>
      <point x="315" y="596" type="curve" smooth="yes"/>
      <point x="452" y="596"/>
      <point x="514" y="457"/>
      <point x="514" y="314" type="curve" smooth="yes"/>
      <point x="514" y="203"/>
      <point x="476" y="109"/>
      <point x="420" y="69" type="curve"/>
      <point x="397" y="63"/>
      <point x="375" y="60"/>
      <point x="353" y="60" type="curve" smooth="yes"/>
      <point x="211" y="60"/>
      <point x="148" y="191"/>
      <point x="148" y="339" type="curve" smooth="yes"/>
      <point x="148" y="445"/>
      <point x="181" y="541"/>
      <point x="230" y="580" type="curve"/>
    </contour>
    <contour>
      <point x="331" y="650" type="move" name="top"/>
    </contour>
  </outline>
</glyph>
<glyph name="Q" format="1">
  <advance width="702"/>
  <unicode hex="0051"/>
  <outline>
    <contour>
      <point x="360" y="-3" type="line"/>
      <point x="694" y="-172" type="line"/>
      <point x="747" y="-56" type="line"/>
      <point x="395" y="38" type="line"/>
    </contour>
    <component base="O"/>
  </outline>
</glyph>
<glyph name="T" format="1">
  <advance width="621"/>
  <unicode hex="0054"/>
  <outline>
    <contour>
      <point x="249" y="654" type="line"/>
      <point x="249" y="0" type="line"/>
      <point x="371" y="0" type="line"/>
      <point x="371" y="654" type="line"/>
    </contour>
    <contour>
      <point x="221" y="61"/>
      <point x="174" y="48"/>
      <point x="144" y="32" type="curve"/>
      <point x="150" y="0" type="line"/>
      <point x="256" y="0" type="line"/>
      <point x="255" y="73" type="line"/>
    </contour>
    <contour>
      <point x="339" y="0" type="line"/>
      <point x="479" y="0" type="line"/>
      <point x="480" y="49" type="line"/>
      <point x="342" y="67" type="line"/>
    </contour>
    <contour>
      <point x="401" y="654"/>
      <point x="223" y="654"/>
      <point x="10" y="660" type="curve"/>
      <point x="27" y="578" type="line"/>
      <point x="311" y="595" type="line"/>
      <point x="595" y="578" type="line"/>
      <point x="611" y="660" type="line"/>
    </contour>
    <contour>
      <point x="598" y="470" type="line"/>
      <point x="609" y="533"/>
      <point x="614" y="624"/>
      <point x="611" y="660" type="curve"/>
      <point x="512" y="623" type="line"/>
      <point x="530" y="470" type="line" smooth="yes"/>
    </contour>
    <contour>
      <point x="108" y="623" type="line"/>
      <point x="10" y="660" type="line"/>
      <point x="6" y="624"/>
      <point x="11" y="533"/>
      <point x="23" y="470" type="curve"/>
      <point x="90" y="470" type="line"/>
    </contour>
    <contour>
      <point x="311" y="325" type="move" name="center"/>
    </contour>
    <contour>
      <point x="311" y="0" type="move" name="bottom"/>
    </contour>
    <contour>
      <point x="311" y="650" type="move" name="top"/>
    </contour>
  </outline>
</glyph>
<glyph name="U" format="1">
  <advance width="718"/>
  <unicode hex="0055"/>
  <outline>
    <contour>
      <point x="533" y="654" type="line"/>
      <point x="533" y="279" type="line" smooth="yes"/>
      <point x="533" y="183"/>
      <point x="513" y="118"/>
      <point x="474" y="86" type="curve"/>
      <point x="448" y="73"/>
      <point x="420" y="65"/>
      <point x="383" y="65" type="curve" smooth="yes"/>
      <point x="275" y="65"/>
      <point x="208" y="135"/>
      <point x="208" y="269" type="curve" smooth="yes"/>
      <point x="208" y="654" type="line"/>
      <point x="86" y="654" type="line"/>
      <point x="86" y="289" type="line" smooth="yes"/>
      <point x="86" y="86"/>
      <point x="206" y="-19"/>
      <point x="374" y="-19" type="curve" smooth="yes"/>
      <point x="526" y="-19"/>
      <point x="624" y="68"/>
      <point x="624" y="292" type="curve" smooth="yes"/>
      <point x="624" y="654" type="line"/>
    </contour>
    <contour>
      <point x="10" y="654" type="line"/>
      <point x="9" y="605" type="line"/>
      <point x="147" y="587" type="line"/>
      <point x="150" y="654" type="line"/>
    </contour>
    <contour>
      <point x="193" y="654" type="line"/>
      <point x="194" y="581" type="line"/>
      <point x="228" y="593"/>
      <point x="264" y="606"/>
      <point x="293" y="622" type="curve"/>
      <point x="287" y="654" type="line"/>
    </contour>
    <contour>
      <point x="447" y="654" type="line"/>
      <point x="446" y="605" type="line"/>
      <point x="584" y="587" type="line"/>
      <point x="587" y="654" type="line"/>
    </contour>
    <contour>
      <point x="609" y="654" type="line"/>
      <point x="610" y="581" type="line"/>
      <point x="644" y="593"/>
      <point x="680" y="606"/>
      <point x="709" y="622" type="curve"/>
      <point x="703" y="654" type="line"/>
    </contour>
    <contour>
      <point x="481" y="1" type="move" name="ogonek"/>
    </contour>
    <contour>
      <point x="363" y="650" type="move" name="top"/>
    </contour>
  </outline>
</glyph>
<glyph name="V" format="1">
  <advance width="695"/>
  <unicode hex="0056"/>
  <outline>
    <contour>
      <point x="55" y="654" type="line"/>
      <point x="286" y="-12" type="line"/>
      <point x="328" y="-12"/>
      <point x="372" y="-8"/>
      <point x="408" y="-1" type="curve"/>
      <point x="369" y="80" type="line"/>
      <point x="347" y="80" type="line"/>
      <point x="334" y="205" type="line"/>
      <point x="184" y="654" type="line"/>
    </contour>
    <contour>
      <point x="0" y="654" type="line"/>
      <point x="-1" y="605" type="line"/>
      <point x="137" y="587" type="line"/>
      <point x="140" y="654" type="line"/>
    </contour>
    <contour>
      <point x="407" y="-1" type="line"/>
      <point x="641" y="654" type="line"/>
      <point x="549" y="654" type="line"/>
      <point x="337" y="34" type="line"/>
    </contour>
    <contour>
      <point x="178" y="654" type="line"/>
      <point x="195" y="581" type="line"/>
      <point x="229" y="593"/>
      <point x="265" y="606"/>
      <point x="294" y="622" type="curve"/>
      <point x="288" y="654" type="line"/>
    </contour>
    <contour>
      <point x="439" y="654" type="line"/>
      <point x="438" y="605" type="line"/>
      <point x="576" y="587" type="line"/>
      <point x="579" y="654" type="line"/>
    </contour>
    <contour>
      <point x="579" y="654" type="line"/>
      <point x="596" y="581" type="line"/>
      <point x="630" y="593"/>
      <point x="666" y="606"/>
      <point x="695" y="622" type="curve"/>
      <point x="689" y="654" type="line"/>
    </contour>
  </outline>
</glyph>
<glyph name="W" format="1">
  <advance width="950"/>
  <unicode hex="0057"/>
  <outline>
    <contour>
      <point x="54" y="654" type="line"/>
      <point x="251" y="-12" type="line"/>
      <point x="296" y="-13"/>
      <point x="336" y="-9"/>
      <point x="375" y="-2" type="curve"/>
      <point x="343" y="80" type="line"/>
      <point x="315" y="80" type="line"/>
      <point x="305" y="205" type="line"/>
      <point x="182" y="654" type="line"/>
    </contour>
    <contour>
      <point x="306" y="34" type="line"/>
      <point x="376" y="-2" type="line"/>
      <point x="451" y="241" type="line"/>
      <point x="472" y="358" type="line"/>
      <point x="489" y="358" type="line"/>
      <point x="522" y="453" type="line"/>
      <point x="441" y="496" type="line"/>
    </contour>
    <contour>
      <point x="-1" y="605" type="line"/>
      <point x="137" y="587" type="line"/>
      <point x="140" y="654" type="line"/>
      <point x="0" y="654" type="line"/>
    </contour>
    <contour>
      <point x="170" y="654" type="line"/>
      <point x="187" y="581" type="line"/>
      <point x="221" y="593"/>
      <point x="257" y="606"/>
      <point x="286" y="622" type="curve"/>
      <point x="280" y="654" type="line"/>
    </contour>
    <contour>
      <point x="396" y="616" type="line"/>
      <point x="580" y="-12" type="line"/>
      <point x="625" y="-13"/>
      <point x="667" y="-9"/>
      <point x="706" y="-2" type="curve"/>
      <point x="675" y="80" type="line"/>
      <point x="642" y="80" type="line"/>
      <point x="630" y="209" type="line"/>
      <point x="516" y="645" type="line"/>
    </contour>
    <contour>
      <point x="632" y="34" type="line"/>
      <point x="706" y="-2" type="line"/>
      <point x="892" y="654" type="line"/>
      <point x="801" y="654" type="line"/>
    </contour>
    <contour>
      <point x="685" y="605" type="line"/>
      <point x="823" y="587" type="line"/>
      <point x="826" y="654" type="line"/>
      <point x="686" y="654" type="line"/>
    </contour>
    <contour>
      <point x="834" y="654" type="line"/>
      <point x="851" y="581" type="line"/>
      <point x="885" y="593"/>
      <point x="921" y="606"/>
      <point x="950" y="622" type="curve"/>
      <point x="944" y="654" type="line"/>
    </contour>
    <contour>
      <point x="463" y="650" type="move" name="top"/>
    </contour>
  </outline>
</glyph>
<glyph name="X" format="1">
  <advance width="684"/>
  <unicode hex="0058"/>
  <outline>
    <contour>
      <point x="178" y="587" type="line"/>
      <point x="181" y="654" type="line"/>
      <point x="41" y="654" type="line"/>
      <point x="40" y="605" type="line"/>
    </contour>
    <contour>
      <point x="185" y="654" type="line"/>
      <point x="202" y="581" type="line"/>
      <point x="236" y="593"/>
      <point x="272" y="606"/>
      <point x="301" y="622" type="curve"/>
      <point x="295" y="654" type="line"/>
    </contour>
    <contour>
      <point x="407" y="654" type="line"/>
      <point x="406" y="605" type="line"/>
      <point x="544" y="587" type="line"/>
      <point x="547" y="654" type="line"/>
    </contour>
    <contour>
      <point x="532" y="654" type="line"/>
      <point x="549" y="581" type="line"/>
      <point x="583" y="593"/>
      <point x="619" y="606"/>
      <point x="648" y="622" type="curve"/>
      <point x="642" y="654" type="line"/>
    </contour>
    <contour>
      <point x="71" y="61"/>
      <point x="36" y="48"/>
      <point x="6" y="32" type="curve"/>
      <point x="12" y="0" type="line"/>
      <point x="122" y="0" type="line"/>
      <point x="105" y="73" type="line"/>
    </contour>
    <contour>
      <point x="131" y="0" type="line"/>
      <point x="271" y="0" type="line"/>
      <point x="272" y="49" type="line"/>
      <point x="134" y="67" type="line"/>
    </contour>
    <contour>
      <point x="464" y="61"/>
      <point x="429" y="48"/>
      <point x="399" y="32" type="curve"/>
      <point x="405" y="0" type="line"/>
      <point x="515" y="0" type="line"/>
      <point x="498" y="73" type="line"/>
    </contour>
    <contour>
      <point x="541" y="0" type="line"/>
      <point x="681" y="0" type="line"/>
      <point x="682" y="49" type="line"/>
      <point x="528" y="67" type="line"/>
    </contour>
    <contour>
      <point x="69" y="654" type="line"/>
      <point x="506" y="0" type="line"/>
      <point x="650" y="0" type="line"/>
      <point x="207" y="654" type="line"/>
    </contour>
    <contour>
      <point x="516" y="654" type="line"/>
      <point x="345" y="372" type="line"/>
      <point x="406" y="337" type="line"/>
      <point x="613" y="654" type="line"/>
    </contour>
    <contour>
      <point x="42" y="0" type="line"/>
      <point x="148" y="0" type="line"/>
      <point x="367" y="336" type="line"/>
      <point x="302" y="376" type="line"/>
    </contour>
  </outline>
</glyph>
<glyph name="Z" format="1">
  <advance width="603"/>
  <unicode hex="005A"/>
  <outline>
    <contour>
      <point x="85" y="569" type="line"/>
      <point x="493" y="590" type="line"/>
      <point x="532" y="654" type="line"/>
      <point x="63" y="654" type="line"/>
    </contour>
    <contour>
      <point x="480" y="611" type="line"/>
      <point x="422" y="599" type="line"/>
      <point x="34" y="56" type="line"/>
      <point x="64" y="0" type="line"/>
      <point x="113" y="33" type="line"/>
      <point x="164" y="47" type="line"/>
      <point x="560" y="598" type="line"/>
      <point x="533" y="654" type="line"/>
    </contour>
    <contour>
      <point x="122" y="80" type="line"/>
      <point x="64" y="0" type="line"/>
      <point x="541" y="0" type="line"/>
      <point x="533" y="87" type="line"/>
    </contour>
    <contour>
      <point x="169" y="604" type="line"/>
      <point x="63" y="654" type="line"/>
      <point x="59" y="610"/>
      <point x="61" y="520"/>
      <point x="72" y="455" type="curve"/>
      <point x="141" y="455" type="line"/>
    </contour>
    <contour>
      <point x="436" y="31" type="line"/>
      <point x="541" y="0" type="line"/>
      <point x="554" y="70"/>
      <point x="563" y="131"/>
      <point x="567" y="198" type="curve"/>
      <point x="493" y="208" type="line"/>
    </contour>
  </outline>
</glyph>
<glyph name="bracketleft" format="1">
  <advance width="370"/>
  <unicode hex="005B"/>
  <outline>
    <contour>
      <point x="95" y="712" type="line"/>
      <point x="95" y="-122" type="line"/>
      <point x="331" y="-122" type="line"/>
      <point x="337" y="-64" type="line"/>
      <point x="207" y="-38" type="line"/>
      <point x="207" y="628" type="line"/>
      <point x="337" y="654" type="line"/>
      <point x="331" y="712" type="line"/>
    </contour>
  </outline>
</glyph>
<glyph name="backslash" format="1">
  <advance width="395"/>
  <unicode hex="005C"/>
  <outline>
    <contour>
      <point x="-7" y="681" type="line"/>
      <point x="300" y="-126" type="line"/>
      <point x="388" y="-94" type="line"/>
      <point x="80" y="715" type="line"/>
    </contour>
  </outline>
</glyph>
<glyph name="b" format="1">
  <advance width="537"/>
  <unicode hex="0062"/>
  <outline>
    <contour>
      <point x="246" y="-19" type="curve"/>
      <point x="412" y="-19"/>
      <point x="515" y="103"/>
      <point x="515" y="254" type="curve"/>
      <point x="515" y="392"/>
      <point x="428" y="511"/>
      <point x="293" y="484" type="curve"/>
      <point x="133" y="377" type="line"/>
      <point x="142" y="333" type="line"/>
      <point x="189" y="365"/>
      <point x="235" y="393"/>
      <point x="278" y="393" type="curve"/>
      <point x="348" y="393"/>
      <point x="393" y="316"/>
      <point x="393" y="231" type="curve"/>
      <point x="393" y="163"/>
      <point x="365" y="92"/>
      <point x="316" y="59" type="curve"/>
      <point x="223" y="45"/>
      <point x="158" y="87"/>
      <point x="136" y="121" type="curve"/>
      <point x="62" y="23" type="line"/>
      <point x="126" y="-4"/>
      <point x="189" y="-19"/>
    </contour>
    <contour>
      <point x="63" y="693" type="line"/>
      <point x="63" y="23" type="line"/>
      <point x="180" y="45" type="line"/>
      <point x="180" y="695" type="line"/>
      <point x="136" y="736" type="line"/>
    </contour>
    <contour>
      <point x="-12" y="655" type="line"/>
      <point x="90" y="652" type="line"/>
      <point x="144" y="695" type="line"/>
      <point x="136" y="736" type="line"/>
      <point x="84" y="734"/>
      <point x="25" y="722"/>
      <point x="-21" y="703" type="curve"/>
    </contour>
  </outline>
</glyph>
<glyph name="d" format="1">
  <advance width="558"/>
  <unicode hex="0064"/>
  <outline>
    <contour>
      <point x="538" y="84" type="line"/>
      <point x="522" y="81"/>
      <point x="505" y="77"/>
      <point x="491" y="77" type="curve" smooth="yes"/>
      <point x="476" y="77"/>
      <point x="465" y="83"/>
      <point x="465" y="98" type="curve" smooth="yes"/>
      <point x="465" y="695" type="line"/>
      <point x="420" y="736" type="line"/>
      <point x="348" y="693" type="line"/>
      <point x="348" y="80" type="line"/>
      <point x="353" y="69" type="line"/>
      <point x="366" y="25"/>
      <point x="411" y="-14"/>
      <point x="439" y="-16" type="curve"/>
      <point x="550" y="40" type="line"/>
    </contour>
    <contour>
      <point x="409" y="146" type="line"/>
      <point x="352" y="101"/>
      <point x="302" y="81"/>
      <point x="263" y="81" type="curve" smooth="yes"/>
      <point x="187" y="81"/>
      <point x="140" y="154"/>
      <point x="140" y="247" type="curve" smooth="yes"/>
      <point x="140" y="312"/>
      <point x="163" y="377"/>
      <point x="206" y="415" type="curve"/>
      <point x="286" y="429"/>
      <point x="363" y="388"/>
      <point x="397" y="337" type="curve"/>
      <point x="435" y="427" type="line"/>
      <point x="404" y="463"/>
      <point x="346" y="492"/>
      <point x="274" y="492" type="curve" smooth="yes"/>
      <point x="129" y="492"/>
      <point x="17" y="383"/>
      <point x="17" y="233" type="curve" smooth="yes"/>
      <point x="17" y="98"/>
      <point x="108" y="-18"/>
      <point x="244" y="-16" type="curve"/>
      <point x="405" y="97" type="line"/>
    </contour>
    <contour>
      <point x="374" y="652" type="line"/>
      <point x="428" y="695" type="line"/>
      <point x="420" y="736" type="line"/>
      <point x="368" y="734"/>
      <point x="309" y="722"/>
      <point x="263" y="703" type="curve"/>
      <point x="273" y="655" type="line"/>
    </contour>
    <contour>
      <point x="215" y="187" type="move" name="center"/>
    </contour>
    <contour>
      <point x="416" y="520" type="move" name="topright"/>
    </contour>
  </outline>
</glyph>
<glyph name="e" format="1">
  <advance width="467"/>
  <unicode hex="0065"/>
  <outline>
    <contour>
      <point x="282" y="-14" type="curve"/>
      <point x="438" y="60" type="line"/>
      <point x="420" y="107" type="line"/>
      <point x="374" y="86"/>
      <point x="333" y="73"/>
      <point x="292" y="73" type="curve"/>
      <point x="202" y="73"/>
      <point x="134" y="137"/>
      <point x="134" y="250" type="curve"/>
      <point x="134" y="314"/>
      <point x="156" y="392"/>
      <point x="212" y="424" type="curve"/>
      <point x="291" y="427"/>
      <point x="348" y="357"/>
      <point x="338" y="276" type="curve"/>
      <point x="447" y="304" type="line"/>
      <point x="449" y="423"/>
      <point x="357" y="492"/>
      <point x="255" y="492" type="curve"/>
      <point x="119" y="492"/>
      <point x="17" y="370"/>
      <point x="17" y="229" type="curve"/>
      <point x="17" y="90"/>
      <point x="118" y="-22"/>
    </contour>
    <contour>
      <point x="113" y="252" type="line"/>
      <point x="389" y="248" type="line"/>
      <point x="447" y="304" type="line"/>
      <point x="412" y="326" type="line"/>
      <point x="109" y="310" type="line"/>
    </contour>
    <contour>
      <point x="250" y="0" type="move" name="bottom"/>
    </contour>
    <contour>
      <point x="436" y="43" type="move" name="ogonek"/>
    </contour>
    <contour>
      <point x="248" y="468" type="move" name="top"/>
    </contour>
  </outline>
</glyph>
<glyph name="g" format="1">
  <advance width="557"/>
  <unicode hex="0067"/>
  <outline>
    <contour>
      <point x="429" y="537"/>
      <point x="377" y="465"/>
      <point x="381" y="378" type="curve"/>
      <point x="405" y="391" type="line"/>
      <point x="442" y="421"/>
      <point x="488" y="435"/>
      <point x="542" y="432" type="curve"/>
      <point x="520" y="548" type="line"/>
    </contour>
    <contour>
      <point x="372" y="155"/>
      <point x="475" y="218"/>
      <point x="475" y="325" type="curve" smooth="yes"/>
      <point x="475" y="432"/>
      <point x="374" y="499"/>
      <point x="259" y="499" type="curve" smooth="yes"/>
      <point x="144" y="499"/>
      <point x="41" y="431"/>
      <point x="41" y="325" type="curve" smooth="yes"/>
      <point x="41" y="220"/>
      <point x="142" y="155"/>
      <point x="257" y="155" type="curve" smooth="yes"/>
    </contour>
    <contour>
      <point x="285" y="468"/>
      <point x="359" y="395"/>
      <point x="359" y="317" type="curve" smooth="yes"/>
      <point x="359" y="285"/>
      <point x="348" y="248"/>
      <point x="316" y="223" type="curve"/>
      <point x="217" y="190"/>
      <point x="159" y="247"/>
      <point x="159" y="331" type="curve" smooth="yes"/>
      <point x="159" y="362"/>
      <point x="167" y="397"/>
      <point x="190" y="422" type="curve"/>
    </contour>
    <contour>
      <point x="181" y="50" type="line"/>
      <point x="27" y="-90" type="line"/>
      <point x="23" y="-191"/>
      <point x="122" y="-236"/>
      <point x="224" y="-236" type="curve" smooth="yes"/>
      <point x="391" y="-236"/>
      <point x="553" y="-115"/>
      <point x="509" y="40" type="curve"/>
      <point x="418" y="73"/>
      <point x="265" y="102"/>
      <point x="163" y="104" type="curve"/>
      <point x="186" y="129"/>
      <point x="224" y="160"/>
      <point x="260" y="182" type="curve"/>
      <point x="207" y="199" type="line"/>
      <point x="158" y="176"/>
      <point x="94" y="122"/>
      <point x="52" y="74" type="curve"/>
      <point x="71" y="18" type="line"/>
      <point x="215" y="14"/>
      <point x="370" y="-15"/>
      <point x="437" y="-49" type="curve"/>
      <point x="402" y="-109"/>
      <point x="312" y="-140"/>
      <point x="237" y="-140" type="curve" smooth="yes"/>
      <point x="174" y="-140"/>
      <point x="126" y="-120"/>
      <point x="126" y="-84" type="curve" smooth="yes"/>
      <point x="126" y="-43"/>
      <point x="195" y="10"/>
      <point x="268" y="50" type="curve"/>
    </contour>
    <contour>
      <point x="258" y="468" type="move" name="top"/>
    </contour>
  </outline>
</glyph>
<glyph name="i" format="1">
  <advance width="301"/>
  <unicode hex="0069"/>
  <outline>
    <contour>
      <point x="97" y="447" type="line"/>
      <point x="97" y="0" type="line"/>
      <point x="214" y="0" type="line"/>
      <point x="214" y="449" type="line"/>
      <point x="169" y="489" type="line"/>
    </contour>
    <contour>
      <point x="21" y="34" type="curve"/>
      <point x="25" y="0" type="line"/>
      <point x="115" y="0" type="line"/>
      <point x="128" y="72" type="line"/>
      <point x="98" y="65"/>
      <point x="50" y="49"/>
    </contour>
    <contour>
      <point x="175" y="79" type="curve"/>
      <point x="166" y="0" type="line"/>
      <point x="281" y="0" type="line"/>
      <point x="285" y="48" type="line"/>
      <point x="258" y="64"/>
      <point x="212" y="74"/>
    </contour>
    <contour>
      <point x="22" y="408" type="line"/>
      <point x="123" y="406" type="line"/>
      <point x="177" y="449" type="line"/>
      <point x="169" y="489" type="line"/>
      <point x="117" y="487"/>
      <point x="58" y="475"/>
      <point x="12" y="456" type="curve"/>
    </contour>
    <contour>
      <point x="161" y="566" type="curve"/>
      <point x="189" y="585"/>
      <point x="218" y="621"/>
      <point x="231" y="653" type="curve"/>
      <point x="212" y="680"/>
      <point x="177" y="712"/>
      <point x="144" y="727" type="curve"/>
      <point x="116" y="708"/>
      <point x="88" y="672"/>
      <point x="70" y="636" type="curve"/>
      <point x="91" y="608"/>
      <point x="129" y="579"/>
    </contour>
    <contour>
      <point x="184" y="0" type="move" name="ogonek"/>
    </contour>
  </outline>
</glyph>
<glyph name="l" format="1">
  <advance width="316"/>
  <unicode hex="006C"/>
  <outline>
    <contour>
      <point x="97" y="0" type="line"/>
      <point x="214" y="0" type="line"/>
      <point x="214" y="696" type="line"/>
      <point x="169" y="736" type="line"/>
      <point x="97" y="693" type="line"/>
    </contour>
    <contour>
      <point x="123" y="652" type="line"/>
      <point x="177" y="695" type="line"/>
      <point x="169" y="736" type="line"/>
      <point x="117" y="734"/>
      <point x="58" y="722"/>
      <point x="12" y="703" type="curve"/>
      <point x="22" y="655" type="line"/>
    </contour>
    <contour>
      <point x="281" y="0" type="line"/>
      <point x="285" y="48" type="line"/>
      <point x="258" y="64"/>
      <point x="212" y="74"/>
      <point x="175" y="79" type="curve"/>
      <point x="166" y="0" type="line"/>
    </contour>
    <contour>
      <point x="115" y="0" type="line"/>
      <point x="128" y="72" type="line"/>
      <point x="98" y="65"/>
      <point x="50" y="49"/>
      <point x="21" y="34" type="curve"/>
      <point x="25" y="0" type="line"/>
    </contour>
    <contour>
      <point x="150" y="735" type="move" name="top"/>
    </contour>
    <contour>
      <point x="161" y="0" type="move" name="bottom"/>
    </contour>
    <contour>
      <point x="289" y="468" type="move" name="topright"/>
    </contour>
  </outline>
</glyph>
<glyph name="m" format="1">
  <advance width="896"/>
  <unicode hex="006D"/>
  <outline>
    <contour>
      <point x="123" y="406" type="line"/>
      <point x="177" y="449" type="line"/>
      <point x="169" y="489" type="line"/>
      <point x="117" y="487"/>
      <point x="58" y="475"/>
      <point x="12" y="456" type="curve"/>
      <point x="22" y="408" type="line"/>
    </contour>
    <contour>
      <point x="97" y="0" type="line"/>
      <point x="214" y="0" type="line"/>
      <point x="214" y="447" type="line"/>
      <point x="169" y="489" type="line"/>
      <point x="97" y="447" type="line"/>
    </contour>
    <contour>
      <point x="394" y="0" type="line"/>
      <point x="511" y="0" type="line"/>
      <point x="511" y="299" type="line" smooth="yes"/>
      <point x="511" y="373"/>
      <point x="508" y="401"/>
      <point x="498" y="419" type="curve" smooth="yes"/>
      <point x="476" y="456"/>
      <point x="429" y="483"/>
      <point x="391" y="488" type="curve"/>
      <point x="343" y="480"/>
      <point x="251" y="428"/>
      <point x="160" y="356" type="curve"/>
      <point x="174" y="320" type="line"/>
      <point x="222" y="356"/>
      <point x="287" y="395"/>
      <point x="329" y="395" type="curve" smooth="yes"/>
      <point x="366" y="396"/>
      <point x="394" y="367"/>
      <point x="394" y="292" type="curve" smooth="yes"/>
    </contour>
    <contour>
      <point x="693" y="0" type="line"/>
      <point x="810" y="0" type="line"/>
      <point x="810" y="299" type="line" smooth="yes"/>
      <point x="810" y="373"/>
      <point x="807" y="401"/>
      <point x="797" y="419" type="curve" smooth="yes"/>
      <point x="775" y="456"/>
      <point x="728" y="483"/>
      <point x="690" y="488" type="curve"/>
      <point x="642" y="480"/>
      <point x="550" y="428"/>
      <point x="459" y="356" type="curve"/>
      <point x="473" y="320" type="line"/>
      <point x="521" y="356"/>
      <point x="586" y="395"/>
      <point x="628" y="395" type="curve" smooth="yes"/>
      <point x="665" y="396"/>
      <point x="693" y="367"/>
      <point x="693" y="292" type="curve" smooth="yes"/>
    </contour>
    <contour>
      <point x="119" y="0" type="line"/>
      <point x="132" y="72" type="line"/>
      <point x="102" y="65"/>
      <point x="54" y="49"/>
      <point x="25" y="34" type="curve"/>
      <point x="29" y="0" type="line"/>
    </contour>
    <contour>
      <point x="272" y="0" type="line"/>
      <point x="276" y="48" type="line"/>
      <point x="249" y="64"/>
      <point x="207" y="74"/>
      <point x="170" y="79" type="curve"/>
      <point x="161" y="0" type="line"/>
    </contour>
    <contour>
      <point x="432" y="0" type="line"/>
      <point x="445" y="72" type="line"/>
      <point x="415" y="65"/>
      <point x="367" y="49"/>
      <point x="338" y="34" type="curve"/>
      <point x="342" y="0" type="line"/>
    </contour>
    <contour>
      <point x="573" y="0" type="line"/>
      <point x="578" y="48" type="line"/>
      <point x="550" y="64"/>
      <point x="505" y="74"/>
      <point x="468" y="79" type="curve"/>
      <point x="459" y="0" type="line"/>
    </contour>
    <contour>
      <point x="731" y="0" type="line"/>
      <point x="744" y="72" type="line"/>
      <point x="714" y="65"/>
      <point x="666" y="49"/>
      <point x="637" y="34" type="curve"/>
      <point x="641" y="0" type="line"/>
    </contour>
    <contour>
      <point x="876" y="0" type="line"/>
      <point x="881" y="48" type="line"/>
      <point x="853" y="64"/>
      <point x="804" y="74"/>
      <point x="767" y="79" type="curve"/>
      <point x="758" y="0" type="line"/>
    </contour>
  </outline>
</glyph>
<glyph name="n" format="1">
  <advance width="607"/>
  <unicode hex="006E"/>
  <outline>
    <contour>
      <point x="123" y="406" type="line"/>
      <point x="177" y="449" type="line"/>
      <point x="169" y="489" type="line"/>
      <point x="117" y="487"/>
      <point x="58" y="475"/>
      <point x="12" y="456" type="curve"/>
      <point x="22" y="408" type="line"/>
    </contour>
    <contour>
      <point x="97" y="0" type="line"/>
      <point x="214" y="0" type="line"/>
      <point x="214" y="447" type="line"/>
      <point x="169" y="489" type="line"/>
      <point x="97" y="447" type="line"/>
    </contour>
    <contour>
      <point x="119" y="0" type="line"/>
      <point x="132" y="72" type="line"/>
      <point x="102" y="65"/>
      <point x="54" y="49"/>
      <point x="25" y="34" type="curve"/>
      <point x="29" y="0" type="line"/>
    </contour>
    <contour>
      <point x="272" y="0" type="line"/>
      <point x="276" y="48" type="line"/>
      <point x="249" y="64"/>
      <point x="207" y="74"/>
      <point x="170" y="79" type="curve"/>
      <point x="161" y="0" type="line"/>
    </contour>
    <contour>
      <point x="441" y="0" type="line"/>
      <point x="454" y="72" type="line"/>
      <point x="424" y="65"/>
      <point x="376" y="49"/>
      <point x="347" y="34" type="curve"/>
      <point x="351" y="0" type="line"/>
    </contour>
    <contour>
      <point x="586" y="0" type="line"/>
      <point x="591" y="48" type="line"/>
      <point x="563" y="64"/>
      <point x="514" y="74"/>
      <point x="477" y="79" type="curve"/>
      <point x="468" y="0" type="line"/>
    </contour>
    <contour>
      <point x="403" y="0" type="line"/>
      <point x="520" y="0" type="line"/>
      <point x="520" y="299" type="line" smooth="yes"/>
      <point x="520" y="373"/>
      <point x="517" y="401"/>
      <point x="507" y="419" type="curve" smooth="yes"/>
      <point x="485" y="456"/>
      <point x="438" y="483"/>
      <point x="400" y="488" type="curve"/>
      <point x="352" y="480"/>
      <point x="260" y="428"/>
      <point x="169" y="356" type="curve"/>
      <point x="183" y="320" type="line"/>
      <point x="231" y="356"/>
      <point x="296" y="395"/>
      <point x="338" y="395" type="curve" smooth="yes"/>
      <point x="375" y="396"/>
      <point x="403" y="367"/>
      <point x="403" y="292" type="curve" smooth="yes"/>
    </contour>
    <contour>
      <point x="301" y="468" type="move" name="top"/>
    </contour>
    <contour>
      <point x="317" y="0" type="move" name="bottom"/>
    </contour>
  </outline>
</glyph>
<glyph name="p" format="1">
  <advance width="567"/>
  <unicode hex="0070"/>
  <outline>
    <contour>
      <point x="288" y="-15" type="curve"/>
      <point x="444" y="-15"/>
      <point x="545" y="105"/>
      <point x="545" y="254" type="curve"/>
      <point x="545" y="392"/>
      <point x="458" y="511"/>
      <point x="323" y="484" type="curve"/>
      <point x="162" y="375" type="line"/>
      <point x="171" y="332" type="line"/>
      <point x="218" y="364"/>
      <point x="265" y="393"/>
      <point x="307" y="393" type="curve"/>
      <point x="377" y="393"/>
      <point x="421" y="315"/>
      <point x="421" y="231" type="curve"/>
      <point x="421" y="163"/>
      <point x="393" y="92"/>
      <point x="345" y="59" type="curve"/>
      <point x="263" y="49"/>
      <point x="196" y="82"/>
      <point x="168" y="111" type="curve"/>
      <point x="115" y="26" type="line"/>
      <point x="173" y="0"/>
      <point x="234" y="-15"/>
    </contour>
    <contour>
      <point x="29" y="-170" type="curve"/>
      <point x="33" y="-203" type="line"/>
      <point x="123" y="-203" type="line"/>
      <point x="136" y="-131" type="line"/>
      <point x="106" y="-141"/>
      <point x="58" y="-156"/>
    </contour>
    <contour>
      <point x="192" y="-124" type="curve"/>
      <point x="183" y="-203" type="line"/>
      <point x="294" y="-203" type="line"/>
      <point x="298" y="-155" type="line"/>
      <point x="271" y="-142"/>
      <point x="229" y="-132"/>
    </contour>
    <contour>
      <point x="95" y="447" type="line"/>
      <point x="95" y="-203" type="line"/>
      <point x="212" y="-203" type="line"/>
      <point x="212" y="449" type="line"/>
      <point x="168" y="489" type="line"/>
    </contour>
    <contour>
      <point x="22" y="408" type="line"/>
      <point x="123" y="406" type="line"/>
      <point x="180" y="458" type="line"/>
      <point x="169" y="489" type="line"/>
      <point x="117" y="487"/>
      <point x="58" y="475"/>
      <point x="12" y="456" type="curve"/>
    </contour>
  </outline>
</glyph>
<glyph name="q" format="1">
  <advance width="548"/>
  <unicode hex="0071"/>
  <outline>
    <contour>
      <point x="516" y="423" type="line"/>
      <point x="499" y="471" type="line"/>
      <point x="362" y="450" type="line"/>
      <point x="345" y="421" type="line"/>
      <point x="345" y="-203" type="line"/>
      <point x="462" y="-203" type="line"/>
      <point x="462" y="384" type="line"/>
    </contour>
    <contour>
      <point x="354" y="-203" type="line"/>
      <point x="356" y="-131" type="line"/>
      <point x="326" y="-139"/>
      <point x="278" y="-154"/>
      <point x="249" y="-170" type="curve"/>
      <point x="253" y="-203" type="line"/>
    </contour>
    <contour>
      <point x="514" y="-203" type="line"/>
      <point x="518" y="-155" type="line"/>
      <point x="491" y="-140"/>
      <point x="449" y="-130"/>
      <point x="412" y="-124" type="curve"/>
      <point x="403" y="-203" type="line"/>
    </contour>
    <contour>
      <point x="410" y="147" type="line"/>
      <point x="353" y="103"/>
      <point x="302" y="83"/>
      <point x="264" y="83" type="curve" smooth="yes"/>
      <point x="188" y="83"/>
      <point x="141" y="156"/>
      <point x="141" y="248" type="curve" smooth="yes"/>
      <point x="141" y="313"/>
      <point x="164" y="378"/>
      <point x="207" y="417" type="curve"/>
      <point x="287" y="430"/>
      <point x="364" y="389"/>
      <point x="398" y="338" type="curve"/>
      <point x="461" y="427" type="line"/>
      <point x="415" y="463"/>
      <point x="352" y="494"/>
      <point x="279" y="494" type="curve" smooth="yes"/>
      <point x="133" y="494"/>
      <point x="17" y="385"/>
      <point x="17" y="234" type="curve" smooth="yes"/>
      <point x="17" y="101"/>
      <point x="108" y="-16"/>
      <point x="245" y="-14" type="curve"/>
      <point x="406" y="98" type="line"/>
    </contour>
  </outline>
</glyph>
<glyph name="u" format="1">
  <advance width="590"/>
  <unicode hex="0075"/>
  <outline>
    <contour>
      <point x="204" y="-16" type="curve"/>
      <point x="261" y="-8"/>
      <point x="364" y="38"/>
      <point x="438" y="104" type="curve"/>
      <point x="425" y="142" type="line"/>
      <point x="374" y="108"/>
      <point x="316" y="76"/>
      <point x="268" y="76" type="curve"/>
      <point x="222" y="75"/>
      <point x="201" y="103"/>
      <point x="201" y="169" type="curve"/>
      <point x="201" y="449" type="line"/>
      <point x="156" y="489" type="line"/>
      <point x="84" y="448" type="line"/>
      <point x="84" y="172" type="line" smooth="yes"/>
      <point x="84" y="98"/>
      <point x="88" y="72"/>
      <point x="100" y="53" type="curve"/>
      <point x="122" y="18"/>
      <point x="166" y="-10"/>
    </contour>
    <contour>
      <point x="10" y="408" type="line"/>
      <point x="111" y="406" type="line"/>
      <point x="165" y="449" type="line"/>
      <point x="157" y="489" type="line"/>
      <point x="105" y="487"/>
      <point x="46" y="475"/>
      <point x="0" y="456" type="curve"/>
    </contour>
    <contour>
      <point x="471" y="-16" type="curve"/>
      <point x="582" y="40" type="line"/>
      <point x="570" y="84" type="line"/>
      <point x="554" y="81"/>
      <point x="537" y="77"/>
      <point x="523" y="77" type="curve"/>
      <point x="507" y="77"/>
      <point x="497" y="83"/>
      <point x="497" y="98" type="curve"/>
      <point x="497" y="449" type="line"/>
      <point x="452" y="489" type="line"/>
      <point x="380" y="448" type="line"/>
      <point x="380" y="81" type="line"/>
      <point x="385" y="70" type="line"/>
      <point x="398" y="26"/>
      <point x="443" y="-14"/>
    </contour>
    <contour>
      <point x="311" y="409" type="line"/>
      <point x="406" y="406" type="line"/>
      <point x="460" y="449" type="line"/>
      <point x="452" y="489" type="line"/>
      <point x="402" y="488"/>
      <point x="345" y="476"/>
      <point x="301" y="457" type="curve"/>
    </contour>
    <contour>
      <point x="528" y="12" type="move" name="ogonek"/>
    </contour>
    <contour>
      <point x="269" y="468" type="move" name="top"/>
    </contour>
  </outline>
</glyph>
<glyph name="w" format="1">
  <advance width="753"/>
  <unicode hex="0077"/>
  <outline>
    <contour>
      <point x="-16" y="421" type="line"/>
      <point x="121" y="383" type="line"/>
      <point x="142" y="472" type="line"/>
      <point x="-15" y="472" type="line"/>
    </contour>
    <contour>
      <point x="122" y="472" type="line"/>
      <point x="128" y="396" type="line"/>
      <point x="159" y="406"/>
      <point x="188" y="417"/>
      <point x="217" y="431" type="curve"/>
      <point x="212" y="472" type="line"/>
    </contour>
    <contour>
      <point x="725" y="472" type="line"/>
      <point x="607" y="472" type="line"/>
      <point x="520" y="85" type="line"/>
      <point x="513" y="85" type="line"/>
      <point x="494" y="191" type="line"/>
      <point x="402" y="466" type="line"/>
      <point x="288" y="448" type="line"/>
      <point x="445" y="-3" type="line"/>
      <point x="482" y="-11"/>
      <point x="541" y="-7"/>
      <point x="579" y="6" type="curve"/>
    </contour>
    <contour>
      <point x="661" y="393" type="line"/>
      <point x="673" y="472" type="line"/>
      <point x="534" y="472" type="line"/>
      <point x="533" y="421" type="line"/>
    </contour>
    <contour>
      <point x="653" y="472" type="line"/>
      <point x="673" y="396" type="line"/>
      <point x="704" y="406"/>
      <point x="733" y="417"/>
      <point x="762" y="431" type="curve"/>
      <point x="757" y="472" type="line"/>
    </contour>
    <contour>
      <point x="356" y="344" type="line"/>
      <point x="261" y="85" type="line"/>
      <point x="253" y="85" type="line"/>
      <point x="229" y="191" type="line"/>
      <point x="145" y="472" type="line"/>
      <point x="22" y="463" type="line"/>
      <point x="172" y="-3" type="line"/>
      <point x="211" y="-9"/>
      <point x="268" y="-7"/>
      <point x="304" y="6" type="curve"/>
      <point x="375" y="176" type="line"/>
      <point x="396" y="275" type="line"/>
    </contour>
    <contour>
      <point x="370" y="468" type="move" name="top"/>
    </contour>
  </outline>
</glyph>
<glyph name="x" format="1">
  <advance width="555"/>
  <unicode hex="0078"/>
  <outline>
    <contour>
      <point x="25" y="421" type="line"/>
      <point x="159" y="383" type="line"/>
      <point x="189" y="472" type="line"/>
      <point x="26" y="472" type="line"/>
    </contour>
    <contour>
      <point x="191" y="406"/>
      <point x="220" y="417"/>
      <point x="249" y="431" type="curve"/>
      <point x="244" y="472" type="line"/>
      <point x="154" y="472" type="line"/>
      <point x="160" y="396" type="line" smooth="yes"/>
    </contour>
    <contour>
      <point x="434" y="400" type="line"/>
      <point x="482" y="472" type="line"/>
      <point x="317" y="472" type="line"/>
      <point x="316" y="421" type="line"/>
    </contour>
    <contour>
      <point x="416" y="472" type="line"/>
      <point x="430" y="395" type="line"/>
      <point x="461" y="404"/>
      <point x="496" y="418"/>
      <point x="525" y="431" type="curve"/>
      <point x="520" y="472" type="line"/>
    </contour>
    <contour>
      <point x="397" y="0" type="line"/>
      <point x="524" y="0" type="line"/>
      <point x="173" y="472" type="line"/>
      <point x="60" y="441" type="line"/>
    </contour>
    <contour>
      <point x="474" y="417" type="line"/>
      <point x="487" y="472" type="line"/>
      <point x="397" y="472" type="line"/>
      <point x="277" y="277" type="line"/>
      <point x="316" y="223" type="line"/>
    </contour>
    <contour>
      <point x="19" y="6" type="line"/>
      <point x="80" y="0" type="line"/>
      <point x="141" y="0" type="line"/>
      <point x="266" y="200" type="line"/>
      <point x="222" y="255" type="line"/>
    </contour>
    <contour>
      <point x="96" y="0" type="line"/>
      <point x="109" y="72" type="line"/>
      <point x="79" y="65"/>
      <point x="31" y="49"/>
      <point x="2" y="34" type="curve"/>
      <point x="6" y="0" type="line"/>
    </contour>
    <contour>
      <point x="234" y="0" type="line"/>
      <point x="238" y="48" type="line"/>
      <point x="211" y="64"/>
      <point x="169" y="74"/>
      <point x="132" y="79" type="curve"/>
      <point x="115" y="0" type="line"/>
    </contour>
    <contour>
      <point x="441" y="0" type="line"/>
      <point x="414" y="72" type="line"/>
      <point x="384" y="65"/>
      <point x="336" y="49"/>
      <point x="307" y="34" type="curve"/>
      <point x="311" y="0" type="line"/>
    </contour>
    <contour>
      <point x="539" y="0" type="line"/>
      <point x="543" y="48" type="line"/>
      <point x="516" y="64"/>
      <point x="474" y="74"/>
      <point x="437" y="79" type="curve"/>
      <point x="420" y="0" type="line"/>
    </contour>
  </outline>
</glyph>
<glyph name="y" format="1">
  <advance width="522"/>
  <unicode hex="0079"/>
  <outline>
    <contour>
      <point x="-16" y="421" type="line"/>
      <point x="125" y="383" type="line"/>
      <point x="150" y="472" type="line"/>
      <point x="-15" y="472" type="line"/>
    </contour>
    <contour>
      <point x="132" y="472" type="line"/>
      <point x="138" y="396" type="line"/>
      <point x="169" y="406"/>
      <point x="198" y="417"/>
      <point x="227" y="431" type="curve"/>
      <point x="222" y="472" type="line"/>
    </contour>
    <contour>
      <point x="298" y="421" type="line"/>
      <point x="426" y="393" type="line"/>
      <point x="438" y="472" type="line"/>
      <point x="299" y="472" type="line"/>
    </contour>
    <contour>
      <point x="420" y="472" type="line"/>
      <point x="440" y="396" type="line"/>
      <point x="471" y="406"/>
      <point x="502" y="417"/>
      <point x="531" y="431" type="curve"/>
      <point x="526" y="472" type="line"/>
    </contour>
    <contour>
      <point x="241" y="-145"/>
      <point x="312" y="-51"/>
      <point x="360" y="65" type="curve"/>
      <point x="406" y="187"/>
      <point x="453" y="342"/>
      <point x="491" y="472" type="curve"/>
      <point x="365" y="472" type="line"/>
      <point x="347" y="357"/>
      <point x="308" y="205"/>
      <point x="271" y="97" type="curve"/>
      <point x="253" y="97" type="line"/>
      <point x="239" y="198" type="line"/>
      <point x="151" y="472" type="line"/>
      <point x="27" y="455" type="line"/>
      <point x="180" y="32" type="line"/>
      <point x="198" y="19"/>
      <point x="223" y="7"/>
      <point x="244" y="0" type="curve"/>
      <point x="190" y="-52"/>
      <point x="123" y="-83"/>
      <point x="50" y="-109" type="curve"/>
      <point x="113" y="-219" type="line"/>
    </contour>
    <contour>
      <point x="264" y="468" type="move" name="top"/>
    </contour>
  </outline>
</glyph>
<glyph name="braceleft" format="1">
  <advance width="456"/>
  <unicode hex="007B"/>
  <outline>
    <contour>
      <point x="357" y="-145" type="curve"/>
      <point x="367" y="-60" type="line"/>
      <point x="269" y="-48" type="line"/>
      <point x="273" y="149" type="line" smooth="yes"/>
      <point x="274" y="201"/>
      <point x="259" y="248"/>
      <point x="221" y="295" type="curve"/>
      <point x="221" y="304" type="line"/>
      <point x="259" y="350"/>
      <point x="274" y="398"/>
      <point x="273" y="449" type="curve"/>
      <point x="269" y="644" type="line"/>
      <point x="370" y="644" type="line"/>
      <point x="364" y="729" type="line"/>
      <point x="211" y="715"/>
      <point x="148" y="634"/>
      <point x="148" y="555" type="curve"/>
      <point x="148" y="443" type="line" smooth="yes"/>
      <point x="148" y="374"/>
      <point x="141" y="333"/>
      <point x="73" y="327" type="curve"/>
      <point x="67" y="268" type="line"/>
      <point x="143" y="262"/>
      <point x="148" y="223"/>
      <point x="148" y="142" type="curve"/>
      <point x="148" y="16" type="line" smooth="yes"/>
      <point x="148" y="-54"/>
      <point x="225" y="-135"/>
    </contour>
  </outline>
</glyph>
<glyph name="bar" format="1">
  <advance width="303"/>
  <unicode hex="007C"/>
  <outline>
    <contour>
      <point x="103" y="735" type="line"/>
      <point x="103" y="-225" type="line"/>
      <point x="197" y="-225" type="line"/>
      <point x="197" y="735" type="line"/>
    </contour>
  </outline>
</glyph>
<glyph name="cent" format="1">
  <advance width="431"/>
  <unicode hex="00A2"/>
  <outline>
    <contour>
      <point x="212" y="30" type="line"/>
      <point x="212" y="-116" type="line"/>
      <point x="286" y="-116" type="line"/>
      <point x="286" y="30" type="line"/>
    </contour>
    <contour>
      <point x="212" y="603" type="line"/>
      <point x="212" y="458" type="line"/>
      <point x="286" y="458" type="line"/>
      <point x="286" y="603" type="line"/>
    </contour>
    <component base="c" yScale="0.923" yOffset="26"/>
  </outline>
</glyph>
<glyph name="sterling" format="1">
  <advance width="538"/>
  <unicode hex="00A3"/>
  <outline>
    <contour>
      <point x="151" y="670"/>
      <point x="79" y="566"/>
      <point x="79" y="484" type="curve" smooth="yes"/>
      <point x="79" y="370"/>
      <point x="218" y="233"/>
      <point x="44" y="0" type="curve"/>
      <point x="118" y="0" type="line"/>
      <point x="345" y="219"/>
      <point x="199" y="360"/>
      <point x="199" y="495" type="curve" smooth="yes"/>
      <point x="199" y="529"/>
      <point x="208" y="574"/>
      <point x="241" y="597" type="curve"/>
      <point x="310" y="599"/>
      <point x="373" y="583"/>
      <point x="417" y="531" type="curve"/>
      <point x="471" y="633" type="line"/>
      <point x="426" y="651"/>
      <point x="366" y="670"/>
      <point x="301" y="670" type="curve" smooth="yes"/>
    </contour>
    <contour>
      <point x="77" y="61"/>
      <point x="42" y="48"/>
      <point x="12" y="32" type="curve"/>
      <point x="18" y="0" type="line"/>
      <point x="112" y="0" type="line"/>
      <point x="111" y="73" type="line"/>
    </contour>
    <contour>
      <point x="178" y="76" type="line"/>
      <point x="101" y="0" type="line"/>
      <point x="492" y="0" type="line"/>
      <point x="475" y="91" type="line"/>
    </contour>
    <contour>
      <point x="393" y="309" type="line"/>
      <point x="387" y="340" type="line"/>
      <point x="213" y="340" type="line"/>
      <point x="176" y="328" type="line"/>
      <point x="73" y="328" type="line"/>
      <point x="30" y="291" type="line"/>
      <point x="36" y="260" type="line"/>
      <point x="169" y="260" type="line"/>
      <point x="206" y="272" type="line"/>
      <point x="350" y="272" type="line"/>
    </contour>
    <contour>
      <point x="471" y="515"/>
      <point x="474" y="597"/>
      <point x="470" y="633" type="curve"/>
      <point x="354" y="600" type="line"/>
      <point x="394" y="458" type="line"/>
      <point x="459" y="456" type="line"/>
    </contour>
    <contour>
      <point x="431" y="194" type="line"/>
      <point x="379" y="32" type="line"/>
      <point x="492" y="0" type="line"/>
      <point x="499" y="44"/>
      <point x="500" y="129"/>
      <point x="495" y="189" type="curve"/>
    </contour>
  </outline>
</glyph>
<glyph name="yen" format="1">
  <advance width="609"/>
  <unicode hex="00A5"/>
  <outline>
    <contour>
      <point x="108" y="268" type="line"/>
      <point x="114" y="237" type="line"/>
      <point x="448" y="237" type="line"/>
      <point x="491" y="266" type="line"/>
      <point x="485" y="297" type="line"/>
      <point x="151" y="297" type="line"/>
    </contour>
    <contour>
      <point x="108" y="148" type="line"/>
      <point x="114" y="117" type="line"/>
      <point x="448" y="117" type="line"/>
      <point x="491" y="146" type="line"/>
      <point x="485" y="177" type="line"/>
      <point x="151" y="177" type="line"/>
    </contour>
    <component base="Y" xOffset="-15"/>
  </outline>
</glyph>
<glyph name="section" format="1">
  <advance width="522"/>
  <unicode hex="00A7"/>
  <outline>
    <contour>
      <point x="338" y="146" type="curve"/>
      <point x="378" y="106" type="line"/>
      <point x="445" y="145"/>
      <point x="480" y="185"/>
      <point x="480" y="243" type="curve"/>
      <point x="480" y="343"/>
      <point x="376" y="384"/>
      <point x="303" y="414" type="curve"/>
      <point x="219" y="447"/>
      <point x="168" y="465"/>
      <point x="168" y="516" type="curve"/>
      <point x="168" y="544"/>
      <point x="184" y="574"/>
      <point x="209" y="593" type="curve"/>
      <point x="295" y="611"/>
      <point x="370" y="586"/>
      <point x="415" y="541" type="curve"/>
      <point x="455" y="638" type="line"/>
      <point x="412" y="654"/>
      <point x="350" y="670"/>
      <point x="289" y="670" type="curve"/>
      <point x="167" y="670"/>
      <point x="63" y="606"/>
      <point x="63" y="504" type="curve"/>
      <point x="63" y="420"/>
      <point x="133" y="375"/>
      <point x="231" y="336" type="curve"/>
      <point x="308" y="306"/>
      <point x="384" y="285"/>
      <point x="384" y="218" type="curve"/>
      <point x="384" y="190"/>
      <point x="370" y="172"/>
    </contour>
    <contour>
      <point x="267" y="-148" type="curve"/>
      <point x="376" y="-148"/>
      <point x="466" y="-82"/>
      <point x="466" y="14" type="curve"/>
      <point x="466" y="95"/>
      <point x="404" y="139"/>
      <point x="291" y="182" type="curve"/>
      <point x="208" y="213"/>
      <point x="147" y="233"/>
      <point x="147" y="287" type="curve"/>
      <point x="147" y="317"/>
      <point x="165" y="343"/>
      <point x="195" y="365" type="curve"/>
      <point x="164" y="413" type="line"/>
      <point x="105" y="385"/>
      <point x="54" y="335"/>
      <point x="54" y="266" type="curve"/>
      <point x="54" y="180"/>
      <point x="136" y="138"/>
      <point x="222" y="103" type="curve"/>
      <point x="299" y="72"/>
      <point x="371" y="56"/>
      <point x="371" y="-1" type="curve"/>
      <point x="371" y="-21"/>
      <point x="362" y="-42"/>
      <point x="343" y="-60" type="curve"/>
      <point x="278" y="-69"/>
      <point x="182" y="-39"/>
      <point x="111" y="10" type="curve"/>
      <point x="64" y="-88" type="line"/>
      <point x="125" y="-131"/>
      <point x="211" y="-148"/>
    </contour>
    <contour>
      <point x="379" y="475" type="line"/>
      <point x="444" y="474" type="line"/>
      <point x="456" y="532"/>
      <point x="459" y="602"/>
      <point x="455" y="638" type="curve"/>
      <point x="351" y="605" type="line"/>
    </contour>
  </outline>
</glyph>
<glyph name="copyright" format="1">
  <advance width="815"/>
  <unicode hex="00A9"/>
  <outline>
    <contour>
      <point x="608" y="-21"/>
      <point x="761" y="137"/>
      <point x="761" y="332" type="curve" smooth="yes"/>
      <point x="761" y="530"/>
      <point x="601" y="688"/>
      <point x="405" y="688" type="curve" smooth="yes"/>
      <point x="210" y="688"/>
      <point x="52" y="531"/>
      <point x="52" y="331" type="curve" smooth="yes"/>
      <point x="52" y="131"/>
      <point x="211" y="-21"/>
      <point x="407" y="-21" type="curve" smooth="yes"/>
    </contour>
    <contour>
      <point x="247" y="46"/>
      <point x="119" y="168"/>
      <point x="119" y="331" type="curve" smooth="yes"/>
      <point x="119" y="493"/>
      <point x="248" y="621"/>
      <point x="407" y="621" type="curve" smooth="yes"/>
      <point x="566" y="621"/>
      <point x="694" y="492"/>
      <point x="694" y="334" type="curve" smooth="yes"/>
      <point x="694" y="175"/>
      <point x="567" y="46"/>
      <point x="405" y="46" type="curve" smooth="yes"/>
    </contour>
    <contour>
      <point x="546" y="238" type="line"/>
      <point x="508" y="222"/>
      <point x="477" y="214"/>
      <point x="447" y="214" type="curve" smooth="yes"/>
      <point x="360" y="214"/>
      <point x="315" y="275"/>
      <point x="315" y="344" type="curve" smooth="yes"/>
      <point x="315" y="387"/>
      <point x="333" y="434"/>
      <point x="370" y="467" type="curve"/>
      <point x="426" y="459"/>
      <point x="465" y="432"/>
      <point x="498" y="389" type="curve"/>
      <point x="574" y="445" type="line"/>
      <point x="535" y="507"/>
      <point x="480" y="529"/>
      <point x="419" y="529" type="curve" smooth="yes"/>
      <point x="295" y="529"/>
      <point x="221" y="435"/>
      <point x="221" y="329" type="curve" smooth="yes"/>
      <point x="221" y="221"/>
      <point x="299" y="132"/>
      <point x="430" y="134" type="curve"/>
      <point x="563" y="195" type="line"/>
    </contour>
  </outline>
</glyph>
<glyph name="ordfeminine" format="1">
  <advance width="416"/>
  <unicode hex="00AA"/>
  <outline>
    <contour>
      <point x="58" y="424"/>
      <point x="47" y="396"/>
      <point x="47" y="373" type="curve" smooth="yes"/>
      <point x="47" y="327"/>
      <point x="86" y="287"/>
      <point x="161" y="293" type="curve"/>
      <point x="243" y="346" type="line"/>
      <point x="239" y="372" type="line"/>
      <point x="220" y="363"/>
      <point x="173" y="348"/>
      <point x="141" y="347" type="curve"/>
      <point x="133" y="354"/>
      <point x="128" y="362"/>
      <point x="128" y="374" type="curve" smooth="yes"/>
      <point x="128" y="415"/>
      <point x="188" y="414"/>
      <point x="226" y="412" type="curve" smooth="yes"/>
      <point x="243" y="410" type="line"/>
      <point x="245" y="451" type="line"/>
      <point x="91" y="447" type="line"/>
    </contour>
    <contour>
      <point x="59" y="554"/>
      <point x="64" y="518"/>
      <point x="73" y="492" type="curve"/>
      <point x="125" y="496" type="line"/>
      <point x="133" y="569" type="line"/>
      <point x="147" y="573"/>
      <point x="168" y="575"/>
      <point x="196" y="576" type="curve"/>
      <point x="216" y="566"/>
      <point x="228" y="544"/>
      <point x="228" y="508" type="curve" smooth="yes"/>
      <point x="228" y="354" type="line"/>
      <point x="231" y="348" type="line"/>
      <point x="241" y="317"/>
      <point x="272" y="293"/>
      <point x="293" y="292" type="curve"/>
      <point x="371" y="332" type="line"/>
      <point x="364" y="361" type="line"/>
      <point x="352" y="359"/>
      <point x="342" y="357"/>
      <point x="331" y="357" type="curve" smooth="yes"/>
      <point x="321" y="357"/>
      <point x="315" y="362"/>
      <point x="315" y="372" type="curve"/>
      <point x="315" y="503" type="line" smooth="yes"/>
      <point x="315" y="546"/>
      <point x="314" y="557"/>
      <point x="308" y="570" type="curve" smooth="yes"/>
      <point x="293" y="595"/>
      <point x="261" y="626"/>
      <point x="223" y="627" type="curve" smooth="yes"/>
      <point x="184" y="627"/>
      <point x="97" y="607"/>
      <point x="60" y="580" type="curve"/>
    </contour>
    <contour>
      <point x="30" y="255" type="line"/>
      <point x="30" y="200" type="line"/>
      <point x="386" y="200" type="line"/>
      <point x="386" y="255" type="line"/>
    </contour>
  </outline>
</glyph>
<glyph name="logicalnot" format="1">
  <advance width="592"/>
  <unicode hex="00AC"/>
  <outline>
    <contour>
      <point x="58" y="269" type="line"/>
      <point x="58" y="192" type="line"/>
      <point x="534" y="192" type="line"/>
      <point x="534" y="269" type="line"/>
    </contour>
    <contour>
      <point x="534" y="269" type="line"/>
      <point x="447" y="269" type="line"/>
      <point x="447" y="0" type="line"/>
      <point x="534" y="0" type="line"/>
    </contour>
  </outline>
</glyph>
<glyph name="plusminus" format="1">
  <advance width="539"/>
  <unicode hex="00B1"/>
  <outline>
    <contour>
      <point x="313" y="400" type="line"/>
      <point x="313" y="579" type="line"/>
      <point x="226" y="579" type="line"/>
      <point x="226" y="400" type="line"/>
      <point x="58" y="400" type="line"/>
      <point x="58" y="326" type="line"/>
      <point x="226" y="326" type="line"/>
      <point x="226" y="145" type="line"/>
      <point x="313" y="145" type="line"/>
      <point x="313" y="326" type="line"/>
      <point x="481" y="326" type="line"/>
      <point x="481" y="400" type="line"/>
    </contour>
    <contour>
      <point x="63" y="74" type="line"/>
      <point x="64" y="0" type="line"/>
      <point x="473" y="0" type="line"/>
      <point x="473" y="74" type="line"/>
    </contour>
  </outline>
</glyph>
<glyph name="micro" format="1">
  <advance width="562"/>
  <unicode hex="00B5"/>
  <outline>
    <contour>
      <point x="525" y="81"/>
      <point x="508" y="77"/>
      <point x="494" y="77" type="curve" smooth="yes"/>
      <point x="478" y="77"/>
      <point x="468" y="83"/>
      <point x="468" y="98" type="curve"/>
      <point x="468" y="490" type="line"/>
      <point x="421" y="490"/>
      <point x="371" y="477"/>
      <point x="351" y="470" type="curve"/>
      <point x="351" y="81" type="line"/>
      <point x="356" y="70" type="line"/>
      <point x="369" y="26"/>
      <point x="414" y="-14"/>
      <point x="442" y="-16" type="curve"/>
      <point x="553" y="40" type="line"/>
      <point x="541" y="84" type="line"/>
    </contour>
    <contour>
      <point x="56" y="-226" type="line"/>
      <point x="107" y="-233"/>
      <point x="159" y="-220"/>
      <point x="181" y="-200" type="curve"/>
      <point x="121" y="32" type="line"/>
      <point x="138" y="6"/>
      <point x="163" y="-14"/>
      <point x="178" y="-15" type="curve"/>
      <point x="225" y="-7"/>
      <point x="328" y="33"/>
      <point x="418" y="104" type="curve"/>
      <point x="405" y="142" type="line"/>
      <point x="360" y="113"/>
      <point x="297" y="77"/>
      <point x="247" y="76" type="curve" smooth="yes"/>
      <point x="203" y="76"/>
      <point x="173" y="100"/>
      <point x="173" y="169" type="curve" smooth="yes"/>
      <point x="173" y="490" type="line"/>
      <point x="126" y="490"/>
      <point x="76" y="477"/>
      <point x="56" y="470" type="curve"/>
    </contour>
    <contour>
      <point x="89" y="22" type="line"/>
      <point x="161" y="22" type="line"/>
      <point x="161" y="63" type="line"/>
      <point x="89" y="63" type="line"/>
    </contour>
  </outline>
</glyph>
<glyph name="paragraph" format="1">
  <advance width="638"/>
  <unicode hex="00B6"/>
  <outline>
    <contour>
      <point x="303" y="686" type="line"/>
      <point x="94" y="699"/>
      <point x="0" y="589"/>
      <point x="0" y="480" type="curve" smooth="yes"/>
      <point x="0" y="394"/>
      <point x="59" y="311"/>
      <point x="166" y="277" type="curve"/>
      <point x="204" y="314" type="line"/>
      <point x="169" y="361"/>
      <point x="153" y="396"/>
      <point x="153" y="444" type="curve" smooth="yes"/>
      <point x="153" y="563"/>
      <point x="250" y="609"/>
      <point x="380" y="600" type="curve" smooth="yes"/>
      <point x="589" y="585" type="line"/>
      <point x="596" y="646" type="line"/>
    </contour>
    <contour>
      <point x="289" y="-165" type="line"/>
      <point x="289" y="-89" type="line"/>
      <point x="289" y="-89"/>
      <point x="207" y="-106"/>
      <point x="159" y="-128" type="curve"/>
      <point x="165" y="-165" type="line"/>
    </contour>
    <contour>
      <point x="603" y="-165" type="line"/>
      <point x="604" y="-117" type="line"/>
      <point x="466" y="-101" type="line"/>
      <point x="463" y="-165" type="line"/>
    </contour>
    <contour>
      <point x="275" y="-165" type="line"/>
      <point x="355" y="-165" type="line"/>
      <point x="355" y="609" type="line"/>
      <point x="275" y="609" type="line"/>
    </contour>
    <contour>
      <point x="432" y="-165" type="line"/>
      <point x="512" y="-165" type="line"/>
      <point x="512" y="609" type="line"/>
      <point x="432" y="609" type="line"/>
    </contour>
  </outline>
</glyph>
<glyph name="onesuperior" format="1">
  <advance width="245"/>
  <unicode hex="00B9"/>
  <outline>
    <contour>
      <point x="83" y="718" type="line"/>
      <point x="83" y="423" type="line"/>
      <point x="161" y="423" type="line"/>
      <point x="161" y="726" type="line"/>
    </contour>
    <contour>
      <point x="20" y="439" type="curve"/>
      <point x="23" y="423" type="line"/>
      <point x="93" y="423" type="line"/>
      <point x="96" y="468" type="line"/>
      <point x="71" y="463"/>
      <point x="39" y="451"/>
    </contour>
    <contour>
      <point x="150" y="463" type="line"/>
      <point x="149" y="423" type="line"/>
      <point x="217" y="423" type="line"/>
      <point x="218" y="449" type="line"/>
    </contour>
    <contour>
      <point x="4" y="677" type="line"/>
      <point x="20" y="646" type="line"/>
      <point x="123" y="687" type="line"/>
      <point x="133" y="730" type="line"/>
      <point x="125" y="749" type="line"/>
    </contour>
    <contour>
      <point x="124" y="749" type="line"/>
      <point x="114" y="713" type="line"/>
      <point x="160" y="726" type="line"/>
    </contour>
  </outline>
</glyph>
<glyph name="ordmasculine" format="1">
  <advance width="421"/>
  <unicode hex="00BA"/>
  <outline>
    <contour>
      <point x="35" y="354"/>
      <point x="106" y="286"/>
      <point x="196" y="286" type="curve" smooth="yes"/>
      <point x="277" y="286"/>
      <point x="355" y="342"/>
      <point x="355" y="454" type="curve" smooth="yes"/>
      <point x="355" y="565"/>
      <point x="278" y="630"/>
      <point x="198" y="630" type="curve" smooth="yes"/>
      <point x="119" y="630"/>
      <point x="35" y="569"/>
      <point x="35" y="457" type="curve" smooth="yes"/>
    </contour>
    <contour>
      <point x="224" y="341"/>
      <point x="215" y="340"/>
      <point x="207" y="340" type="curve" smooth="yes"/>
      <point x="147" y="340"/>
      <point x="124" y="394"/>
      <point x="124" y="460" type="curve" smooth="yes"/>
      <point x="124" y="510"/>
      <point x="138" y="556"/>
      <point x="156" y="568" type="curve"/>
      <point x="164" y="572"/>
      <point x="172" y="574"/>
      <point x="183" y="574" type="curve" smooth="yes"/>
      <point x="247" y="574"/>
      <point x="265" y="500"/>
      <point x="265" y="440" type="curve" smooth="yes"/>
      <point x="265" y="378"/>
      <point x="244" y="348"/>
      <point x="234" y="343" type="curve"/>
    </contour>
    <contour>
      <point x="19" y="255" type="line"/>
      <point x="19" y="200" type="line"/>
      <point x="373" y="200" type="line"/>
      <point x="373" y="255" type="line"/>
    </contour>
  </outline>
</glyph>
<glyph name="AE" format="1">
  <advance width="905"/>
  <unicode hex="00C6"/>
  <outline>
    <contour>
      <point x="382" y="649" type="line"/>
      <point x="35" y="0" type="line"/>
      <point x="128" y="0" type="line"/>
      <point x="451" y="624" type="line"/>
    </contour>
    <contour>
      <point x="-20" y="35" type="curve"/>
      <point x="-14" y="0" type="line"/>
      <point x="80" y="0" type="line"/>
      <point x="79" y="76" type="line"/>
      <point x="71" y="72"/>
      <point x="7" y="51"/>
    </contour>
    <contour>
      <point x="114" y="67" type="line"/>
      <point x="111" y="0" type="line"/>
      <point x="251" y="0" type="line"/>
      <point x="252" y="49" type="line"/>
    </contour>
    <contour>
      <point x="343" y="35" type="curve"/>
      <point x="349" y="0" type="line"/>
      <point x="443" y="0" type="line"/>
      <point x="442" y="76" type="line"/>
      <point x="434" y="72"/>
      <point x="370" y="51"/>
    </contour>
    <contour>
      <point x="215" y="260" type="line"/>
      <point x="215" y="191" type="line"/>
      <point x="517" y="191" type="line"/>
      <point x="517" y="260" type="line"/>
    </contour>
    <contour>
      <point x="523" y="75" type="line"/>
      <point x="448" y="0" type="line"/>
      <point x="839" y="0" type="line"/>
      <point x="829" y="90" type="line"/>
    </contour>
    <contour>
      <point x="428" y="654" type="line"/>
      <point x="428" y="0" type="line"/>
      <point x="548" y="0" type="line"/>
      <point x="548" y="654" type="line"/>
    </contour>
    <contour>
      <point x="742" y="32" type="line"/>
      <point x="843" y="0" type="line"/>
      <point x="851" y="48"/>
      <point x="857" y="134"/>
      <point x="855" y="189" type="curve"/>
      <point x="787" y="194" type="line"/>
    </contour>
    <contour>
      <point x="532" y="293" type="line"/>
      <point x="772" y="283" type="line"/>
      <point x="772" y="377" type="line"/>
      <point x="532" y="358" type="line"/>
    </contour>
    <contour>
      <point x="294" y="604" type="line"/>
      <point x="399" y="594" type="line"/>
      <point x="459" y="654" type="line"/>
      <point x="295" y="654" type="line"/>
    </contour>
    <contour>
      <point x="521" y="582" type="line"/>
      <point x="829" y="567" type="line"/>
      <point x="845" y="654" type="line"/>
      <point x="446" y="654" type="line"/>
    </contour>
    <contour>
      <point x="742" y="618" type="line"/>
      <point x="764" y="477" type="line"/>
      <point x="833" y="477" type="line"/>
      <point x="845" y="540"/>
      <point x="849" y="618"/>
      <point x="846" y="654" type="curve"/>
    </contour>
    <contour>
      <point x="510" y="650" type="move" name="top"/>
    </contour>
  </outline>
</glyph>
<glyph name="Oslash" format="1">
  <advance width="664"/>
  <unicode hex="00D8"/>
  <outline>
    <contour>
      <point x="112" y="-48" type="line"/>
      <point x="178" y="-84" type="line"/>
      <point x="590" y="696" type="line"/>
      <point x="525" y="735" type="line"/>
    </contour>
    <component base="O"/>
  </outline>
</glyph>
<glyph name="Thorn" format="1">
  <advance width="590"/>
  <unicode hex="00DE"/>
  <outline>
    <contour>
      <point x="195" y="235" type="curve"/>
      <point x="192" y="151" type="line"/>
      <point x="326" y="151" type="line" smooth="yes"/>
      <point x="490" y="152"/>
      <point x="573" y="239"/>
      <point x="573" y="334" type="curve"/>
      <point x="573" y="423"/>
      <point x="499" y="519"/>
      <point x="338" y="519" type="curve"/>
      <point x="183" y="519" type="line"/>
      <point x="217" y="427" type="line"/>
      <point x="374" y="453" type="line"/>
      <point x="423" y="426"/>
      <point x="446" y="382"/>
      <point x="446" y="335" type="curve"/>
      <point x="446" y="275"/>
      <point x="407" y="222"/>
      <point x="293" y="222" type="curve"/>
      <point x="252" y="222"/>
      <point x="226" y="229"/>
    </contour>
    <contour>
      <point x="28" y="35" type="curve"/>
      <point x="34" y="0" type="line"/>
      <point x="128" y="0" type="line"/>
      <point x="127" y="76" type="line"/>
      <point x="119" y="72"/>
      <point x="55" y="51"/>
    </contour>
    <contour>
      <point x="196" y="67" type="line"/>
      <point x="193" y="0" type="line"/>
      <point x="333" y="0" type="line"/>
      <point x="334" y="49" type="line"/>
    </contour>
    <contour>
      <point x="117" y="650" type="line"/>
      <point x="117" y="0" type="line"/>
      <point x="239" y="0" type="line"/>
      <point x="239" y="650" type="line"/>
    </contour>
    <contour>
      <point x="36" y="601" type="line"/>
      <point x="174" y="583" type="line"/>
      <point x="177" y="650" type="line"/>
      <point x="37" y="650" type="line"/>
    </contour>
    <contour>
      <point x="228" y="650" type="line"/>
      <point x="229" y="575" type="line"/>
      <point x="237" y="579"/>
      <point x="301" y="600"/>
      <point x="328" y="616" type="curve"/>
      <point x="322" y="650" type="line"/>
    </contour>
  </outline>
</glyph>
<glyph name="germandbls" format="1">
  <advance width="578"/>
  <unicode hex="00DF"/>
  <outline>
    <contour>
      <point x="194" y="686"/>
      <point x="83" y="629"/>
      <point x="83" y="479" type="curve" smooth="yes"/>
      <point x="83" y="0" type="line"/>
      <point x="198" y="0" type="line"/>
      <point x="198" y="435" type="line"/>
      <point x="188" y="579" type="line"/>
      <point x="234" y="610"/>
      <point x="303" y="611"/>
      <point x="340" y="599" type="curve"/>
      <point x="408" y="507"/>
      <point x="312" y="410"/>
      <point x="267" y="330" type="curve"/>
      <point x="271" y="229"/>
      <point x="445" y="205"/>
      <point x="445" y="113" type="curve" smooth="yes"/>
      <point x="445" y="95"/>
      <point x="438" y="77"/>
      <point x="425" y="59" type="curve"/>
      <point x="372" y="68"/>
      <point x="319" y="98"/>
      <point x="287" y="121" type="curve"/>
      <point x="248" y="17" type="line"/>
      <point x="292" y="-4"/>
      <point x="342" y="-17"/>
      <point x="387" y="-17" type="curve" smooth="yes"/>
      <point x="481" y="-17"/>
      <point x="557" y="36"/>
      <point x="557" y="126" type="curve" smooth="yes"/>
      <point x="557" y="261"/>
      <point x="386" y="287"/>
      <point x="363" y="360" type="curve"/>
      <point x="442" y="409"/>
      <point x="475" y="461"/>
      <point x="475" y="517" type="curve" smooth="yes"/>
      <point x="475" y="603"/>
      <point x="396" y="686"/>
      <point x="282" y="686" type="curve" smooth="yes"/>
    </contour>
    <contour>
      <point x="135" y="381" type="line"/>
      <point x="168" y="438" type="line"/>
      <point x="131" y="474" type="line"/>
      <point x="91" y="466"/>
      <point x="50" y="453"/>
      <point x="10" y="430" type="curve"/>
      <point x="15" y="379" type="line"/>
    </contour>
    <contour>
      <point x="107" y="0" type="line"/>
      <point x="120" y="72" type="line"/>
      <point x="90" y="65"/>
      <point x="42" y="49"/>
      <point x="13" y="34" type="curve"/>
      <point x="17" y="0" type="line"/>
    </contour>
  </outline>
</glyph>
<glyph name="eth" format="1">
  <advance width="508"/>
  <unicode hex="00F0"/>
  <outline>
    <contour>
      <point x="191" y="719" type="line"/>
      <point x="276" y="614"/>
      <point x="313" y="538"/>
      <point x="350" y="433" type="curve"/>
      <point x="378" y="418" type="line"/>
      <point x="340" y="458"/>
      <point x="302" y="481"/>
      <point x="244" y="481" type="curve" smooth="yes"/>
      <point x="119" y="481"/>
      <point x="19" y="378"/>
      <point x="19" y="233" type="curve" smooth="yes"/>
      <point x="19" y="83"/>
      <point x="127" y="-25"/>
      <point x="257" y="-25" type="curve" smooth="yes"/>
      <point x="386" y="-25"/>
      <point x="487" y="81"/>
      <point x="487" y="260" type="curve" smooth="yes"/>
      <point x="487" y="398"/>
      <point x="424" y="600"/>
      <point x="277" y="766" type="curve"/>
    </contour>
    <contour>
      <point x="189" y="44"/>
      <point x="136" y="139"/>
      <point x="136" y="231" type="curve" smooth="yes"/>
      <point x="136" y="302"/>
      <point x="166" y="377"/>
      <point x="213" y="408" type="curve"/>
      <point x="284" y="406"/>
      <point x="334" y="374"/>
      <point x="395" y="314" type="curve"/>
      <point x="346" y="410" type="line"/>
      <point x="391" y="279"/>
      <point x="377" y="123"/>
      <point x="304" y="55" type="curve"/>
    </contour>
    <contour>
      <point x="467" y="668" type="line"/>
      <point x="430" y="738" type="line"/>
      <point x="144" y="594" type="line"/>
      <point x="155" y="563" type="line"/>
      <point x="204" y="537" type="line"/>
    </contour>
  </outline>
</glyph>
<glyph name="divide" format="1">
  <advance width="600"/>
  <unicode hex="00F7"/>
  <outline>
    <contour>
      <point x="58" y="278" type="line"/>
      <point x="58" y="201" type="line"/>
      <point x="542" y="201" type="line"/>
      <point x="542" y="278" type="line"/>
    </contour>
    <contour>
      <point x="372" y="65"/>
      <point x="361" y="107"/>
      <point x="298" y="132" type="curve"/>
      <point x="288" y="127"/>
      <point x="237" y="101"/>
      <point x="230" y="44" type="curve"/>
      <point x="235" y="36"/>
      <point x="254" y="-9"/>
      <point x="311" y="-21" type="curve"/>
      <point x="359" y="1"/>
      <point x="372" y="47"/>
      <point x="375" y="56" type="curve"/>
    </contour>
    <contour>
      <point x="373" y="430"/>
      <point x="362" y="472"/>
      <point x="299" y="498" type="curve"/>
      <point x="289" y="492"/>
      <point x="238" y="466"/>
      <point x="231" y="410" type="curve"/>
      <point x="236" y="401"/>
      <point x="255" y="357"/>
      <point x="312" y="345" type="curve"/>
      <point x="360" y="367"/>
      <point x="373" y="412"/>
      <point x="376" y="421" type="curve"/>
    </contour>
  </outline>
</glyph>
<glyph name="Dcroat" format="1">
  <advance width="681"/>
  <unicode hex="0110"/>
  <outline>
    <contour>
      <point x="16" y="311" type="line"/>
      <point x="22" y="280" type="line"/>
      <point x="344" y="280" type="line"/>
      <point x="387" y="323" type="line"/>
      <point x="381" y="354" type="line"/>
      <point x="59" y="354" type="line"/>
    </contour>
    <component base="D"/>
  </outline>
</glyph>
<glyph name="dcroat" format="1">
  <advance width="565"/>
  <unicode hex="0111"/>
  <outline>
    <contour>
      <point x="563" y="571" type="line"/>
      <point x="557" y="602" type="line"/>
      <point x="264" y="602" type="line"/>
      <point x="221" y="574" type="line"/>
      <point x="227" y="543" type="line"/>
      <point x="520" y="543" type="line"/>
    </contour>
    <component base="d"/>
  </outline>
</glyph>
<glyph name="Imacron" format="1">
  <advance width="381"/>
  <unicode hex="012A"/>
  <outline>
    <contour>
      <point x="113" y="800"/>
      <point x="70" y="795"/>
      <point x="31" y="775" type="curve"/>
      <point x="37" y="721" type="line"/>
      <point x="305" y="721" type="line"/>
      <point x="352" y="759" type="line"/>
      <point x="347" y="800" type="line"/>
      <point x="144" y="800" type="line"/>
    </contour>
    <component base="I" xOffset="11"/>
  </outline>
</glyph>
<glyph name="imacron" format="1">
  <advance width="324"/>
  <unicode hex="012B"/>
  <outline>
    <contour>
      <point x="12" y="632" type="curve"/>
      <point x="18" y="578" type="line"/>
      <point x="261" y="578" type="line"/>
      <point x="308" y="616" type="line"/>
      <point x="303" y="657" type="line"/>
      <point x="125" y="657" type="line"/>
      <point x="94" y="657"/>
      <point x="51" y="651"/>
    </contour>
    <component base="dotlessi" xOffset="19"/>
  </outline>
</glyph>
<glyph name="dotlessi" format="1">
  <advance width="294"/>
  <unicode hex="0131"/>
  <outline>
    <contour>
      <point x="123" y="404" type="line"/>
      <point x="177" y="447" type="line"/>
      <point x="169" y="487" type="line"/>
      <point x="117" y="485"/>
      <point x="58" y="473"/>
      <point x="12" y="454" type="curve"/>
      <point x="22" y="406" type="line"/>
    </contour>
    <contour>
      <point x="97" y="0" type="line"/>
      <point x="214" y="0" type="line"/>
      <point x="214" y="447" type="line"/>
      <point x="169" y="487" type="line"/>
      <point x="97" y="445" type="line"/>
    </contour>
    <contour>
      <point x="272" y="0" type="line"/>
      <point x="276" y="48" type="line"/>
      <point x="249" y="64"/>
      <point x="207" y="74"/>
      <point x="170" y="79" type="curve"/>
      <point x="161" y="0" type="line"/>
    </contour>
    <contour>
      <point x="119" y="0" type="line"/>
      <point x="132" y="72" type="line"/>
      <point x="102" y="65"/>
      <point x="54" y="49"/>
      <point x="25" y="34" type="curve"/>
      <point x="29" y="0" type="line"/>
    </contour>
    <contour>
      <point x="277" y="10" type="move" name="ogonek"/>
    </contour>
    <contour>
      <point x="139" y="468" type="move" name="top"/>
    </contour>
  </outline>
</glyph>
<glyph name="Lslash" format="1">
  <advance width="588"/>
  <unicode hex="0141"/>
  <outline>
    <contour>
      <point x="28" y="264" type="line"/>
      <point x="60" y="205" type="line"/>
      <point x="389" y="382" type="line"/>
      <point x="401" y="435" type="line"/>
      <point x="384" y="458" type="line"/>
    </contour>
    <component base="L" xOffset="16"/>
  </outline>
</glyph>
<glyph name="OE" format="1">
  <advance width="915"/>
  <unicode hex="0152"/>
  <outline>
    <contour>
      <point x="337" y="-13" type="curve"/>
      <point x="401" y="-13"/>
      <point x="465" y="-3"/>
      <point x="517" y="36" type="curve"/>
      <point x="468" y="101" type="line"/>
      <point x="442" y="72"/>
      <point x="394" y="66"/>
      <point x="349" y="66" type="curve"/>
      <point x="207" y="66"/>
      <point x="145" y="196"/>
      <point x="145" y="330" type="curve"/>
      <point x="145" y="429"/>
      <point x="180" y="528"/>
      <point x="239" y="573" type="curve"/>
      <point x="269" y="584"/>
      <point x="303" y="589"/>
      <point x="338" y="589" type="curve"/>
      <point x="406" y="589"/>
      <point x="476" y="569"/>
      <point x="503" y="522" type="curve"/>
      <point x="525" y="628" type="line"/>
      <point x="475" y="655"/>
      <point x="415" y="669"/>
      <point x="356" y="669" type="curve"/>
      <point x="198" y="669"/>
      <point x="17" y="568"/>
      <point x="17" y="333" type="curve"/>
      <point x="17" y="90"/>
      <point x="179" y="-13"/>
    </contour>
    <contour>
      <point x="529" y="75" type="line"/>
      <point x="451" y="0" type="line"/>
      <point x="853" y="0" type="line"/>
      <point x="837" y="90" type="line"/>
    </contour>
    <contour>
      <point x="439" y="654" type="line"/>
      <point x="439" y="0" type="line"/>
      <point x="561" y="0" type="line"/>
      <point x="561" y="654" type="line"/>
    </contour>
    <contour>
      <point x="752" y="32" type="line"/>
      <point x="853" y="0" type="line"/>
      <point x="861" y="48"/>
      <point x="867" y="134"/>
      <point x="865" y="189" type="curve"/>
      <point x="797" y="194" type="line"/>
    </contour>
    <contour>
      <point x="537" y="293" type="line"/>
      <point x="777" y="283" type="line"/>
      <point x="777" y="377" type="line"/>
      <point x="537" y="358" type="line"/>
    </contour>
    <contour>
      <point x="528" y="582" type="line"/>
      <point x="836" y="567" type="line"/>
      <point x="856" y="654" type="line"/>
      <point x="453" y="654" type="line"/>
    </contour>
    <contour>
      <point x="752" y="618" type="line"/>
      <point x="774" y="477" type="line"/>
      <point x="843" y="477" type="line"/>
      <point x="855" y="540"/>
      <point x="859" y="618"/>
      <point x="856" y="654" type="curve"/>
    </contour>
  </outline>
</glyph>
<glyph name="oe" format="1">
  <advance width="808"/>
  <unicode hex="0153"/>
  <outline>
    <contour>
      <point x="289" y="55"/>
      <point x="276" y="53"/>
      <point x="263" y="53" type="curve" smooth="yes"/>
      <point x="176" y="53"/>
      <point x="139" y="144"/>
      <point x="139" y="245" type="curve" smooth="yes"/>
      <point x="139" y="304"/>
      <point x="150" y="363"/>
      <point x="180" y="400" type="curve"/>
      <point x="195" y="411"/>
      <point x="218" y="419"/>
      <point x="244" y="419" type="curve" smooth="yes"/>
      <point x="328" y="419"/>
      <point x="361" y="327"/>
      <point x="361" y="222" type="curve" smooth="yes"/>
      <point x="361" y="164"/>
      <point x="352" y="92"/>
      <point x="305" y="60" type="curve"/>
    </contour>
    <contour>
      <point x="439" y="388" type="line"/>
      <point x="398" y="455"/>
      <point x="329" y="492"/>
      <point x="251" y="492" type="curve" smooth="yes"/>
      <point x="127" y="492"/>
      <point x="17" y="400"/>
      <point x="17" y="238" type="curve" smooth="yes"/>
      <point x="17" y="78"/>
      <point x="126" y="-20"/>
      <point x="254" y="-20" type="curve" smooth="yes"/>
      <point x="329" y="-20"/>
      <point x="398" y="14"/>
      <point x="439" y="79" type="curve"/>
    </contour>
    <contour>
      <point x="388" y="113" type="line"/>
      <point x="430" y="39"/>
      <point x="504" y="-19"/>
      <point x="622" y="-14" type="curve"/>
      <point x="778" y="60" type="line"/>
      <point x="760" y="107" type="line"/>
      <point x="714" y="86"/>
      <point x="674" y="73"/>
      <point x="631" y="73" type="curve" smooth="yes"/>
      <point x="541" y="73"/>
      <point x="470" y="129"/>
      <point x="470" y="244" type="curve" smooth="yes"/>
      <point x="470" y="313"/>
      <point x="495" y="392"/>
      <point x="552" y="424" type="curve"/>
      <point x="631" y="427"/>
      <point x="688" y="357"/>
      <point x="678" y="276" type="curve"/>
      <point x="787" y="304" type="line"/>
      <point x="788" y="423"/>
      <point x="697" y="492"/>
      <point x="595" y="492" type="curve" smooth="yes"/>
      <point x="504" y="492"/>
      <point x="428" y="437"/>
      <point x="388" y="359" type="curve"/>
    </contour>
    <contour>
      <point x="453" y="252" type="line"/>
      <point x="729" y="248" type="line"/>
      <point x="787" y="304" type="line"/>
      <point x="752" y="326" type="line"/>
      <point x="449" y="310" type="line"/>
    </contour>
    <contour>
      <point x="786" y="43" type="move" name="ogonek"/>
    </contour>
    <contour>
      <point x="600" y="0" type="move" name="bottom"/>
    </contour>
    <contour>
      <point x="599" y="468" type="move" name="top"/>
    </contour>
  </outline>
</glyph>
<glyph name="gravecomb" format="1">
  <advance width="0"/>
  <unicode hex="0300"/>
  <outline>
    <contour>
      <point x="27" y="532" type="curve"/>
      <point x="91" y="583" type="line"/>
      <point x="-55" y="753" type="line"/>
      <point x="-140" y="681" type="line"/>
      <point x="-80" y="632"/>
      <point x="-29" y="585"/>
    </contour>
    <contour>
      <point x="0" y="470" type="move" name="_top"/>
    </contour>
  </outline>
</glyph>
<glyph name="tildecomb" format="1">
  <advance width="0"/>
  <unicode hex="0303"/>
  <outline>
    <contour>
      <point x="-149" y="553" type="line"/>
      <point x="-103" y="605"/>
      <point x="-79" y="627"/>
      <point x="-64" y="627" type="curve" smooth="yes"/>
      <point x="-33" y="627"/>
      <point x="49" y="544"/>
      <point x="92" y="544" type="curve" smooth="yes"/>
      <point x="128" y="544"/>
      <point x="167" y="599"/>
      <point x="210" y="677" type="curve"/>
      <point x="168" y="708" type="line"/>
      <point x="92" y="629" type="line"/>
      <point x="36" y="670"/>
      <point x="-35" y="717"/>
      <point x="-60" y="717" type="curve"/>
      <point x="-101" y="717"/>
      <point x="-136" y="675"/>
      <point x="-192" y="587" type="curve"/>
    </contour>
    <contour>
      <point x="0" y="470" type="move" name="_top"/>
    </contour>
  </outline>
</glyph>
<glyph name="dotaccentcomb" format="1">
  <advance width="0"/>
  <unicode hex="0307"/>
  <outline>
    <contour>
      <point x="65" y="654"/>
      <point x="32" y="684"/>
      <point x="-4" y="698" type="curve"/>
      <point x="-37" y="681"/>
      <point x="-64" y="652"/>
      <point x="-69" y="612" type="curve"/>
      <point x="-54" y="580"/>
      <point x="-28" y="560"/>
      <point x="9" y="550" type="curve"/>
      <point x="40" y="566"/>
      <point x="61" y="591"/>
      <point x="70" y="624" type="curve"/>
    </contour>
    <contour>
      <point x="0" y="470" type="move" name="_top"/>
    </contour>
  </outline>
</glyph>
<glyph name="dieresiscomb" format="1">
  <advance width="0"/>
  <unicode hex="0308"/>
  <outline>
    <contour>
      <point x="-47" y="658"/>
      <point x="-77" y="684"/>
      <point x="-113" y="698" type="curve"/>
      <point x="-146" y="681"/>
      <point x="-173" y="652"/>
      <point x="-177" y="612" type="curve"/>
      <point x="-162" y="581"/>
      <point x="-138" y="561"/>
      <point x="-101" y="550" type="curve"/>
      <point x="-69" y="565"/>
      <point x="-49" y="590"/>
      <point x="-39" y="624" type="curve"/>
    </contour>
    <contour>
      <point x="170" y="658"/>
      <point x="139" y="684"/>
      <point x="104" y="698" type="curve"/>
      <point x="71" y="681"/>
      <point x="44" y="652"/>
      <point x="39" y="612" type="curve"/>
      <point x="54" y="581"/>
      <point x="79" y="561"/>
      <point x="115" y="550" type="curve"/>
      <point x="148" y="565"/>
      <point x="168" y="590"/>
      <point x="178" y="624" type="curve"/>
    </contour>
    <contour>
      <point x="0" y="470" type="move" name="_top"/>
    </contour>
  </outline>
</glyph>
<glyph name="ringcomb" format="1">
  <advance width="0"/>
  <unicode hex="030A"/>
  <outline>
    <contour>
      <point x="4" y="711" type="curve"/>
      <point x="68" y="711"/>
      <point x="114" y="756"/>
      <point x="114" y="821" type="curve"/>
      <point x="114" y="888"/>
      <point x="64" y="937"/>
      <point x="0" y="937" type="curve"/>
      <point x="-65" y="937"/>
      <point x="-113" y="887"/>
      <point x="-113" y="823" type="curve"/>
      <point x="-113" y="755"/>
      <point x="-60" y="711"/>
    </contour>
    <contour>
      <point x="2" y="754" type="curve"/>
      <point x="-30" y="754"/>
      <point x="-58" y="777"/>
      <point x="-58" y="811" type="curve"/>
      <point x="-58" y="844"/>
      <point x="-33" y="869"/>
      <point x="1" y="869" type="curve"/>
      <point x="33" y="869"/>
      <point x="58" y="845"/>
      <point x="58" y="810" type="curve"/>
      <point x="58" y="777"/>
      <point x="35" y="754"/>
    </contour>
    <contour>
      <point x="0" y="650" type="move" name="_top"/>
    </contour>
  </outline>
</glyph>
<glyph name="hungarumlautcomb" format="1">
  <advance width="0"/>
  <unicode hex="030B"/>
  <outline>
    <contour>
      <point x="-93" y="533" type="line"/>
      <point x="-41" y="589"/>
      <point x="14" y="647"/>
      <point x="69" y="699" type="curve"/>
      <point x="-24" y="753" type="line"/>
      <point x="-156" y="577" type="line"/>
    </contour>
    <contour>
      <point x="98" y="533" type="line"/>
      <point x="150" y="589"/>
      <point x="205" y="647"/>
      <point x="260" y="699" type="curve"/>
      <point x="167" y="753" type="line"/>
      <point x="35" y="577" type="line"/>
    </contour>
    <contour>
      <point x="0" y="470" type="move" name="_top"/>
    </contour>
  </outline>
</glyph>
<glyph name="caroncomb" format="1">
  <advance width="0"/>
  <unicode hex="030C"/>
  <outline>
    <contour>
      <point x="-188" y="688" type="line"/>
      <point x="-50" y="541" type="line"/>
      <point x="46" y="543" type="line"/>
      <point x="170" y="705" type="line"/>
      <point x="111" y="754" type="line"/>
      <point x="1" y="616" type="line"/>
      <point x="-116" y="753" type="line"/>
    </contour>
    <contour>
      <point x="0" y="470" type="move" name="_top"/>
    </contour>
  </outline>
</glyph>
<glyph name="macronbelowcomb" format="1">
  <advance width="0"/>
  <unicode hex="0331"/>
  <outline>
    <contour>
      <point x="-101" y="-149"/>
      <point x="-144" y="-155"/>
      <point x="-183" y="-174" type="curve"/>
      <point x="-177" y="-228" type="line"/>
      <point x="132" y="-228" type="line"/>
      <point x="179" y="-190" type="line"/>
      <point x="174" y="-149" type="line"/>
      <point x="-70" y="-149" type="line"/>
    </contour>
    <contour>
      <point x="0" y="0" type="move" name="_bottom"/>
    </contour>
  </outline>
</glyph>
<glyph name="numeralsign" format="1">
  <advance width="265"/>
  <unicode hex="0374"/>
  <outline>
    <contour>
      <point x="48" y="538" type="line"/>
      <point x="106" y="516" type="line"/>
      <point x="216" y="715" type="line"/>
      <point x="215" y="738" type="line"/>
      <point x="191" y="759"/>
      <point x="149" y="776"/>
      <point x="109" y="775" type="curve"/>
    </contour>
  </outline>
</glyph>
<glyph name="Gamma" format="1">
  <advance width="542"/>
  <unicode hex="0393"/>
  <outline>
    <contour>
      <point x="113" y="654" type="line"/>
      <point x="113" y="0" type="line"/>
      <point x="235" y="0" type="line"/>
      <point x="235" y="654" type="line"/>
    </contour>
    <contour>
      <point x="28" y="32" type="curve"/>
      <point x="34" y="0" type="line"/>
      <point x="128" y="0" type="line"/>
      <point x="127" y="73" type="line"/>
      <point x="93" y="61"/>
      <point x="58" y="48"/>
    </contour>
    <contour>
      <point x="216" y="67" type="line"/>
      <point x="213" y="0" type="line"/>
      <point x="353" y="0" type="line"/>
      <point x="354" y="49" type="line"/>
    </contour>
    <contour>
      <point x="41" y="604" type="line"/>
      <point x="145" y="594" type="line"/>
      <point x="144" y="654" type="line"/>
      <point x="42" y="654" type="line"/>
    </contour>
    <contour>
      <point x="207" y="588" type="line"/>
      <point x="510" y="567" type="line"/>
      <point x="526" y="654" type="line"/>
      <point x="132" y="654" type="line"/>
    </contour>
    <contour>
      <point x="424" y="618" type="line"/>
      <point x="444" y="470" type="line"/>
      <point x="513" y="470" type="line"/>
      <point x="526" y="536"/>
      <point x="528" y="616"/>
      <point x="526" y="654" type="curve"/>
    </contour>
  </outline>
</glyph>
<glyph name="Delta" format="1">
  <advance width="645"/>
  <unicode hex="0394"/>
  <outline>
    <contour>
      <point x="27" y="70" type="line"/>
      <point x="51" y="0" type="line"/>
      <point x="581" y="0" type="line"/>
      <point x="610" y="77" type="line"/>
      <point x="359" y="678" type="line"/>
      <point x="254" y="647" type="line"/>
      <point x="491" y="52" type="line"/>
      <point x="516" y="90" type="line"/>
      <point x="97" y="87" type="line"/>
      <point x="122" y="69" type="line"/>
      <point x="340" y="616" type="line"/>
      <point x="271" y="639" type="line"/>
    </contour>
  </outline>
</glyph>
<glyph name="Eta" format="1">
  <advance width="777"/>
  <unicode hex="0397"/>
  <outline>
    <component base="H"/>
    <contour>
      <point x="390" y="0" type="move" name="bottom"/>
    </contour>
    <contour>
      <point x="-83" y="343" type="move" name="left"/>
    </contour>
  </outline>
</glyph>
<glyph name="Iota" format="1">
  <advance width="358"/>
  <unicode hex="0399"/>
  <outline>
    <component base="I"/>
    <contour>
      <point x="-83" y="343" type="move" name="left"/>
    </contour>
    <contour>
      <point x="178" y="650" type="move" name="top"/>
    </contour>
  </outline>
</glyph>
<glyph name="Lamda" format="1">
  <advance width="707"/>
  <unicode hex="039B"/>
  <outline>
    <contour>
      <point x="281" y="647" type="line"/>
      <point x="532" y="0" type="line"/>
      <point x="663" y="0" type="line"/>
      <point x="386" y="678" type="line"/>
    </contour>
    <contour>
      <point x="-20" y="32" type="curve"/>
      <point x="-14" y="0" type="line"/>
      <point x="80" y="0" type="line"/>
      <point x="79" y="73" type="line"/>
      <point x="45" y="61"/>
      <point x="10" y="48"/>
    </contour>
    <contour>
      <point x="114" y="67" type="line"/>
      <point x="111" y="0" type="line"/>
      <point x="251" y="0" type="line"/>
      <point x="252" y="49" type="line"/>
    </contour>
    <contour>
      <point x="413" y="32" type="curve"/>
      <point x="419" y="0" type="line"/>
      <point x="554" y="0" type="line"/>
      <point x="512" y="73" type="line"/>
      <point x="478" y="61"/>
      <point x="442" y="48"/>
    </contour>
    <contour>
      <point x="298" y="639" type="line"/>
      <point x="35" y="0" type="line"/>
      <point x="130" y="0" type="line"/>
      <point x="368" y="616" type="line"/>
    </contour>
    <contour>
      <point x="573" y="67" type="line"/>
      <point x="570" y="0" type="line"/>
      <point x="710" y="0" type="line"/>
      <point x="711" y="49" type="line"/>
    </contour>
  </outline>
</glyph>
<glyph name="Pi" format="1">
  <advance width="769"/>
  <unicode hex="03A0"/>
  <outline>
    <contour>
      <point x="524" y="654" type="line"/>
      <point x="524" y="0" type="line"/>
      <point x="646" y="0" type="line"/>
      <point x="646" y="654" type="line"/>
    </contour>
    <contour>
      <point x="28" y="32" type="curve"/>
      <point x="34" y="0" type="line"/>
      <point x="128" y="0" type="line"/>
      <point x="127" y="73" type="line"/>
      <point x="93" y="61"/>
      <point x="58" y="48"/>
    </contour>
    <contour>
      <point x="192" y="67" type="line"/>
      <point x="189" y="0" type="line"/>
      <point x="329" y="0" type="line"/>
      <point x="330" y="49" type="line"/>
    </contour>
    <contour>
      <point x="113" y="654" type="line"/>
      <point x="113" y="0" type="line"/>
      <point x="235" y="0" type="line"/>
      <point x="235" y="654" type="line"/>
    </contour>
    <contour>
      <point x="439" y="32" type="curve"/>
      <point x="445" y="0" type="line"/>
      <point x="539" y="0" type="line"/>
      <point x="538" y="73" type="line"/>
      <point x="504" y="61"/>
      <point x="468" y="48"/>
    </contour>
    <contour>
      <point x="603" y="67" type="line"/>
      <point x="600" y="0" type="line"/>
      <point x="740" y="0" type="line"/>
      <point x="741" y="49" type="line"/>
    </contour>
    <contour>
      <point x="36" y="605" type="line"/>
      <point x="174" y="587" type="line"/>
      <point x="177" y="654" type="line"/>
      <point x="37" y="654" type="line"/>
    </contour>
    <contour>
      <point x="190" y="654" type="line"/>
      <point x="190" y="579" type="line"/>
      <point x="540" y="579" type="line"/>
      <point x="540" y="654" type="line"/>
    </contour>
    <contour>
      <point x="631" y="654" type="line"/>
      <point x="632" y="581" type="line"/>
      <point x="666" y="593"/>
      <point x="702" y="606"/>
      <point x="731" y="622" type="curve"/>
      <point x="725" y="654" type="line"/>
    </contour>
  </outline>
</glyph>
<glyph name="Sigma" format="1">
  <advance width="602"/>
  <unicode hex="03A3"/>
  <outline>
    <contour>
      <point x="34" y="53" type="line"/>
      <point x="55" y="0" type="line"/>
      <point x="536" y="0" type="line"/>
      <point x="495" y="92" type="line"/>
      <point x="120" y="88" type="line"/>
      <point x="127" y="36" type="line"/>
      <point x="368" y="347" type="line"/>
      <point x="173" y="615" type="line"/>
      <point x="138" y="587" type="line"/>
      <point x="516" y="568" type="line"/>
      <point x="539" y="654" type="line"/>
      <point x="69" y="654" type="line"/>
      <point x="41" y="599" type="line"/>
      <point x="261" y="300" type="line"/>
      <point x="259" y="342" type="line"/>
    </contour>
    <contour>
      <point x="435" y="32" type="line"/>
      <point x="536" y="0" type="line"/>
      <point x="545" y="48"/>
      <point x="555" y="149"/>
      <point x="553" y="205" type="curve"/>
      <point x="484" y="210" type="line"/>
    </contour>
    <contour>
      <point x="435" y="618" type="line"/>
      <point x="457" y="477" type="line"/>
      <point x="526" y="477" type="line"/>
      <point x="538" y="540"/>
      <point x="541" y="618"/>
      <point x="539" y="654" type="curve"/>
    </contour>
  </outline>
</glyph>
<glyph name="Phi" format="1">
  <advance width="719"/>
  <unicode hex="03A6"/>
  <outline>
    <contour>
      <point x="390" y="154" type="curve"/>
      <point x="378" y="92" type="line"/>
      <point x="576" y="92"/>
      <point x="702" y="189"/>
      <point x="702" y="339" type="curve"/>
      <point x="702" y="481"/>
      <point x="582" y="568"/>
      <point x="388" y="568" type="curve"/>
      <point x="374" y="507" type="line"/>
      <point x="499" y="507"/>
      <point x="575" y="438"/>
      <point x="575" y="326" type="curve"/>
      <point x="575" y="265"/>
      <point x="555" y="213"/>
      <point x="520" y="180" type="curve"/>
      <point x="489" y="163"/>
      <point x="441" y="154"/>
    </contour>
    <contour>
      <point x="214" y="21" type="curve"/>
      <point x="220" y="-11" type="line"/>
      <point x="314" y="-11" type="line"/>
      <point x="313" y="62" type="line"/>
      <point x="266" y="46"/>
      <point x="238" y="34"/>
    </contour>
    <contour>
      <point x="377" y="56" type="line"/>
      <point x="374" y="-11" type="line"/>
      <point x="514" y="-11" type="line"/>
      <point x="515" y="38" type="line"/>
    </contour>
    <contour>
      <point x="331" y="92" type="curve"/>
      <point x="345" y="154" type="line"/>
      <point x="220" y="154"/>
      <point x="144" y="222"/>
      <point x="144" y="335" type="curve"/>
      <point x="144" y="396"/>
      <point x="164" y="448"/>
      <point x="199" y="481" type="curve"/>
      <point x="229" y="497"/>
      <point x="278" y="507"/>
      <point x="329" y="507" type="curve"/>
      <point x="341" y="568" type="line"/>
      <point x="143" y="568"/>
      <point x="17" y="472"/>
      <point x="17" y="321" type="curve"/>
      <point x="17" y="180"/>
      <point x="137" y="92"/>
    </contour>
    <contour>
      <point x="303" y="667" type="line"/>
      <point x="303" y="-11" type="line"/>
      <point x="416" y="-11" type="line"/>
      <point x="416" y="667" type="line"/>
    </contour>
    <contour>
      <point x="222" y="618" type="line"/>
      <point x="360" y="600" type="line"/>
      <point x="363" y="667" type="line"/>
      <point x="223" y="667" type="line"/>
    </contour>
    <contour>
      <point x="405" y="667" type="line"/>
      <point x="406" y="594" type="line"/>
      <point x="453" y="610"/>
      <point x="481" y="622"/>
      <point x="505" y="635" type="curve"/>
      <point x="499" y="667" type="line"/>
    </contour>
  </outline>
</glyph>
<glyph name="Omega" format="1">
  <advance width="790"/>
  <unicode hex="03A9"/>
  <outline>
    <contour>
      <point x="43" y="90" type="line"/>
      <point x="30" y="0" type="line"/>
      <point x="335" y="0" type="line"/>
      <point x="356" y="64" type="line"/>
      <point x="257" y="154"/>
      <point x="214" y="252"/>
      <point x="214" y="378" type="curve"/>
      <point x="214" y="466"/>
      <point x="244" y="542"/>
      <point x="292" y="580" type="curve"/>
      <point x="319" y="590"/>
      <point x="346" y="596"/>
      <point x="375" y="596" type="curve"/>
      <point x="493" y="596"/>
      <point x="574" y="497"/>
      <point x="574" y="351" type="curve"/>
      <point x="574" y="238"/>
      <point x="532" y="152"/>
      <point x="438" y="64" type="curve"/>
      <point x="459" y="0" type="line"/>
      <point x="764" y="0" type="line"/>
      <point x="751" y="90" type="line"/>
      <point x="505" y="74" type="line"/>
      <point x="509" y="56" type="line"/>
      <point x="625" y="124"/>
      <point x="706" y="249"/>
      <point x="706" y="372" type="curve"/>
      <point x="706" y="542"/>
      <point x="572" y="674"/>
      <point x="395" y="674" type="curve"/>
      <point x="217" y="674"/>
      <point x="82" y="541"/>
      <point x="82" y="366" type="curve"/>
      <point x="82" y="231"/>
      <point x="163" y="114"/>
      <point x="295" y="57" type="curve"/>
      <point x="292" y="74" type="line"/>
    </contour>
    <contour>
      <point x="30" y="0" type="curve"/>
      <point x="123" y="32" type="line"/>
      <point x="79" y="194" type="line"/>
      <point x="18" y="189" type="line"/>
      <point x="16" y="141"/>
      <point x="21" y="56"/>
    </contour>
    <contour>
      <point x="671" y="32" type="line"/>
      <point x="765" y="0" type="line"/>
      <point x="773" y="56"/>
      <point x="779" y="141"/>
      <point x="777" y="189" type="curve"/>
      <point x="716" y="194" type="line"/>
    </contour>
    <contour>
      <point x="399" y="0" type="move" name="bottom"/>
    </contour>
    <contour>
      <point x="8" y="343" type="move" name="left"/>
    </contour>
  </outline>
</glyph>
<glyph name="alpha" format="1">
  <advance width="559"/>
  <unicode hex="03B1"/>
  <outline>
    <contour>
      <point x="202" y="-14" type="curve"/>
      <point x="268" y="-14"/>
      <point x="324" y="37"/>
      <point x="374" y="141" type="curve"/>
      <point x="330" y="123" type="line"/>
      <point x="395" y="123" type="line"/>
      <point x="364" y="154" type="line"/>
      <point x="366" y="57"/>
      <point x="405" y="-14"/>
      <point x="459" y="-14" type="curve"/>
      <point x="496" y="-14"/>
      <point x="543" y="30"/>
      <point x="559" y="80" type="curve"/>
      <point x="544" y="111" type="line"/>
      <point x="404" y="96" type="line"/>
      <point x="424" y="67" type="line"/>
      <point x="501" y="461" type="line"/>
      <point x="483" y="481"/>
      <point x="444" y="496"/>
      <point x="406" y="498" type="curve"/>
      <point x="377" y="479" type="line"/>
      <point x="364" y="364" type="line"/>
      <point x="367" y="346" type="line"/>
      <point x="359" y="294" type="line" smooth="yes"/>
      <point x="341" y="181"/>
      <point x="275" y="106"/>
      <point x="192" y="106" type="curve"/>
      <point x="161" y="106"/>
      <point x="134" y="113"/>
      <point x="112" y="126" type="curve"/>
      <point x="104" y="143"/>
      <point x="101" y="169"/>
      <point x="101" y="199" type="curve"/>
      <point x="101" y="306"/>
      <point x="160" y="374"/>
      <point x="251" y="374" type="curve"/>
      <point x="303" y="374"/>
      <point x="355" y="350"/>
      <point x="391" y="311" type="curve"/>
      <point x="377" y="355" type="line"/>
      <point x="355" y="437"/>
      <point x="291" y="492"/>
      <point x="218" y="492" type="curve"/>
      <point x="112" y="492"/>
      <point x="28" y="378"/>
      <point x="28" y="234" type="curve"/>
      <point x="28" y="95"/>
      <point x="104" y="-14"/>
    </contour>
    <contour>
      <point x="239" y="0" type="move" name="bottom"/>
    </contour>
    <contour>
      <point x="291" y="470" type="move" name="top"/>
    </contour>
  </outline>
</glyph>
<glyph name="gamma" format="1">
  <advance width="507"/>
  <unicode hex="03B3"/>
  <outline>
    <contour>
      <point x="168" y="-204" type="line"/>
      <point x="203" y="-224" type="line"/>
      <point x="245" y="-224"/>
      <point x="278" y="-219"/>
      <point x="309" y="-208" type="curve"/>
      <point x="280" y="9" type="line"/>
      <point x="267" y="-21" type="line"/>
      <point x="384" y="72"/>
      <point x="482" y="260"/>
      <point x="482" y="387" type="curve"/>
      <point x="482" y="421"/>
      <point x="481" y="439"/>
      <point x="477" y="458" type="curve"/>
      <point x="452" y="475"/>
      <point x="415" y="485"/>
      <point x="368" y="487" type="curve"/>
      <point x="351" y="459" type="line"/>
      <point x="357" y="429"/>
      <point x="360" y="398"/>
      <point x="360" y="358" type="curve"/>
      <point x="360" y="228"/>
      <point x="296" y="87"/>
      <point x="215" y="38" type="curve"/>
      <point x="234" y="39" type="line"/>
      <point x="256" y="168" type="line"/>
      <point x="230" y="377"/>
      <point x="177" y="487"/>
      <point x="101" y="487" type="curve"/>
      <point x="61" y="487"/>
      <point x="16" y="452"/>
      <point x="-11" y="401" type="curve"/>
      <point x="5" y="364" type="line"/>
      <point x="91" y="371" type="line"/>
      <point x="117" y="321"/>
      <point x="137" y="262"/>
      <point x="163" y="162" type="curve"/>
      <point x="210" y="-23" type="line"/>
      <point x="207" y="33" type="line"/>
    </contour>
    <contour>
      <point x="195" y="55" type="line"/>
      <point x="214" y="20" type="line"/>
      <point x="270" y="42" type="line"/>
      <point x="210" y="73" type="line"/>
    </contour>
  </outline>
</glyph>
<glyph name="epsilon" format="1">
  <advance width="459"/>
  <unicode hex="03B5"/>
  <outline>
    <contour>
      <point x="236" y="-14" type="curve"/>
      <point x="314" y="-14"/>
      <point x="405" y="28"/>
      <point x="451" y="86" type="curve"/>
      <point x="433" y="125" type="line"/>
      <point x="366" y="100"/>
      <point x="304" y="88"/>
      <point x="236" y="88" type="curve"/>
      <point x="170" y="88"/>
      <point x="110" y="110"/>
      <point x="93" y="139" type="curve"/>
      <point x="109" y="170"/>
      <point x="155" y="197"/>
      <point x="196" y="200" type="curve"/>
      <point x="332" y="181" type="line"/>
      <point x="340" y="209"/>
      <point x="343" y="254"/>
      <point x="337" y="278" type="curve"/>
      <point x="316" y="294" type="line"/>
      <point x="176" y="263" type="line"/>
      <point x="172" y="253" type="line"/>
      <point x="93" y="238"/>
      <point x="34" y="187"/>
      <point x="34" y="133" type="curve"/>
      <point x="34" y="45"/>
      <point x="116" y="-14"/>
    </contour>
    <contour>
      <point x="171" y="234" type="curve"/>
      <point x="236" y="228" type="line"/>
      <point x="222" y="261" type="line"/>
      <point x="166" y="264"/>
      <point x="117" y="293"/>
      <point x="108" y="327" type="curve"/>
      <point x="124" y="363"/>
      <point x="178" y="385"/>
      <point x="251" y="385" type="curve"/>
      <point x="308" y="385"/>
      <point x="352" y="375"/>
      <point x="404" y="352" type="curve"/>
      <point x="427" y="367" type="line"/>
      <point x="431" y="397"/>
      <point x="428" y="439"/>
      <point x="421" y="463" type="curve"/>
      <point x="395" y="480"/>
      <point x="329" y="492"/>
      <point x="261" y="492" type="curve"/>
      <point x="131" y="492"/>
      <point x="40" y="433"/>
      <point x="40" y="347" type="curve"/>
      <point x="40" y="284"/>
      <point x="90" y="242"/>
    </contour>
    <contour>
      <point x="259" y="470" type="move" name="top"/>
    </contour>
  </outline>
</glyph>
<glyph name="zeta" format="1">
  <advance width="385"/>
  <unicode hex="03B6"/>
  <outline>
    <contour>
      <point x="229" y="-141" type="line"/>
      <point x="271" y="-177" type="line"/>
      <point x="356" y="-110"/>
      <point x="389" y="-62"/>
      <point x="389" y="-11" type="curve"/>
      <point x="389" y="33"/>
      <point x="373" y="62"/>
      <point x="337" y="85" type="curve"/>
      <point x="318" y="96"/>
      <point x="293" y="106"/>
      <point x="224" y="130" type="curve"/>
      <point x="133" y="163"/>
      <point x="110" y="172"/>
      <point x="95" y="186" type="curve"/>
      <point x="106" y="338"/>
      <point x="246" y="509"/>
      <point x="411" y="570" type="curve"/>
      <point x="421" y="601" type="line"/>
      <point x="411" y="635"/>
      <point x="385" y="672"/>
      <point x="360" y="689" type="curve"/>
      <point x="193" y="627"/>
      <point x="33" y="404"/>
      <point x="33" y="236" type="curve"/>
      <point x="33" y="178"/>
      <point x="44" y="136"/>
      <point x="66" y="101" type="curve"/>
      <point x="92" y="61"/>
      <point x="134" y="32"/>
      <point x="201" y="8" type="curve"/>
      <point x="264" y="-14"/>
      <point x="302" y="-31"/>
      <point x="346" y="-54" type="curve"/>
      <point x="336" y="-19" type="line"/>
    </contour>
    <contour>
      <point x="201" y="591" type="curve"/>
      <point x="211" y="578" type="line"/>
      <point x="284" y="633" type="line"/>
      <point x="215" y="633"/>
      <point x="166" y="638"/>
      <point x="138" y="649" type="curve"/>
      <point x="74" y="736" type="line"/>
      <point x="28" y="719" type="line"/>
      <point x="7" y="592"/>
      <point x="56" y="556"/>
    </contour>
  </outline>
</glyph>
<glyph name="kappa" format="1">
  <advance width="514"/>
  <unicode hex="03BA"/>
  <outline>
    <contour>
      <point x="163" y="-10" type="curve"/>
      <point x="201" y="93"/>
      <point x="248" y="183"/>
      <point x="290" y="231" type="curve"/>
      <point x="338" y="286"/>
      <point x="398" y="332"/>
      <point x="473" y="373" type="curve"/>
      <point x="487" y="401" type="line"/>
      <point x="477" y="440"/>
      <point x="457" y="476"/>
      <point x="438" y="489" type="curve"/>
      <point x="366" y="456"/>
      <point x="300" y="400"/>
      <point x="245" y="323" type="curve"/>
      <point x="201" y="262"/>
      <point x="159" y="173"/>
      <point x="118" y="57" type="curve"/>
      <point x="126" y="53" type="line"/>
      <point x="179" y="467" type="line"/>
      <point x="152" y="486" type="line"/>
      <point x="102" y="485"/>
      <point x="62" y="476"/>
      <point x="38" y="460" type="curve"/>
      <point x="60" y="291" type="line"/>
      <point x="67" y="2" type="line"/>
      <point x="86" y="-9"/>
      <point x="130" y="-15"/>
    </contour>
    <contour>
      <point x="403" y="-15" type="curve"/>
      <point x="443" y="-15"/>
      <point x="487" y="26"/>
      <point x="501" y="76" type="curve"/>
      <point x="486" y="110" type="line"/>
      <point x="344" y="95" type="line"/>
      <point x="386" y="78" type="line"/>
      <point x="357" y="139"/>
      <point x="330" y="220"/>
      <point x="314" y="291" type="curve"/>
      <point x="237" y="239" type="line"/>
      <point x="323" y="63" type="line" smooth="yes"/>
      <point x="350" y="8"/>
      <point x="373" y="-15"/>
    </contour>
  </outline>
</glyph>
<glyph name="lamda" format="1">
  <advance width="523"/>
  <unicode hex="03BB"/>
  <outline>
    <contour>
      <point x="449" y="-14" type="curve"/>
      <point x="487" y="-14"/>
      <point x="527" y="24"/>
      <point x="546" y="77" type="curve"/>
      <point x="531" y="111" type="line"/>
      <point x="389" y="96" type="line"/>
      <point x="431" y="67" type="line"/>
      <point x="311" y="505" type="line" smooth="yes"/>
      <point x="265" y="674"/>
      <point x="211" y="735"/>
      <point x="109" y="735" type="curve"/>
      <point x="84" y="735"/>
      <point x="51" y="730"/>
      <point x="23" y="721" type="curve"/>
      <point x="24" y="688"/>
      <point x="34" y="641"/>
      <point x="47" y="615" type="curve"/>
      <point x="67" y="600" type="line"/>
      <point x="183" y="639" type="line"/>
      <point x="132" y="671" type="line"/>
      <point x="156" y="637"/>
      <point x="164" y="619"/>
      <point x="181" y="565" type="curve"/>
      <point x="201" y="506"/>
      <point x="217" y="450"/>
      <point x="232" y="413" type="curve"/>
      <point x="353" y="99" type="line" smooth="yes"/>
      <point x="385" y="15"/>
      <point x="410" y="-14"/>
    </contour>
    <contour>
      <point x="101" y="-14" type="curve"/>
      <point x="128" y="6" type="line"/>
      <point x="265" y="419" type="line"/>
      <point x="223" y="483" type="line"/>
      <point x="12" y="41" type="line"/>
      <point x="25" y="15"/>
      <point x="67" y="-11"/>
    </contour>
  </outline>
</glyph>
<glyph name="mu" format="1">
  <advance width="552"/>
  <unicode hex="03BC"/>
  <outline>
    <contour>
      <point x="54" y="-209" type="line"/>
      <point x="84" y="-224" type="line"/>
      <point x="126" y="-223"/>
      <point x="175" y="-213"/>
      <point x="193" y="-201" type="curve"/>
      <point x="138" y="55" type="line"/>
      <point x="132" y="115" type="line"/>
      <point x="157" y="201" type="line"/>
      <point x="186" y="468" type="line"/>
      <point x="158" y="487" type="line"/>
      <point x="115" y="486"/>
      <point x="70" y="476"/>
      <point x="40" y="462" type="curve"/>
      <point x="90" y="16" type="line"/>
      <point x="82" y="181" type="line"/>
    </contour>
    <contour>
      <point x="251" y="-20" type="curve"/>
      <point x="294" y="-20"/>
      <point x="341" y="16"/>
      <point x="371" y="73" type="curve"/>
      <point x="365" y="137" type="line"/>
      <point x="344" y="113"/>
      <point x="295" y="95"/>
      <point x="247" y="95" type="curve"/>
      <point x="203" y="95"/>
      <point x="144" y="114"/>
      <point x="122" y="135" type="curve"/>
      <point x="118" y="76" type="line"/>
      <point x="140" y="23"/>
      <point x="199" y="-20"/>
    </contour>
    <contour>
      <point x="447" y="-14" type="curve"/>
      <point x="483" y="-14"/>
      <point x="522" y="22"/>
      <point x="543" y="76" type="curve"/>
      <point x="530" y="111" type="line"/>
      <point x="383" y="95" type="line"/>
      <point x="411" y="70" type="line"/>
      <point x="485" y="468" type="line"/>
      <point x="457" y="488" type="line"/>
      <point x="411" y="487"/>
      <point x="368" y="478"/>
      <point x="339" y="462" type="curve"/>
      <point x="357" y="118" type="line"/>
      <point x="355" y="94" type="line"/>
      <point x="364" y="36"/>
      <point x="403" y="-14"/>
    </contour>
  </outline>
</glyph>
<glyph name="nu" format="1">
  <advance width="507"/>
  <unicode hex="03BD"/>
  <outline>
    <contour>
      <point x="278" y="-14" type="curve"/>
      <point x="403" y="93"/>
      <point x="482" y="252"/>
      <point x="482" y="394" type="curve"/>
      <point x="482" y="414"/>
      <point x="480" y="435"/>
      <point x="477" y="458" type="curve"/>
      <point x="452" y="475"/>
      <point x="415" y="485"/>
      <point x="368" y="487" type="curve"/>
      <point x="351" y="459" type="line"/>
      <point x="357" y="427"/>
      <point x="360" y="397"/>
      <point x="360" y="363" type="curve"/>
      <point x="360" y="224"/>
      <point x="307" y="103"/>
      <point x="224" y="47" type="curve"/>
      <point x="233" y="24" type="line"/>
      <point x="256" y="155" type="line"/>
      <point x="226" y="387"/>
      <point x="179" y="487"/>
      <point x="101" y="487" type="curve"/>
      <point x="61" y="487"/>
      <point x="16" y="452"/>
      <point x="-11" y="401" type="curve"/>
      <point x="5" y="364" type="line"/>
      <point x="91" y="371" type="line"/>
      <point x="112" y="326"/>
      <point x="132" y="264"/>
      <point x="151" y="190" type="curve"/>
      <point x="200" y="3" type="line"/>
      <point x="217" y="-9"/>
      <point x="251" y="-16"/>
    </contour>
    <contour>
      <point x="199" y="45" type="line"/>
      <point x="218" y="10" type="line"/>
      <point x="279" y="44" type="line"/>
      <point x="219" y="75" type="line"/>
    </contour>
  </outline>
</glyph>
<glyph name="xi" format="1">
  <advance width="408"/>
  <unicode hex="03BE"/>
  <outline>
    <contour>
      <point x="237" y="-141" type="line"/>
      <point x="280" y="-177" type="line"/>
      <point x="363" y="-112"/>
      <point x="397" y="-63"/>
      <point x="397" y="-11" type="curve"/>
      <point x="397" y="32"/>
      <point x="382" y="64"/>
      <point x="346" y="85" type="curve"/>
      <point x="320" y="101"/>
      <point x="287" y="113"/>
      <point x="231" y="130" type="curve"/>
      <point x="125" y="162"/>
      <point x="101" y="171"/>
      <point x="88" y="181" type="curve"/>
      <point x="104" y="228"/>
      <point x="188" y="275"/>
      <point x="262" y="281" type="curve"/>
      <point x="179" y="330" type="line"/>
      <point x="83" y="301"/>
      <point x="32" y="239"/>
      <point x="32" y="185" type="curve"/>
      <point x="32" y="153"/>
      <point x="43" y="119"/>
      <point x="62" y="94" type="curve"/>
      <point x="85" y="61"/>
      <point x="123" y="40"/>
      <point x="210" y="8" type="curve"/>
      <point x="257" y="-7"/>
      <point x="298" y="-24"/>
      <point x="351" y="-51" type="curve"/>
      <point x="342" y="-21" type="line"/>
    </contour>
    <contour>
      <point x="206" y="282" type="line"/>
      <point x="362" y="261" type="line"/>
      <point x="372" y="299"/>
      <point x="376" y="341"/>
      <point x="372" y="369" type="curve"/>
      <point x="346" y="387" type="line"/>
      <point x="183" y="352" type="line"/>
      <point x="177" y="314" type="line"/>
    </contour>
    <contour>
      <point x="205" y="313" type="curve"/>
      <point x="277" y="347" type="line"/>
      <point x="201" y="355"/>
      <point x="135" y="392"/>
      <point x="126" y="428" type="curve"/>
      <point x="153" y="479"/>
      <point x="277" y="544"/>
      <point x="407" y="571" type="curve"/>
      <point x="417" y="601" type="line"/>
      <point x="408" y="632"/>
      <point x="386" y="666"/>
      <point x="360" y="689" type="curve"/>
      <point x="182" y="625"/>
      <point x="50" y="516"/>
      <point x="50" y="435" type="curve"/>
      <point x="50" y="376"/>
      <point x="107" y="332"/>
    </contour>
    <contour>
      <point x="193" y="614" type="curve"/>
      <point x="204" y="598" type="line"/>
      <point x="284" y="651" type="line"/>
      <point x="223" y="651"/>
      <point x="175" y="655"/>
      <point x="135" y="663" type="curve"/>
      <point x="80" y="739" type="line"/>
      <point x="32" y="726" type="line"/>
      <point x="12" y="604"/>
      <point x="53" y="574"/>
    </contour>
  </outline>
</glyph>
<glyph name="omicron" format="1">
  <advance width="500"/>
  <unicode hex="03BF"/>
  <outline>
    <contour>
      <point x="240" y="-20" type="curve"/>
      <point x="373" y="-20"/>
      <point x="472" y="97"/>
      <point x="472" y="252" type="curve"/>
      <point x="472" y="393"/>
      <point x="384" y="492"/>
      <point x="260" y="492" type="curve"/>
      <point x="127" y="492"/>
      <point x="28" y="375"/>
      <point x="28" y="220" type="curve"/>
      <point x="28" y="79"/>
      <point x="116" y="-20"/>
    </contour>
    <contour>
      <point x="214" y="98" type="curve"/>
      <point x="181" y="98"/>
      <point x="146" y="104"/>
      <point x="120" y="118" type="curve"/>
      <point x="107" y="140"/>
      <point x="100" y="168"/>
      <point x="100" y="199" type="curve"/>
      <point x="100" y="300"/>
      <point x="170" y="374"/>
      <point x="286" y="374" type="curve"/>
      <point x="318" y="374"/>
      <point x="354" y="368"/>
      <point x="380" y="354" type="curve"/>
      <point x="393" y="332"/>
      <point x="399" y="304"/>
      <point x="399" y="274" type="curve"/>
      <point x="399" y="172"/>
      <point x="330" y="98"/>
    </contour>
    <contour>
      <point x="275" y="470" type="move" name="top"/>
    </contour>
  </outline>
</glyph>
<glyph name="pi" format="1">
  <advance width="682"/>
  <unicode hex="03C0"/>
  <outline>
    <contour>
      <point x="107" y="459"/>
      <point x="55" y="414"/>
      <point x="30" y="377" type="curve"/>
      <point x="61" y="339" type="line"/>
      <point x="145" y="398" type="line"/>
      <point x="615" y="379" type="line"/>
      <point x="654" y="408" type="line"/>
      <point x="650" y="470" type="line"/>
      <point x="143" y="470" type="line"/>
    </contour>
    <contour>
      <point x="568" y="0" type="line"/>
      <point x="532" y="442" type="line"/>
      <point x="440" y="439" type="line"/>
      <point x="444" y="30" type="line"/>
      <point x="484" y="-3" type="line"/>
    </contour>
    <contour>
      <point x="91" y="-7"/>
      <point x="131" y="-15"/>
      <point x="163" y="-15" type="curve" smooth="yes"/>
      <point x="279" y="-15"/>
      <point x="302" y="87"/>
      <point x="307" y="230" type="curve" smooth="yes"/>
      <point x="315" y="448" type="line"/>
      <point x="200" y="450" type="line"/>
      <point x="191" y="197" type="line" smooth="yes"/>
      <point x="189" y="145"/>
      <point x="187" y="72"/>
      <point x="177" y="49" type="curve"/>
      <point x="145" y="66"/>
      <point x="114" y="85"/>
      <point x="84" y="105" type="curve"/>
      <point x="45" y="10" type="line"/>
    </contour>
  </outline>
</glyph>
<glyph name="rho" format="1">
  <advance width="504"/>
  <unicode hex="03C1"/>
  <outline>
    <contour>
      <point x="39" y="-209" type="line"/>
      <point x="66" y="-225" type="line"/>
      <point x="110" y="-223"/>
      <point x="157" y="-210"/>
      <point x="178" y="-196" type="curve"/>
      <point x="113" y="86" type="line"/>
      <point x="122" y="103" type="line"/>
      <point x="119" y="123"/>
      <point x="118" y="151"/>
      <point x="118" y="188" type="curve"/>
      <point x="118" y="304"/>
      <point x="183" y="374"/>
      <point x="292" y="374" type="curve"/>
      <point x="323" y="374"/>
      <point x="358" y="370"/>
      <point x="385" y="355" type="curve"/>
      <point x="398" y="335"/>
      <point x="404" y="303"/>
      <point x="404" y="272" type="curve"/>
      <point x="404" y="170"/>
      <point x="334" y="98"/>
      <point x="229" y="98" type="curve"/>
      <point x="184" y="98"/>
      <point x="137" y="111"/>
      <point x="108" y="132" type="curve"/>
      <point x="98" y="101" type="line"/>
      <point x="137" y="26"/>
      <point x="198" y="-20"/>
      <point x="262" y="-20" type="curve"/>
      <point x="379" y="-20"/>
      <point x="476" y="102"/>
      <point x="476" y="251" type="curve"/>
      <point x="476" y="395"/>
      <point x="391" y="492"/>
      <point x="263" y="492" type="curve"/>
      <point x="137" y="492"/>
      <point x="50" y="387"/>
      <point x="50" y="235" type="curve"/>
      <point x="50" y="148"/>
      <point x="49" y="91"/>
      <point x="46" y="-1" type="curve"/>
    </contour>
    <contour>
      <point x="285" y="470" type="move" name="top"/>
    </contour>
  </outline>
</glyph>
<glyph name="finalsigma" format="1">
  <advance width="429"/>
  <unicode hex="03C2"/>
  <outline>
    <contour>
      <point x="222" y="-141" type="line"/>
      <point x="264" y="-177" type="line"/>
      <point x="350" y="-109"/>
      <point x="382" y="-63"/>
      <point x="382" y="-9" type="curve"/>
      <point x="382" y="31"/>
      <point x="367" y="61"/>
      <point x="329" y="86" type="curve"/>
      <point x="308" y="100"/>
      <point x="279" y="113"/>
      <point x="211" y="139" type="curve"/>
      <point x="129" y="170"/>
      <point x="92" y="190"/>
      <point x="85" y="206" type="curve"/>
      <point x="97" y="310"/>
      <point x="172" y="371"/>
      <point x="289" y="371" type="curve"/>
      <point x="391" y="355" type="line"/>
      <point x="415" y="373" type="line"/>
      <point x="418" y="417"/>
      <point x="416" y="457"/>
      <point x="408" y="480" type="curve"/>
      <point x="382" y="489"/>
      <point x="350" y="492"/>
      <point x="309" y="492" type="curve"/>
      <point x="148" y="492"/>
      <point x="28" y="384"/>
      <point x="28" y="235" type="curve"/>
      <point x="28" y="188"/>
      <point x="34" y="152"/>
      <point x="49" y="124" type="curve"/>
      <point x="70" y="80"/>
      <point x="116" y="45"/>
      <point x="189" y="15" type="curve"/>
      <point x="260" y="-15"/>
      <point x="291" y="-28"/>
      <point x="327" y="-48" type="curve"/>
      <point x="329" y="-19" type="line"/>
    </contour>
  </outline>
</glyph>
<glyph name="sigma" format="1">
  <advance width="566"/>
  <unicode hex="03C3"/>
  <outline>
    <contour>
      <point x="233" y="-20" type="curve"/>
      <point x="358" y="-20"/>
      <point x="449" y="92"/>
      <point x="449" y="225" type="curve"/>
      <point x="449" y="291"/>
      <point x="429" y="346"/>
      <point x="399" y="388" type="curve"/>
      <point x="337" y="381" type="line"/>
      <point x="361" y="355"/>
      <point x="375" y="311"/>
      <point x="375" y="263" type="curve"/>
      <point x="375" y="161"/>
      <point x="313" y="98"/>
      <point x="211" y="98" type="curve"/>
      <point x="175" y="98"/>
      <point x="143" y="104"/>
      <point x="120" y="117" type="curve"/>
      <point x="105" y="141"/>
      <point x="100" y="168"/>
      <point x="100" y="196" type="curve"/>
      <point x="100" y="299"/>
      <point x="171" y="362"/>
      <point x="291" y="362" type="curve"/>
      <point x="406" y="362" type="line"/>
      <point x="542" y="344" type="line"/>
      <point x="556" y="372" type="line"/>
      <point x="558" y="404"/>
      <point x="547" y="459"/>
      <point x="535" y="484" type="curve"/>
      <point x="350" y="472" type="line"/>
      <point x="257" y="472" type="line" smooth="yes"/>
      <point x="123" y="472"/>
      <point x="28" y="367"/>
      <point x="28" y="221" type="curve"/>
      <point x="28" y="79"/>
      <point x="113" y="-20"/>
    </contour>
  </outline>
</glyph>
<glyph name="tau" format="1">
  <advance width="527"/>
  <unicode hex="03C4"/>
  <outline>
    <contour>
      <point x="310" y="-14" type="curve"/>
      <point x="360" y="-14"/>
      <point x="413" y="26"/>
      <point x="432" y="81" type="curve"/>
      <point x="417" y="114" type="line"/>
      <point x="244" y="96" type="line"/>
      <point x="280" y="71" type="line"/>
      <point x="310" y="413" type="line"/>
      <point x="199" y="410" type="line"/>
      <point x="213" y="175" type="line" smooth="yes"/>
      <point x="219" y="56"/>
      <point x="252" y="-14"/>
    </contour>
    <contour>
      <point x="-7" y="357" type="curve"/>
      <point x="17" y="325" type="line"/>
      <point x="93" y="367" type="line"/>
      <point x="492" y="363" type="line"/>
      <point x="508" y="386" type="line"/>
      <point x="511" y="419"/>
      <point x="503" y="466"/>
      <point x="490" y="489" type="curve"/>
      <point x="327" y="472" type="line"/>
      <point x="109" y="472" type="line"/>
      <point x="63" y="460"/>
      <point x="18" y="416"/>
    </contour>
  </outline>
</glyph>
<glyph name="upsilon" format="1">
  <advance width="507"/>
  <unicode hex="03C5"/>
  <outline>
    <contour>
      <point x="266" y="-20" type="curve"/>
      <point x="390" y="-20"/>
      <point x="479" y="89"/>
      <point x="479" y="236" type="curve"/>
      <point x="479" y="316"/>
      <point x="457" y="394"/>
      <point x="420" y="454" type="curve"/>
      <point x="404" y="467"/>
      <point x="379" y="479"/>
      <point x="353" y="487" type="curve"/>
      <point x="333" y="463" type="line"/>
      <point x="359" y="409"/>
      <point x="376" y="343"/>
      <point x="376" y="276" type="curve"/>
      <point x="376" y="157"/>
      <point x="330" y="97"/>
      <point x="240" y="97" type="curve"/>
      <point x="201" y="97"/>
      <point x="165" y="109"/>
      <point x="147" y="127" type="curve"/>
      <point x="180" y="183" type="line"/>
      <point x="199" y="278"/>
      <point x="209" y="333"/>
      <point x="209" y="371" type="curve"/>
      <point x="209" y="438"/>
      <point x="166" y="486"/>
      <point x="117" y="486" type="curve"/>
      <point x="78" y="486"/>
      <point x="28" y="450"/>
      <point x="3" y="401" type="curve"/>
      <point x="20" y="364" type="line"/>
      <point x="142" y="380" type="line"/>
      <point x="125" y="425" type="line"/>
      <point x="86" y="250"/>
      <point x="80" y="218"/>
      <point x="80" y="166" type="curve"/>
      <point x="80" y="62"/>
      <point x="159" y="-20"/>
    </contour>
    <contour>
      <point x="260" y="470" type="move" name="top"/>
    </contour>
  </outline>
</glyph>
<glyph name="psi" format="1">
  <advance width="677"/>
  <unicode hex="03C8"/>
  <outline>
    <contour>
      <point x="355" y="-20" type="curve"/>
      <point x="535" y="-20"/>
      <point x="649" y="87"/>
      <point x="649" y="248" type="curve"/>
      <point x="649" y="325"/>
      <point x="629" y="396"/>
      <point x="590" y="454" type="curve"/>
      <point x="573" y="468"/>
      <point x="549" y="480"/>
      <point x="523" y="487" type="curve"/>
      <point x="503" y="463" type="line"/>
      <point x="531" y="408"/>
      <point x="546" y="350"/>
      <point x="546" y="291" type="curve"/>
      <point x="546" y="147"/>
      <point x="472" y="97"/>
      <point x="367" y="97" type="curve"/>
      <point x="342" y="97" type="line"/>
      <point x="241" y="97"/>
      <point x="185" y="116"/>
      <point x="148" y="139" type="curve"/>
      <point x="181" y="195" type="line"/>
      <point x="201" y="291"/>
      <point x="209" y="340"/>
      <point x="209" y="371" type="curve"/>
      <point x="209" y="436"/>
      <point x="168" y="486"/>
      <point x="117" y="486" type="curve"/>
      <point x="78" y="486"/>
      <point x="28" y="449"/>
      <point x="3" y="401" type="curve"/>
      <point x="20" y="364" type="line"/>
      <point x="141" y="380" type="line"/>
      <point x="124" y="425" type="line"/>
      <point x="88" y="275"/>
      <point x="80" y="235"/>
      <point x="80" y="176" type="curve"/>
      <point x="80" y="60"/>
      <point x="195" y="-20"/>
    </contour>
    <contour>
      <point x="286" y="-208" type="line"/>
      <point x="314" y="-224" type="line"/>
      <point x="361" y="-224"/>
      <point x="406" y="-219"/>
      <point x="427" y="-209" type="curve"/>
      <point x="384" y="3" type="line"/>
      <point x="383" y="66" type="line"/>
      <point x="429" y="689" type="line"/>
      <point x="400" y="705" type="line"/>
      <point x="365" y="704"/>
      <point x="333" y="697"/>
      <point x="295" y="683" type="curve"/>
      <point x="318" y="79" type="line"/>
      <point x="316" y="1" type="line"/>
    </contour>
  </outline>
</glyph>
<glyph name="omega" format="1">
  <advance width="675"/>
  <unicode hex="03C9"/>
  <outline>
    <contour>
      <point x="486" y="-20" type="curve"/>
      <point x="581" y="-20"/>
      <point x="647" y="68"/>
      <point x="647" y="194" type="curve"/>
      <point x="647" y="289"/>
      <point x="613" y="383"/>
      <point x="555" y="451" type="curve"/>
      <point x="535" y="466"/>
      <point x="514" y="476"/>
      <point x="486" y="486" type="curve"/>
      <point x="469" y="461" type="line"/>
      <point x="522" y="392"/>
      <point x="545" y="321"/>
      <point x="546" y="228" type="curve"/>
      <point x="547" y="145"/>
      <point x="518" y="97"/>
      <point x="465" y="97" type="curve"/>
      <point x="414" y="97"/>
      <point x="373" y="129"/>
      <point x="359" y="183" type="curve"/>
      <point x="325" y="118" type="line"/>
      <point x="344" y="32"/>
      <point x="405" y="-20"/>
    </contour>
    <contour>
      <point x="186" y="-20" type="curve"/>
      <point x="265" y="-20"/>
      <point x="324" y="41"/>
      <point x="350" y="149" type="curve"/>
      <point x="315" y="186" type="line"/>
      <point x="298" y="126"/>
      <point x="253" y="96"/>
      <point x="180" y="96" type="curve"/>
      <point x="150" y="96"/>
      <point x="126" y="105"/>
      <point x="108" y="120" type="curve"/>
      <point x="99" y="136"/>
      <point x="94" y="156"/>
      <point x="94" y="179" type="curve"/>
      <point x="94" y="253"/>
      <point x="138" y="326"/>
      <point x="207" y="363" type="curve"/>
      <point x="216" y="392" type="line"/>
      <point x="211" y="423"/>
      <point x="181" y="470"/>
      <point x="155" y="485" type="curve"/>
      <point x="78" y="427"/>
      <point x="28" y="315"/>
      <point x="28" y="199" type="curve"/>
      <point x="28" y="74"/>
      <point x="95" y="-20"/>
    </contour>
    <contour>
      <point x="272" y="321" type="curve"/>
      <point x="306" y="109" type="line"/>
      <point x="366" y="111" type="line"/>
      <point x="404" y="305" type="line"/>
      <point x="387" y="331" type="line"/>
      <point x="349" y="336"/>
      <point x="304" y="332"/>
    </contour>
    <contour>
      <point x="337" y="0" type="move" name="bottom"/>
    </contour>
    <contour>
      <point x="342" y="470" type="move" name="top"/>
    </contour>
  </outline>
</glyph>
<glyph name="dvCandrabinduInverted" format="1">
  <advance width="0"/>
  <unicode hex="0900"/>
  <outline>
    <contour>
      <point x="-318" y="761" type="line"/>
      <point x="-302" y="836"/>
      <point x="-256" y="868"/>
      <point x="-206" y="868" type="curve" smooth="yes"/>
      <point x="-157" y="868"/>
      <point x="-103" y="836"/>
      <point x="-60" y="759" type="curve"/>
      <point x="-14" y="800" type="line"/>
      <point x="-69" y="906"/>
      <point x="-160" y="958"/>
      <point x="-239" y="958" type="curve" smooth="yes"/>
      <point x="-322" y="958"/>
      <point x="-388" y="901"/>
      <point x="-407" y="803" type="curve"/>
    </contour>
    <contour>
      <point x="-214" y="804"/>
      <point x="-252" y="776"/>
      <point x="-268" y="753" type="curve"/>
      <point x="-253" y="723"/>
      <point x="-228" y="690"/>
      <point x="-205" y="676" type="curve"/>
      <point x="-177" y="687"/>
      <point x="-144" y="717"/>
      <point x="-129" y="737" type="curve"/>
      <point x="-140" y="765"/>
      <point x="-165" y="797"/>
      <point x="-190" y="814" type="curve"/>
    </contour>
    <contour>
      <point x="-204" y="655" type="move" name="_abvmCANDRABINDU"/>
    </contour>
  </outline>
</glyph>
<glyph name="dvCandrabindu" format="1">
  <advance width="0"/>
  <unicode hex="0901"/>
  <outline>
    <contour>
      <point x="-87" y="874" type="line"/>
      <point x="-103" y="799"/>
      <point x="-149" y="766"/>
      <point x="-199" y="766" type="curve" smooth="yes"/>
      <point x="-248" y="766"/>
      <point x="-302" y="799"/>
      <point x="-345" y="875" type="curve"/>
      <point x="-391" y="834" type="line"/>
      <point x="-336" y="728"/>
      <point x="-245" y="676"/>
      <point x="-166" y="676" type="curve" smooth="yes"/>
      <point x="-83" y="676"/>
      <point x="-17" y="733"/>
      <point x="2" y="831" type="curve"/>
    </contour>
    <contour>
      <point x="-170" y="837"/>
      <point x="-145" y="870"/>
      <point x="-134" y="898" type="curve"/>
      <point x="-149" y="918"/>
      <point x="-182" y="948"/>
      <point x="-210" y="959" type="curve"/>
      <point x="-233" y="945"/>
      <point x="-258" y="912"/>
      <point x="-273" y="882" type="curve"/>
      <point x="-257" y="858"/>
      <point x="-219" y="830"/>
      <point x="-195" y="821" type="curve"/>
    </contour>
    <contour>
      <point x="-170" y="655" type="move" name="_abvmCANDRABINDU"/>
    </contour>
  </outline>
</glyph>
<glyph name="dvAnusvara" format="1">
  <advance width="0"/>
  <unicode hex="0902"/>
  <outline>
    <contour>
      <point x="26" y="721"/>
      <point x="54" y="758"/>
      <point x="66" y="788" type="curve"/>
      <point x="50" y="809"/>
      <point x="14" y="842"/>
      <point x="-16" y="854" type="curve"/>
      <point x="-42" y="839"/>
      <point x="-69" y="803"/>
      <point x="-86" y="770" type="curve"/>
      <point x="-68" y="745"/>
      <point x="-27" y="714"/>
      <point x="0" y="704" type="curve"/>
    </contour>
    <contour>
      <point x="0" y="655" type="move" name="_abvmBINDU"/>
    </contour>
  </outline>
</glyph>
<glyph name="dvVisarga" format="1">
  <advance width="252"/>
  <unicode hex="0903"/>
  <outline>
    <contour>
      <point x="151" y="335"/>
      <point x="177" y="368"/>
      <point x="188" y="397" type="curve"/>
      <point x="172" y="417"/>
      <point x="139" y="448"/>
      <point x="110" y="459" type="curve"/>
      <point x="87" y="444"/>
      <point x="62" y="411"/>
      <point x="46" y="380" type="curve"/>
      <point x="63" y="357"/>
      <point x="101" y="328"/>
      <point x="126" y="319" type="curve"/>
    </contour>
    <contour>
      <point x="153" y="78"/>
      <point x="179" y="112"/>
      <point x="190" y="140" type="curve"/>
      <point x="174" y="160"/>
      <point x="141" y="191"/>
      <point x="112" y="202" type="curve"/>
      <point x="89" y="188"/>
      <point x="64" y="154"/>
      <point x="48" y="124" type="curve"/>
      <point x="65" y="100"/>
      <point x="103" y="71"/>
      <point x="128" y="62" type="curve"/>
    </contour>
  </outline>
</glyph>
<glyph name="dvShortA" format="1">
  <advance width="781"/>
  <unicode hex="0904"/>
  <outline>
    <component base="dvA"/>
    <component base="dvMatraShortE" xOffset="775"/>
    <contour>
      <point x="747" y="625" type="move" name="abvmBINDU"/>
    </contour>
  </outline>
</glyph>
<glyph name="dvA" format="1">
  <advance width="781"/>
  <unicode hex="0905"/>
  <outline>
    <contour>
      <point x="19" y="270" type="line"/>
      <point x="120" y="56"/>
      <point x="236" y="12"/>
      <point x="319" y="12" type="curve" smooth="yes"/>
      <point x="428" y="12"/>
      <point x="490" y="88"/>
      <point x="490" y="174" type="curve" smooth="yes"/>
      <point x="490" y="244"/>
      <point x="449" y="327"/>
      <point x="346" y="370" type="curve"/>
      <point x="316" y="385" type="line"/>
      <point x="267" y="393"/>
      <point x="210" y="380"/>
      <point x="167" y="345" type="curve"/>
      <point x="227" y="247" type="line"/>
      <point x="370" y="325" type="line"/>
      <point x="285" y="310" type="line"/>
      <point x="367" y="311"/>
      <point x="400" y="255"/>
      <point x="400" y="207" type="curve" smooth="yes"/>
      <point x="400" y="155"/>
      <point x="361" y="106"/>
      <point x="288" y="106" type="curve" smooth="yes"/>
      <point x="201" y="106"/>
      <point x="136" y="177"/>
      <point x="76" y="305" type="curve"/>
    </contour>
    <contour>
      <point x="157" y="468" type="line"/>
      <point x="215" y="523"/>
      <point x="289" y="558"/>
      <point x="339" y="553" type="curve"/>
      <point x="353" y="543"/>
      <point x="365" y="523"/>
      <point x="365" y="501" type="curve" smooth="yes"/>
      <point x="365" y="457"/>
      <point x="325" y="396"/>
      <point x="225" y="366" type="curve"/>
      <point x="331" y="314" type="line"/>
      <point x="412" y="349"/>
      <point x="450" y="416"/>
      <point x="450" y="470" type="curve" smooth="yes"/>
      <point x="450" y="548"/>
      <point x="369" y="633"/>
      <point x="272" y="633" type="curve" smooth="yes"/>
      <point x="207" y="633"/>
      <point x="142" y="595"/>
      <point x="96" y="550" type="curve"/>
    </contour>
    <contour>
      <point x="387" y="293" type="line"/>
      <point x="482" y="224"/>
      <point x="549" y="210"/>
      <point x="597" y="234" type="curve"/>
      <point x="599" y="347" type="line"/>
      <point x="561" y="301"/>
      <point x="467" y="288"/>
      <point x="396" y="342" type="curve"/>
    </contour>
    <contour>
      <point x="807" y="538" type="line"/>
      <point x="820" y="565" type="line"/>
      <point x="781" y="624" type="line"/>
      <point x="474" y="624" type="line"/>
      <point x="461" y="596" type="line"/>
      <point x="500" y="538" type="line"/>
    </contour>
    <contour>
      <point x="587" y="10" type="line"/>
      <point x="664" y="-36" type="line"/>
      <point x="696" y="-24" type="line"/>
      <point x="696" y="497" type="line"/>
      <point x="622" y="555" type="line"/>
      <point x="587" y="571" type="line"/>
    </contour>
    <contour>
      <point x="637" y="640" type="move" name="abvmBINDU"/>
    </contour>
    <contour>
      <point x="621" y="640" type="move" name="abvmCANDRABINDU"/>
    </contour>
  </outline>
</glyph>
<glyph name="dvAa" format="1">
  <advance width="1057"/>
  <unicode hex="0906"/>
  <outline>
    <component base="dvA"/>
    <component base="dvMatraAa" xOffset="781"/>
    <contour>
      <point x="784" y="640" type="move" name="abvmBINDU"/>
    </contour>
    <contour>
      <point x="778" y="640" type="move" name="abvmCANDRABINDU"/>
    </contour>
  </outline>
</glyph>
<glyph name="dvI" format="1">
  <advance width="554"/>
  <unicode hex="0907"/>
  <outline>
    <contour>
      <point x="168" y="22" type="line"/>
      <point x="322" y="-219" type="line"/>
      <point x="413" y="-152" type="line"/>
      <point x="221" y="27" type="line"/>
    </contour>
    <contour>
      <point x="580" y="538" type="line"/>
      <point x="593" y="565" type="line"/>
      <point x="554" y="624" type="line"/>
      <point x="-26" y="624" type="line"/>
      <point x="-39" y="596" type="line"/>
      <point x="0" y="538" type="line"/>
    </contour>
    <contour>
      <point x="355" y="386" type="line"/>
      <point x="455" y="373" type="line"/>
      <point x="455" y="497" type="line"/>
      <point x="382" y="555" type="line"/>
      <point x="355" y="571" type="line"/>
    </contour>
    <contour>
      <point x="83" y="32" type="line"/>
      <point x="142" y="-13"/>
      <point x="209" y="-35"/>
      <point x="278" y="-35" type="curve" smooth="yes"/>
      <point x="385" y="-35"/>
      <point x="514" y="18"/>
      <point x="514" y="135" type="curve" smooth="yes"/>
      <point x="514" y="208"/>
      <point x="459" y="274"/>
      <point x="375" y="306" type="curve"/>
      <point x="172" y="258" type="line"/>
      <point x="151" y="276"/>
      <point x="138" y="293"/>
      <point x="138" y="314" type="curve" smooth="yes"/>
      <point x="138" y="351"/>
      <point x="178" y="373"/>
      <point x="232" y="373" type="curve" smooth="yes"/>
      <point x="455" y="373" type="line"/>
      <point x="375" y="470" type="line"/>
      <point x="208" y="470" type="line" smooth="yes"/>
      <point x="97" y="470"/>
      <point x="46" y="413"/>
      <point x="46" y="354" type="curve" smooth="yes"/>
      <point x="46" y="277"/>
      <point x="134" y="184"/>
      <point x="250" y="160" type="curve"/>
      <point x="416" y="204" type="line"/>
      <point x="445" y="119"/>
      <point x="340" y="28"/>
      <point x="189" y="50" type="curve"/>
      <point x="246" y="24" type="line"/>
      <point x="166" y="150" type="line"/>
      <point x="112" y="151" type="line"/>
    </contour>
    <contour>
      <point x="389" y="640" type="move" name="abvmBINDU"/>
    </contour>
    <contour>
      <point x="366" y="640" type="move" name="abvmCANDRABINDU"/>
    </contour>
  </outline>
</glyph>
<glyph name="dvU" format="1">
  <advance width="549"/>
  <unicode hex="0909"/>
  <outline>
    <contour>
      <point x="285" y="551" type="line"/>
      <point x="328" y="529"/>
      <point x="346" y="498"/>
      <point x="346" y="464" type="curve" smooth="yes"/>
      <point x="346" y="415"/>
      <point x="307" y="377"/>
      <point x="224" y="356" type="curve"/>
      <point x="330" y="300" type="line"/>
      <point x="417" y="334"/>
      <point x="444" y="387"/>
      <point x="444" y="435" type="curve" smooth="yes"/>
      <point x="444" y="499"/>
      <point x="397" y="546"/>
      <point x="340" y="575" type="curve"/>
    </contour>
    <contour>
      <point x="575" y="538" type="line"/>
      <point x="588" y="565" type="line"/>
      <point x="549" y="624" type="line"/>
      <point x="-26" y="624" type="line"/>
      <point x="-39" y="596" type="line"/>
      <point x="0" y="538" type="line"/>
    </contour>
    <contour>
      <point x="9" y="247" type="line"/>
      <point x="113" y="25"/>
      <point x="225" y="-27"/>
      <point x="316" y="-27" type="curve" smooth="yes"/>
      <point x="430" y="-27"/>
      <point x="506" y="53"/>
      <point x="506" y="150" type="curve" smooth="yes"/>
      <point x="506" y="233"/>
      <point x="448" y="319"/>
      <point x="346" y="357" type="curve"/>
      <point x="314" y="373" type="line"/>
      <point x="263" y="381"/>
      <point x="206" y="369"/>
      <point x="162" y="332" type="curve"/>
      <point x="222" y="232" type="line"/>
      <point x="368" y="311" type="line"/>
      <point x="284" y="294" type="line"/>
      <point x="366" y="295"/>
      <point x="407" y="233"/>
      <point x="407" y="179" type="curve" smooth="yes"/>
      <point x="407" y="118"/>
      <point x="357" y="75"/>
      <point x="290" y="75" type="curve" smooth="yes"/>
      <point x="198" y="75"/>
      <point x="125" y="157"/>
      <point x="68" y="281" type="curve"/>
    </contour>
    <contour>
      <point x="328" y="640" type="move" name="abvmBINDU"/>
    </contour>
    <contour>
      <point x="317" y="640" type="move" name="abvmCANDRABINDU"/>
    </contour>
  </outline>
</glyph>
<glyph name="dvUu" format="1">
  <advance width="775"/>
  <unicode hex="090A"/>
  <outline>
    <contour>
      <point x="801" y="538" type="line"/>
      <point x="814" y="565" type="line"/>
      <point x="775" y="624" type="line"/>
      <point x="239" y="624" type="line"/>
      <point x="226" y="596" type="line"/>
      <point x="265" y="538" type="line"/>
    </contour>
    <contour>
      <point x="642" y="30" type="line"/>
      <point x="719" y="85"/>
      <point x="767" y="146"/>
      <point x="767" y="219" type="curve" smooth="yes"/>
      <point x="767" y="308"/>
      <point x="695" y="391"/>
      <point x="604" y="391" type="curve" smooth="yes"/>
      <point x="541" y="391"/>
      <point x="484" y="352"/>
      <point x="424" y="283" type="curve"/>
      <point x="487" y="201" type="line"/>
      <point x="541" y="269"/>
      <point x="597" y="306"/>
      <point x="637" y="306" type="curve" smooth="yes"/>
      <point x="669" y="306"/>
      <point x="686" y="285"/>
      <point x="686" y="261" type="curve" smooth="yes"/>
      <point x="686" y="217"/>
      <point x="627" y="158"/>
      <point x="568" y="112" type="curve"/>
    </contour>
    <component base="dvU"/>
    <contour>
      <point x="361" y="640" type="move" name="abvmBINDU"/>
    </contour>
    <contour>
      <point x="370" y="640" type="move" name="abvmCANDRABINDU"/>
    </contour>
  </outline>
</glyph>
<glyph name="dvVocalicR" format="1">
  <advance width="850"/>
  <unicode hex="090B"/>
  <outline>
    <contour>
      <point x="640" y="57" type="line"/>
      <point x="694" y="-7" type="line"/>
      <point x="788" y="13"/>
      <point x="828" y="80"/>
      <point x="828" y="136" type="curve" smooth="yes"/>
      <point x="828" y="197"/>
      <point x="782" y="261"/>
      <point x="722" y="328" type="curve"/>
      <point x="689" y="276" type="line"/>
      <point x="719" y="246"/>
      <point x="738" y="211"/>
      <point x="738" y="178" type="curve" smooth="yes"/>
      <point x="738" y="140"/>
      <point x="713" y="105"/>
      <point x="648" y="86" type="curve"/>
    </contour>
    <contour>
      <point x="494" y="191" type="line"/>
      <point x="518" y="181"/>
      <point x="543" y="177"/>
      <point x="567" y="177" type="curve" smooth="yes"/>
      <point x="650" y="177"/>
      <point x="729" y="232"/>
      <point x="742" y="293" type="curve"/>
      <point x="701" y="364" type="line"/>
      <point x="694" y="302"/>
      <point x="641" y="262"/>
      <point x="581" y="262" type="curve" smooth="yes"/>
      <point x="552" y="262"/>
      <point x="522" y="271"/>
      <point x="494" y="290" type="curve"/>
    </contour>
    <contour>
      <point x="691" y="311" type="line"/>
      <point x="731" y="277" type="line"/>
      <point x="764" y="313"/>
      <point x="766" y="379"/>
      <point x="742" y="420" type="curve"/>
      <point x="631" y="423" type="line"/>
      <point x="609" y="383" type="line"/>
      <point x="700" y="263" type="line"/>
    </contour>
    <contour>
      <point x="875" y="538" type="line"/>
      <point x="888" y="565" type="line"/>
      <point x="850" y="624" type="line"/>
      <point x="465" y="624" type="line"/>
      <point x="452" y="596" type="line"/>
      <point x="491" y="538" type="line"/>
    </contour>
    <component base="dvTRa" xOffset="11"/>
    <contour>
      <point x="461" y="640" type="move" name="abvmCANDRABINDU"/>
    </contour>
    <contour>
      <point x="462" y="640" type="move" name="abvmBINDU"/>
    </contour>
    <contour>
      <point x="463" y="470" type="move" name="abvmTOP"/>
    </contour>
    <contour>
      <point x="382" y="4" type="move" name="blwmBOTTOM"/>
    </contour>
  </outline>
</glyph>
<glyph name="dvVocalicL" format="1">
  <advance width="722"/>
  <unicode hex="090C"/>
  <outline>
    <contour>
      <point x="375" y="300" type="line"/>
      <point x="252" y="420" type="line"/>
      <point x="232" y="432"/>
      <point x="208" y="438"/>
      <point x="184" y="438" type="curve" smooth="yes"/>
      <point x="109" y="438"/>
      <point x="29" y="381"/>
      <point x="29" y="279" type="curve" smooth="yes"/>
      <point x="29" y="181"/>
      <point x="103" y="74"/>
      <point x="283" y="-43" type="curve"/>
      <point x="326" y="14" type="line"/>
      <point x="222" y="83"/>
      <point x="141" y="153"/>
      <point x="141" y="234" type="curve" smooth="yes"/>
      <point x="141" y="290"/>
      <point x="179" y="332"/>
      <point x="231" y="332" type="curve" smooth="yes"/>
      <point x="261" y="332"/>
      <point x="296" y="319"/>
      <point x="326" y="285" type="curve"/>
      <point x="356" y="251" type="line"/>
    </contour>
    <contour>
      <point x="748" y="538" type="line"/>
      <point x="761" y="565" type="line"/>
      <point x="723" y="624" type="line"/>
      <point x="-26" y="624" type="line"/>
      <point x="-39" y="596" type="line"/>
      <point x="0" y="538" type="line"/>
    </contour>
    <contour>
      <point x="437" y="398" type="line"/>
      <point x="544" y="383" type="line"/>
      <point x="544" y="497" type="line"/>
      <point x="471" y="555" type="line"/>
      <point x="437" y="571" type="line"/>
    </contour>
    <contour>
      <point x="670" y="21" type="line"/>
      <point x="644" y="-28"/>
      <point x="607" y="-80"/>
      <point x="566" y="-80" type="curve" smooth="yes"/>
      <point x="541" y="-80"/>
      <point x="521" y="-63"/>
      <point x="521" y="-35" type="curve" smooth="yes"/>
      <point x="521" y="34"/>
      <point x="667" y="123"/>
      <point x="667" y="250" type="curve" smooth="yes"/>
      <point x="667" y="340"/>
      <point x="590" y="432"/>
      <point x="482" y="432" type="curve" smooth="yes"/>
      <point x="382" y="432"/>
      <point x="273" y="356"/>
      <point x="290" y="174" type="curve"/>
      <point x="370" y="119" type="line"/>
      <point x="394" y="132" type="line"/>
      <point x="382" y="257"/>
      <point x="433" y="358"/>
      <point x="499" y="358" type="curve" smooth="yes"/>
      <point x="542" y="358"/>
      <point x="565" y="320"/>
      <point x="565" y="278" type="curve" smooth="yes"/>
      <point x="565" y="175"/>
      <point x="432" y="108"/>
      <point x="432" y="10" type="curve" smooth="yes"/>
      <point x="432" y="-73"/>
      <point x="523" y="-158"/>
      <point x="607" y="-158" type="curve" smooth="yes"/>
      <point x="667" y="-158"/>
      <point x="717" y="-115"/>
      <point x="747" y="-46" type="curve"/>
    </contour>
    <contour>
      <point x="455" y="640" type="move" name="abvmCANDRABINDU"/>
    </contour>
    <contour>
      <point x="481" y="640" type="move" name="abvmBINDU"/>
    </contour>
    <contour>
      <point x="480" y="470" type="move" name="abvmTOP"/>
    </contour>
    <contour>
      <point x="346" y="4" type="move" name="blwmBOTTOM"/>
    </contour>
  </outline>
</glyph>
<glyph name="dvShortE" format="1">
  <advance width="571"/>
  <unicode hex="090E"/>
  <outline>
    <component base="dvE"/>
    <component base="dvMatraShortE" xOffset="552"/>
    <contour>
      <point x="530" y="625" type="move" name="abvmBINDU"/>
    </contour>
  </outline>
</glyph>
<glyph name="dvE" format="1">
  <advance width="571"/>
  <unicode hex="090F"/>
  <outline>
    <contour>
      <point x="388" y="250" type="line"/>
      <point x="313" y="204" type="line"/>
      <point x="360" y="132" type="line"/>
      <point x="469" y="173"/>
      <point x="497" y="220"/>
      <point x="497" y="358" type="curve" smooth="yes"/>
      <point x="497" y="497" type="line"/>
      <point x="421" y="558" type="line"/>
      <point x="388" y="572" type="line"/>
    </contour>
    <contour>
      <point x="597" y="538" type="line"/>
      <point x="610" y="565" type="line"/>
      <point x="572" y="624" type="line"/>
      <point x="-26" y="624" type="line"/>
      <point x="-39" y="596" type="line"/>
      <point x="0" y="538" type="line"/>
    </contour>
    <contour>
      <point x="555" y="-187" type="line"/>
      <point x="577" y="-162"/>
      <point x="590" y="-132"/>
      <point x="590" y="-98" type="curve" smooth="yes"/>
      <point x="590" y="-37"/>
      <point x="546" y="7"/>
      <point x="420" y="67" type="curve" smooth="yes"/>
      <point x="177" y="183" type="line"/>
      <point x="177" y="497" type="line"/>
      <point x="102" y="558" type="line"/>
      <point x="68" y="572" type="line"/>
      <point x="68" y="299" type="line"/>
      <point x="68" y="192"/>
      <point x="134" y="120"/>
      <point x="223" y="78" type="curve" smooth="yes"/>
      <point x="432" y="-24" type="line" smooth="yes"/>
      <point x="483" y="-53"/>
      <point x="491" y="-84"/>
      <point x="454" y="-137" type="curve"/>
    </contour>
    <contour>
      <point x="294" y="640" type="move" name="abvmBINDU"/>
    </contour>
    <contour>
      <point x="309" y="640" type="move" name="abvmCANDRABINDU"/>
    </contour>
  </outline>
</glyph>
<glyph name="dvAi" format="1">
  <advance width="571"/>
  <unicode hex="0910"/>
  <outline>
    <component base="dvE"/>
    <component base="dvMatraE" xOffset="579"/>
    <contour>
      <point x="510" y="625" type="move" name="abvmBINDU"/>
    </contour>
  </outline>
</glyph>
<glyph name="dvShortO" format="1">
  <advance width="1057"/>
  <unicode hex="0912"/>
  <outline>
    <component base="dvA"/>
    <component base="dvMatraShortO" xOffset="781"/>
    <contour>
      <point x="917" y="465" type="move" name="abvmTOP"/>
    </contour>
    <contour>
      <point x="1025" y="625" type="move" name="abvmBINDU"/>
    </contour>
  </outline>
</glyph>
<glyph name="dvO" format="1">
  <advance width="1057"/>
  <unicode hex="0913"/>
  <outline>
    <component base="dvA"/>
    <component base="dvMatraO" xOffset="781"/>
    <contour>
      <point x="984" y="624" type="move" name="abvmBINDU"/>
    </contour>
  </outline>
</glyph>
<glyph name="dvAu" format="1">
  <advance width="1057"/>
  <unicode hex="0914"/>
  <outline>
    <component base="dvA"/>
    <component base="dvMatraAu" xOffset="781"/>
    <contour>
      <point x="1013" y="625" type="move" name="abvmBINDU"/>
    </contour>
  </outline>
</glyph>
<glyph name="dvKa" format="1">
  <advance width="755"/>
  <unicode hex="0915"/>
  <outline>
    <contour>
      <point x="225" y="447" type="line"/>
      <point x="121" y="473"/>
      <point x="23" y="401"/>
      <point x="23" y="299" type="curve" smooth="yes"/>
      <point x="23" y="181"/>
      <point x="152" y="98"/>
      <point x="246" y="98" type="curve" smooth="yes"/>
      <point x="307" y="98"/>
      <point x="352" y="132"/>
      <point x="386" y="181" type="curve"/>
      <point x="345" y="288" type="line"/>
      <point x="306" y="207"/>
      <point x="213" y="162"/>
      <point x="147" y="192" type="curve"/>
      <point x="96" y="263"/>
      <point x="140" y="364"/>
      <point x="236" y="364" type="curve" smooth="yes"/>
      <point x="281" y="364"/>
      <point x="323" y="342"/>
      <point x="368" y="313" type="curve"/>
      <point x="376" y="372" type="line"/>
    </contour>
    <contour>
      <point x="781" y="538" type="line"/>
      <point x="794" y="565" type="line"/>
      <point x="755" y="624" type="line"/>
      <point x="-26" y="624" type="line"/>
      <point x="-39" y="596" type="line"/>
      <point x="0" y="538" type="line"/>
    </contour>
    <contour>
      <point x="324" y="10" type="line"/>
      <point x="401" y="-36" type="line"/>
      <point x="433" y="-24" type="line"/>
      <point x="433" y="497" type="line"/>
      <point x="359" y="555" type="line"/>
      <point x="324" y="571" type="line"/>
    </contour>
    <contour>
      <point x="404" y="181" type="line"/>
      <point x="464" y="266"/>
      <point x="526" y="318"/>
      <point x="578" y="318" type="curve" smooth="yes"/>
      <point x="621" y="318"/>
      <point x="636" y="288"/>
      <point x="636" y="259" type="curve" smooth="yes"/>
      <point x="636" y="204"/>
      <point x="579" y="149"/>
      <point x="494" y="88" type="curve"/>
      <point x="572" y="4" type="line"/>
      <point x="665" y="65"/>
      <point x="725" y="141"/>
      <point x="725" y="229" type="curve" smooth="yes"/>
      <point x="725" y="330"/>
      <point x="646" y="416"/>
      <point x="553" y="416" type="curve" smooth="yes"/>
      <point x="474" y="416"/>
      <point x="406" y="352"/>
      <point x="368" y="281" type="curve"/>
    </contour>
    <contour>
      <point x="381" y="640" type="move" name="abvmBINDU"/>
    </contour>
    <contour>
      <point x="398" y="470" type="move" name="abvmTOP"/>
    </contour>
    <contour>
      <point x="401" y="640" type="move" name="abvmCANDRABINDU"/>
    </contour>
    <contour>
      <point x="678" y="640" type="move" name="abvmCANDRABINDU2"/>
    </contour>
    <contour>
      <point x="310" y="4" type="move" name="blwmBOTTOM"/>
    </contour>
  </outline>
</glyph>
